<?xml version="1.0" standalone="no"?>
<!DOCTYPE svg PUBLIC "-//W3C//DTD SVG 1.1//EN" "http://www.w3.org/Graphics/SVG/1.1/DTD/svg11.dtd" >
<svg xmlns="http://www.w3.org/2000/svg" xmlns:xlink="http://www.w3.org/1999/xlink" version="1.1">
<metadata>
Created by FontForge 20170731 at Fri Sep 11 14:28:34 2020
 By Aleksey,,,
Copyright (c) 2020 by Latinotype Ltda. All rights reserved.
</metadata>
<defs>
<font id="Organetto-UltraBoldExt" horiz-adv-x="1026" >
  <font-face 
    font-family="Organetto UltraBold Ext"
    font-weight="800"
    font-stretch="expanded"
    units-per-em="1000"
    panose-1="0 0 0 0 0 0 0 0 0 0"
    ascent="800"
    descent="-200"
    x-height="692"
    cap-height="692"
    bbox="-1204 -331 2290 993"
    underline-thickness="50"
    underline-position="-150"
    unicode-range="U+000D-F8FF"
  />
<missing-glyph horiz-adv-x="612" 
d="M91 0v730h430v-730h-430zM456 695h-300l150 -287zM131 73l153 292l-153 292v-584zM481 657l-152 -292l152 -292v584zM456 35l-150 287l-150 -287h300z" />
    <glyph glyph-name=".notdef" horiz-adv-x="612" 
d="M91 0v730h430v-730h-430zM456 695h-300l150 -287zM131 73l153 292l-153 292v-584zM481 657l-152 -292l152 -292v584zM456 35l-150 287l-150 -287h300z" />
    <glyph glyph-name=".null" horiz-adv-x="0" 
 />
    <glyph glyph-name=".null" horiz-adv-x="0" 
 />
    <glyph glyph-name="uni000D" unicode="&#xd;" horiz-adv-x="250" 
 />
    <glyph glyph-name="space" unicode=" " horiz-adv-x="345" 
 />
    <glyph glyph-name="exclam" unicode="!" horiz-adv-x="381" 
d="M288 692v-156l-16 -301h-163l-16 301v156h195zM65 85q0 43 34 70.5t92 27.5q57 0 91 -27.5t34 -70.5q0 -44 -34 -71.5t-91 -27.5q-58 0 -92 27.5t-34 71.5z" />
    <glyph glyph-name="quotedbl" unicode="&#x22;" horiz-adv-x="677" 
d="M330 704h207l-40 -310h-127zM53 704h207l-40 -310h-127z" />
    <glyph glyph-name="numbersign" unicode="#" horiz-adv-x="890" 
d="M52 150v144h145l34 101h-151v145h201l44 132h164l-44 -132h129l44 132h164l-43 -132h98v-145h-149l-33 -101h160v-144h-210l-44 -132h-164l44 132h-130l-43 -132h-165l44 132h-95zM362 294h129l33 101h-129z" />
    <glyph glyph-name="dollar" unicode="$" horiz-adv-x="988" 
d="M722 415q62 -7 103 -25.5t65.5 -44.5t34.5 -58t10 -67q0 -40 -15.5 -75t-47 -60.5t-80 -40t-114.5 -14.5h-67l6 -113h-191l6 113h-76q-122 0 -199 33.5t-109 96.5l171 86q23 -36 56 -49.5t79 -13.5h322q36 0 55.5 8.5t19.5 28.5q0 18 -18 25.5t-49 12.5l-410 26
q-58 6 -96.5 24t-62 43.5t-33.5 57t-10 64.5q0 41 16 75.5t49.5 60t84.5 39.5t120 14h90l-6 113h191l-6 -113h40q104 0 172 -26.5t102 -74.5l-151 -93q-24 22 -52 31.5t-73 9.5h-309q-84 0 -84 -35q0 -14 15 -22.5t56 -13.5z" />
    <glyph glyph-name="percent" unicode="%" horiz-adv-x="1316" 
d="M260 696h126q94 0 142 -46t48 -130v-1q0 -84 -48 -130t-142 -46h-126q-94 0 -142 46t-48 130v1q0 84 48 130t142 46zM741 174q0 84 48 129.5t142 45.5h125q94 0 142 -45.5t48 -129.5v-1q0 -84 -48 -130.5t-142 -46.5h-125q-94 0 -142 46.5t-48 130.5v1zM278 0l559 692
h205l-560 -692h-204zM277 459h92q27 0 41 15.5t14 44.5v1q0 29 -14 44.5t-41 15.5h-92q-26 0 -40 -15.5t-14 -44.5v-1q0 -29 14 -44.5t40 -15.5zM893 173q0 -29 14.5 -44.5t40.5 -15.5h91q27 0 41 15.5t14 44.5v1q0 59 -55 59h-91q-55 0 -55 -59v-1z" />
    <glyph glyph-name="ampersand" unicode="&#x26;" horiz-adv-x="1073" 
d="M164 343q-40 24 -63.5 60t-23.5 86q0 103 74.5 156t210.5 53h302q80 0 132.5 -16t83.5 -43t43.5 -63.5t12.5 -77.5v-10h-173v5q0 19 -21.5 35t-77.5 16h-302q-57 0 -81.5 -17t-24.5 -51q0 -29 22 -46.5t73 -17.5h648v-140h-71v-77q0 -17 8 -27t20 -15.5t27.5 -7.5
t30.5 -2v-149q-62 0 -104.5 15.5t-68.5 43.5q-27 -27 -74 -43t-121 -16h-317q-73 0 -125 14.5t-85 41t-48.5 62t-15.5 77.5q0 58 30.5 95.5t78.5 58.5zM331 148h317q23 0 44.5 2.5t38 9.5t27 20t10.5 34v58h-417q-35 0 -58 -4.5t-36 -13t-18 -20t-5 -26.5q0 -26 22.5 -43
t74.5 -17z" />
    <glyph glyph-name="quotesingle" unicode="'" horiz-adv-x="313" 
d="M93 394l-40 310h207l-40 -310h-127z" />
    <glyph glyph-name="parenleft" unicode="(" horiz-adv-x="563" 
d="M36 339q0 94 24 169t68.5 127t107 79.5t140.5 27.5h142v-175h-122q-39 0 -70 -18t-52 -49t-32 -72.5t-11 -88.5t11 -88.5t32 -72.5t52 -49t70 -18h122v-175h-142q-78 0 -140.5 27.5t-107 79.5t-68.5 127t-24 169z" />
    <glyph glyph-name="parenright" unicode=")" horiz-adv-x="563" 
d="M45 111h122q39 0 70 18t52 49t32 72.5t11 88.5t-11 88.5t-32 72.5t-52 49t-70 18h-122v175h142q78 0 140.5 -27.5t107 -79.5t68.5 -127t24 -169t-24 -169t-68.5 -127t-107 -79.5t-140.5 -27.5h-142v175z" />
    <glyph glyph-name="asterisk" unicode="*" horiz-adv-x="573" 
d="M390 570l126 24v-153l-126 25l77 -69l-135 -69l-45 105l-46 -105l-135 69l77 69l-126 -25v153l126 -24l-77 68l135 69l46 -104l45 104l135 -69z" />
    <glyph glyph-name="plus" unicode="+" horiz-adv-x="757" 
d="M53 254v155h241v163h168v-163h242v-155h-241v-163h-168v163h-242z" />
    <glyph glyph-name="comma" unicode="," horiz-adv-x="346" 
d="M48 85q0 43 34 70.5t92 27.5q57 0 91 -27.5t34 -70.5q0 -25 -20 -62l-79 -140h-114l40 109q-31 8 -54.5 32t-23.5 61z" />
    <glyph glyph-name="hyphen" unicode="-" horiz-adv-x="628" 
d="M54 254v155h521v-155h-521z" />
    <glyph glyph-name="period" unicode="." horiz-adv-x="357" 
d="M53 85q0 43 34 70.5t92 27.5q57 0 91 -27.5t34 -70.5q0 -44 -34 -71.5t-91 -27.5q-58 0 -92 27.5t-34 71.5z" />
    <glyph glyph-name="slash" unicode="/" horiz-adv-x="576" 
d="M0 -67l409 809h167l-409 -809h-167z" />
    <glyph glyph-name="zero" unicode="0" horiz-adv-x="1060" 
d="M39 346v1q0 81 24.5 146t71 110.5t114.5 70t156 24.5h250q88 0 156 -24.5t114.5 -70t71 -110.5t24.5 -146v-1q0 -81 -24.5 -146.5t-71 -111t-114.5 -70t-156 -24.5h-250q-88 0 -156 24.5t-114.5 70t-71 111t-24.5 146.5zM229 346q0 -82 45.5 -128.5t130.5 -46.5h250
q85 0 130.5 46.5t45.5 128.5v1q0 82 -45.5 128t-130.5 46h-250q-85 0 -130.5 -46t-45.5 -128v-1z" />
    <glyph glyph-name="one" unicode="1" horiz-adv-x="493" 
d="M20 609l201 83h195v-692h-195v493l-133 -53z" />
    <glyph glyph-name="two" unicode="2" horiz-adv-x="927" 
d="M320 698h283q60 0 110 -12.5t85 -39.5t54.5 -68.5t19.5 -99.5q0 -71 -36.5 -116.5t-119.5 -74.5l-322 -108l-81 -21h567v-158h-826v191l569 211q38 19 51 35t13 39q0 25 -19.5 38.5t-64.5 13.5h-283q-41 0 -69 -14.5t-39 -43.5l-179 71q29 81 103 119t184 38z" />
    <glyph glyph-name="three" unicode="3" horiz-adv-x="930" 
d="M25 147l174 69q19 -59 121 -59h290q48 0 71 13.5t23 44.5q0 27 -20 42.5t-67 15.5h-339v145h338q38 0 55.5 15t17.5 41q0 31 -22 46.5t-63 15.5h-289q-94 0 -113 -60l-174 69q24 71 98 112t189 41h284q137 0 206 -51t69 -142q0 -114 -99 -157q114 -43 114 -165
q0 -92 -71 -140.5t-211 -48.5h-287q-119 0 -195 41.5t-100 111.5z" />
    <glyph glyph-name="four" unicode="4" horiz-adv-x="943" 
d="M31 156v165l382 371h264l-410 -371h339v136h195v-136h112v-165h-112v-156h-195v156h-575z" />
    <glyph glyph-name="five" unicode="5" horiz-adv-x="911" 
d="M200 216q19 -59 116 -59h289q42 0 64 14t22 43q0 26 -19 42t-70 16h-530l25 420h725v-165h-546l-6 -102h332q79 0 131.5 -16.5t84 -46t45 -68.5t13.5 -84q0 -106 -69 -161t-207 -55h-284q-117 0 -191.5 41.5t-98.5 111.5z" />
    <glyph glyph-name="six" unicode="6" horiz-adv-x="917" 
d="M32 227q0 57 20 110.5t78 104.5l312 250h265l-345 -270q24 12 54.5 20t63.5 8h167q58 0 103 -16.5t75.5 -46t46 -70.5t15.5 -90t-15 -91.5t-47.5 -74t-82.5 -49.5t-120 -18h-326q-69 0 -119 18t-82.5 49.5t-47.5 74t-15 91.5zM217 227q0 -34 23.5 -53t61.5 -19h314
q39 0 62.5 19t23.5 53q0 33 -23.5 52.5t-62.5 19.5h-314q-38 0 -61.5 -19.5t-23.5 -52.5z" />
    <glyph glyph-name="seven" unicode="7" horiz-adv-x="883" 
d="M852 692v-164l-427 -528h-259l445 523h-581v169h822z" />
    <glyph glyph-name="eight" unicode="8" horiz-adv-x="939" 
d="M41 190q0 54 25 95t81 64q-46 24 -66.5 62.5t-20.5 87.5q0 39 13 75t41.5 63.5t74 44t111.5 16.5h340q62 0 107.5 -16.5t75 -44t43.5 -63.5t14 -75q0 -49 -22.5 -87.5t-68.5 -62.5q56 -23 83 -64t27 -95q0 -39 -15 -74.5t-46.5 -62.5t-80 -43t-114.5 -16h-346
q-70 0 -119 16t-79.5 43t-44 62.5t-13.5 74.5zM226 211q0 -32 23 -48t66 -16h310q43 0 66 16t23 48t-23 48t-66 16h-310q-43 0 -66 -16t-23 -48zM234 480q0 -31 21.5 -46.5t62.5 -15.5h304q41 0 62.5 15.5t21.5 46.5q0 32 -21.5 48.5t-62.5 16.5h-304q-41 0 -62.5 -16.5
t-21.5 -48.5z" />
    <glyph glyph-name="nine" unicode="9" horiz-adv-x="917" 
d="M295 698h327q69 0 118.5 -18.5t82 -50.5t47.5 -75t15 -93q0 -27 -4.5 -53.5t-15.5 -53t-30 -52.5t-48 -52l-312 -250h-264l336 259q-24 -9 -51.5 -15.5t-59.5 -6.5h-167q-56 0 -100.5 17t-75 47t-46.5 71t-16 90t15 92t47.5 75t82.5 50.5t119 18.5zM216 462
q0 -32 23.5 -53t62.5 -21h314q38 0 61.5 21t22.5 53q0 35 -23 55.5t-62 20.5h-313q-39 0 -63 -20.5t-23 -55.5z" />
    <glyph glyph-name="colon" unicode=":" horiz-adv-x="357" 
d="M53 416q0 43 34 70.5t92 27.5q57 0 91 -27.5t34 -70.5q0 -44 -34 -71.5t-91 -27.5q-58 0 -92 27.5t-34 71.5zM179 183q57 0 91 -27.5t34 -70.5q0 -44 -34 -71.5t-91 -27.5q-58 0 -92 27.5t-34 71.5q0 43 34 70.5t92 27.5z" />
    <glyph glyph-name="semicolon" unicode=";" horiz-adv-x="351" 
d="M174 183q57 0 91 -27.5t34 -70.5q0 -25 -20 -62l-79 -140h-114l40 109q-31 8 -54.5 32t-23.5 61q0 43 34 70.5t92 27.5zM53 416q0 43 34 70.5t92 27.5q57 0 91 -27.5t34 -70.5q0 -44 -34 -71.5t-91 -27.5q-58 0 -92 27.5t-34 71.5z" />
    <glyph glyph-name="less" unicode="&#x3c;" horiz-adv-x="769" 
d="M658 75l-607 196v159l607 197l55 -149l-446 -127l446 -127z" />
    <glyph glyph-name="equal" unicode="=" horiz-adv-x="836" 
d="M93 359v155h651v-155h-651zM744 279v-155h-651v155h651z" />
    <glyph glyph-name="greater" unicode="&#x3e;" horiz-adv-x="769" 
d="M111 75l-55 149l446 127l-446 127l55 149l607 -197v-159z" />
    <glyph glyph-name="question" unicode="?" horiz-adv-x="938" 
d="M281 698h297q68 0 121.5 -13.5t91 -43t57.5 -74.5t20 -108v-1q0 -53 -19 -92t-50.5 -64.5t-73.5 -38t-88 -12.5h-111v-29h-194v173h226q22 0 45 2t42 9t31 19t12 33v1q0 20 -9 32.5t-24.5 19.5t-36 9.5t-43.5 2.5h-296q-44 0 -77 -9.5t-62 -27.5l-105 145q47 35 107.5 51
t138.5 16zM427 183q57 0 91 -27.5t34 -70.5q0 -44 -34 -71.5t-91 -27.5t-91 27.5t-34 71.5q0 43 34 70.5t91 27.5z" />
    <glyph glyph-name="at" unicode="@" horiz-adv-x="1202" 
d="M489 673h281q99 0 171.5 -21t119.5 -58t69.5 -88.5t22.5 -113.5v-1q0 -61 -19.5 -105.5t-54 -73.5t-80.5 -45.5t-99 -22.5l29 -65h-170l-24 62h-203l-25 -62h-170l178 395h237l90 -202q82 2 119.5 32.5t38.5 87.5v1q0 31 -12.5 56.5t-40 44t-71.5 29t-106 10.5h-281
q-141 0 -211.5 -71.5t-70.5 -194.5v-1q0 -127 75.5 -195.5t214.5 -68.5h321q47 0 80.5 3.5t59.5 8.5t48 12t46 14l33 -136q-24 -9 -49.5 -17t-57 -14t-71 -9.5t-90.5 -3.5h-320q-106 0 -188.5 28.5t-139 81.5t-86.5 128t-30 168v1q0 93 29 168t85 128t137 81.5t185 28.5z
M683 272l-37 94h-25l-37 -94h99z" />
    <glyph glyph-name="A" unicode="A" horiz-adv-x="1108" 
d="M457 692h194l439 -692h-210l-74 125h-503l-75 -125h-210zM708 283l-154 242l-154 -242h308z" />
    <glyph glyph-name="B" unicode="B" horiz-adv-x="1056" 
d="M873 348q30 -5 56.5 -15.5t46 -29t30.5 -46t11 -66.5q0 -50 -20 -86t-55.5 -59.5t-85.5 -34.5t-110 -11h-667v692h639q132 0 201 -46.5t69 -143.5q0 -73 -31.5 -107.5t-83.5 -46.5zM269 537v-117h453q33 0 55.5 10.5t22.5 45.5q0 32 -22.5 46.5t-59.5 14.5h-449zM269 156
h477q38 0 60 13t22 46q0 28 -19.5 43.5t-61.5 15.5h-478v-118z" />
    <glyph glyph-name="C" unicode="C" horiz-adv-x="1005" 
d="M38 346v1q0 81 26 146t75 110.5t120 70t161 24.5h281q94 0 161 -19t119 -69l-112 -137q-31 30 -72 40.5t-96 10.5h-281q-92 0 -142 -47t-50 -130v-1q1 -84 51 -131t141 -47h281q59 0 99 11.5t69 40.5l112 -138q-25 -24 -53.5 -40.5t-62.5 -27t-74.5 -15.5t-89.5 -5h-281
q-90 0 -161 24.5t-120 70t-75 111t-26 146.5z" />
    <glyph glyph-name="D" unicode="D" horiz-adv-x="1081" 
d="M665 692q90 0 160.5 -23.5t119 -68t73.5 -109t25 -145.5v-1q0 -81 -25 -145t-73.5 -108.5t-119 -68t-160.5 -23.5h-586v692h586zM274 175h391q97 0 142.5 44.5t45.5 125.5v1q0 81 -45.5 126t-142.5 45h-391v-342z" />
    <glyph glyph-name="E" unicode="E" horiz-adv-x="959" 
d="M903 692v-167h-634v-97h564v-164h-564v-96h634v-168h-824v692h824z" />
    <glyph glyph-name="F" unicode="F" horiz-adv-x="938" 
d="M903 692v-175h-634v-122h564v-172h-564v-223h-190v692h824z" />
    <glyph glyph-name="G" unicode="G" horiz-adv-x="1079" 
d="M425 698h298q98 0 165.5 -19t119.5 -69l-112 -137q-31 30 -72.5 40.5t-100.5 10.5h-298q-96 0 -146.5 -46t-50.5 -131v-1q0 -83 50 -130.5t144 -47.5h280q57 0 98 10.5t62 39.5v13h-231v150h395v-381h-113l-12 70q-34 -42 -84 -59t-123 -17h-280q-88 0 -158 24.5
t-118.5 70t-74 111t-25.5 146.5v1q0 81 26 146t75.5 110.5t121.5 70t164 24.5z" />
    <glyph glyph-name="H" unicode="H" horiz-adv-x="1102" 
d="M274 692v-260h555v260h195v-692h-195v260h-555v-260h-195v692h195z" />
    <glyph glyph-name="I" unicode="I" horiz-adv-x="352" 
d="M79 0v692h195v-692h-195z" />
    <glyph glyph-name="J" unicode="J" horiz-adv-x="921" 
d="M860 692v-376q0 -156 -88 -239t-259 -83h-205q-101 0 -175 27.5t-116 87.5l134 130q29 -35 66 -51.5t91 -16.5h205q72 0 112 37t40 108v201h-409v175h604z" />
    <glyph glyph-name="K" unicode="K" horiz-adv-x="1047" 
d="M79 0v692h195v-265h364l166 265h217l-231 -356l231 -336h-218l-170 254h-359v-254h-195z" />
    <glyph glyph-name="L" unicode="L" horiz-adv-x="912" 
d="M274 692v-510h606v-182h-801v692h195z" />
    <glyph glyph-name="M" unicode="M" horiz-adv-x="1238" 
d="M619 326l359 366h181v-692h-192v421l-303 -309h-90l-303 309v-421h-192v692h181z" />
    <glyph glyph-name="N" unicode="N" horiz-adv-x="1102" 
d="M831 692h193v-692h-179l-574 428v-428h-192v692h178l574 -428v428z" />
    <glyph glyph-name="O" unicode="O" horiz-adv-x="1151" 
d="M38 346v1q0 81 26 146t75 110.5t120 70t161 24.5h311q90 0 161 -24.5t120 -70t75 -110.5t26 -146v-1q0 -81 -26 -146.5t-75 -111t-120 -70t-161 -24.5h-311q-90 0 -161 24.5t-120 70t-75 111t-26 146.5zM228 346q0 -82 47.5 -130t144.5 -48h311q97 0 144.5 48t47.5 130v1
q0 81 -47.5 129t-144.5 48h-311q-97 0 -144.5 -48t-47.5 -129v-1z" />
    <glyph glyph-name="P" unicode="P" horiz-adv-x="1017" 
d="M663 692q87 0 148 -18.5t99.5 -52.5t56 -81.5t17.5 -106.5v-1q0 -58 -17.5 -105.5t-56 -81.5t-99.5 -52.5t-148 -18.5h-394v-174h-190v692h584zM794 433q0 44 -29.5 64t-101.5 20h-394v-168h394q72 0 101.5 19.5t29.5 63.5v1z" />
    <glyph glyph-name="Q" unicode="Q" horiz-adv-x="1151" 
d="M1113 346q0 -103 -40.5 -179t-117.5 -121l121 -104l-136 -134l-213 186h-307q-90 0 -161 24.5t-120 70t-75 111t-26 146.5v1q0 81 26 146t75 110.5t120 70t161 24.5h311q90 0 161 -24.5t120 -70t75 -110.5t26 -146v-1zM228 346q0 -82 47.5 -130t144.5 -48h311
q97 0 144.5 48t47.5 130v1q0 81 -47.5 129t-144.5 48h-311q-97 0 -144.5 -48t-47.5 -129v-1z" />
    <glyph glyph-name="R" unicode="R" horiz-adv-x="1034" 
d="M787 0l-126 204h-392v-204h-190v692h593q85 0 144.5 -18.5t96.5 -51t54 -77.5t17 -99v-1q0 -73 -32 -128.5t-105 -84.5l154 -232h-214zM269 523v-157h403q64 0 93 17t29 62v1q0 42 -29 59.5t-93 17.5h-403z" />
    <glyph glyph-name="S" unicode="S" horiz-adv-x="966" 
d="M772 484q-24 29 -55 40t-83 11h-315q-41 0 -63.5 -10.5t-22.5 -33.5q0 -19 16 -30t63 -17l402 -23q63 -6 104.5 -26.5t66.5 -50t35 -65.5t10 -73q0 -45 -16.5 -84t-49.5 -67.5t-83 -44.5t-118 -16h-323q-125 0 -201.5 38t-108.5 107l169 95q23 -46 56.5 -61.5t86.5 -15.5
h323q85 0 85 50q0 25 -18 36t-56 16l-414 28q-58 6 -98 24.5t-64.5 45.5t-35 60t-10.5 69q0 47 16.5 86t50.5 67t85.5 43.5t121.5 15.5h309q108 0 178 -29t105 -82z" />
    <glyph glyph-name="T" unicode="T" horiz-adv-x="937" 
d="M906 692v-179h-340v-513h-195v513h-340v179h875z" />
    <glyph glyph-name="U" unicode="U" horiz-adv-x="1081" 
d="M60 331v361h195v-361q0 -43 12.5 -73t34 -49.5t52 -28.5t66.5 -9h241q36 0 66 9t52 28.5t34.5 49.5t12.5 73v361h195v-361q0 -85 -24.5 -148.5t-71 -105.5t-113.5 -62.5t-151 -20.5h-241q-84 0 -150.5 20.5t-113 62.5t-71.5 105.5t-25 148.5z" />
    <glyph glyph-name="V" unicode="V" horiz-adv-x="1049" 
d="M9 692h230l287 -490l287 490h228l-419 -692h-194z" />
    <glyph glyph-name="W" unicode="W" horiz-adv-x="1329" 
d="M560 568h210l167 -332l152 456h216l-256 -692h-191l-192 391h-2l-193 -391h-190l-257 692h216l153 -456z" />
    <glyph glyph-name="X" unicode="X" horiz-adv-x="1022" 
d="M657 345l343 -345h-256l-234 244l-232 -244h-257l342 345l-337 347h257l227 -242l228 242h257z" />
    <glyph glyph-name="Y" unicode="Y" horiz-adv-x="998" 
d="M499 393l267 299h244l-413 -454v-238h-195v238l-414 454h245z" />
    <glyph glyph-name="Z" unicode="Z" horiz-adv-x="996" 
d="M356 162h592v-162h-897v162l526 334l58 35h-582v161h886v-161l-526 -335z" />
    <glyph glyph-name="bracketleft" unicode="[" horiz-adv-x="564" 
d="M519 742v-175h-248v-456h248v-175h-443v806h443z" />
    <glyph glyph-name="backslash" unicode="\" horiz-adv-x="576" 
d="M576 -67h-167l-409 809h167z" />
    <glyph glyph-name="bracketright" unicode="]" horiz-adv-x="564" 
d="M488 742v-806h-443v175h248v456h-248v175h443z" />
    <glyph glyph-name="asciicircum" unicode="^" horiz-adv-x="841" 
d="M342 692h157l302 -306h-231l-148 158l-148 -158h-233z" />
    <glyph glyph-name="underscore" unicode="_" horiz-adv-x="889" 
d="M54 -235v155h782v-155h-782z" />
    <glyph glyph-name="grave" unicode="`" horiz-adv-x="501" 
d="M294 750l-198 162h234l151 -162h-187z" />
    <glyph glyph-name="a" unicode="a" horiz-adv-x="1108" 
d="M457 692h194l439 -692h-210l-74 125h-503l-75 -125h-210zM708 283l-154 242l-154 -242h308z" />
    <glyph glyph-name="b" unicode="b" horiz-adv-x="1056" 
d="M718 692q132 0 201 -46.5t69 -143.5q0 -73 -31.5 -107.5t-83.5 -46.5q30 -5 56.5 -15.5t46 -29t30.5 -46t11 -66.5q0 -50 -20 -86t-55.5 -59.5t-85.5 -34.5t-110 -11h-667v692h639zM746 156q38 0 60 13t22 46q0 28 -19.5 43.5t-61.5 15.5h-478v-118h477zM269 420h453
q33 0 55.5 10.5t22.5 45.5q0 32 -22.5 46.5t-59.5 14.5h-449v-117z" />
    <glyph glyph-name="c" unicode="c" horiz-adv-x="1005" 
d="M38 346v1q0 81 26 146t75 110.5t120 70t161 24.5h281q94 0 161 -19t119 -69l-112 -137q-31 30 -72 40.5t-96 10.5h-281q-92 0 -142 -47t-50 -130v-1q1 -84 51 -131t141 -47h281q59 0 99 11.5t69 40.5l112 -138q-25 -24 -53.5 -40.5t-62.5 -27t-74.5 -15.5t-89.5 -5h-281
q-90 0 -161 24.5t-120 70t-75 111t-26 146.5z" />
    <glyph glyph-name="d" unicode="d" horiz-adv-x="1081" 
d="M665 692q90 0 160.5 -23.5t119 -68t73.5 -109t25 -145.5v-1q0 -81 -25 -145t-73.5 -108.5t-119 -68t-160.5 -23.5h-586v692h586zM274 175h391q97 0 142.5 44.5t45.5 125.5v1q0 81 -45.5 126t-142.5 45h-391v-342z" />
    <glyph glyph-name="e" unicode="e" horiz-adv-x="959" 
d="M903 692v-167h-634v-97h564v-164h-564v-96h634v-168h-824v692h824z" />
    <glyph glyph-name="f" unicode="f" horiz-adv-x="938" 
d="M79 692h824v-175h-634v-122h564v-172h-564v-223h-190v692z" />
    <glyph glyph-name="g" unicode="g" horiz-adv-x="1079" 
d="M425 698h298q98 0 165.5 -19t119.5 -69l-112 -137q-31 30 -72.5 40.5t-100.5 10.5h-298q-96 0 -146.5 -46t-50.5 -131v-1q0 -83 50 -130.5t144 -47.5h280q57 0 98 10.5t62 39.5v13h-231v150h395v-381h-113l-12 70q-34 -42 -84 -59t-123 -17h-280q-88 0 -158 24.5
t-118.5 70t-74 111t-25.5 146.5v1q0 81 26 146t75.5 110.5t121.5 70t164 24.5z" />
    <glyph glyph-name="h" unicode="h" horiz-adv-x="1102" 
d="M829 432v260h195v-692h-195v260h-555v-260h-195v692h195v-260h555z" />
    <glyph glyph-name="i" unicode="i" horiz-adv-x="352" 
d="M79 0v692h195v-692h-195z" />
    <glyph glyph-name="j" unicode="j" horiz-adv-x="921" 
d="M860 692v-376q0 -156 -88 -239t-259 -83h-205q-101 0 -175 27.5t-116 87.5l134 130q29 -35 66 -51.5t91 -16.5h205q72 0 112 37t40 108v201h-409v175h604z" />
    <glyph glyph-name="k" unicode="k" horiz-adv-x="1047" 
d="M804 692h217l-231 -356l231 -336h-218l-170 254h-359v-254h-195v692h195v-265h364z" />
    <glyph glyph-name="l" unicode="l" horiz-adv-x="912" 
d="M274 692v-510h606v-182h-801v692h195z" />
    <glyph glyph-name="m" unicode="m" horiz-adv-x="1238" 
d="M260 692l359 -366l359 366h181v-692h-192v421l-303 -309h-90l-303 309v-421h-192v692h181z" />
    <glyph glyph-name="n" unicode="n" horiz-adv-x="1102" 
d="M831 692h193v-692h-179l-574 428v-428h-192v692h178l574 -428v428z" />
    <glyph glyph-name="o" unicode="o" horiz-adv-x="1151" 
d="M38 346v1q0 81 26 146t75 110.5t120 70t161 24.5h311q90 0 161 -24.5t120 -70t75 -110.5t26 -146v-1q0 -81 -26 -146.5t-75 -111t-120 -70t-161 -24.5h-311q-90 0 -161 24.5t-120 70t-75 111t-26 146.5zM228 346q0 -82 47.5 -130t144.5 -48h311q97 0 144.5 48t47.5 130v1
q0 81 -47.5 129t-144.5 48h-311q-97 0 -144.5 -48t-47.5 -129v-1z" />
    <glyph glyph-name="p" unicode="p" horiz-adv-x="1017" 
d="M663 692q87 0 148 -18.5t99.5 -52.5t56 -81.5t17.5 -106.5v-1q0 -58 -17.5 -105.5t-56 -81.5t-99.5 -52.5t-148 -18.5h-394v-174h-190v692h584zM269 349h394q72 0 101.5 19.5t29.5 63.5v1q0 44 -29.5 64t-101.5 20h-394v-168z" />
    <glyph glyph-name="q" unicode="q" horiz-adv-x="1151" 
d="M38 346v1q0 81 26 146t75 110.5t120 70t161 24.5h311q90 0 161 -24.5t120 -70t75 -110.5t26 -146v-1q0 -103 -40.5 -179t-117.5 -121l121 -104l-136 -134l-213 186h-307q-90 0 -161 24.5t-120 70t-75 111t-26 146.5zM420 168h311q97 0 144.5 48t47.5 130v1
q0 81 -47.5 129t-144.5 48h-311q-97 0 -144.5 -48t-47.5 -129v-1q0 -82 47.5 -130t144.5 -48z" />
    <glyph glyph-name="r" unicode="r" horiz-adv-x="1034" 
d="M787 0l-126 204h-392v-204h-190v692h593q85 0 144.5 -18.5t96.5 -51t54 -77.5t17 -99v-1q0 -73 -32 -128.5t-105 -84.5l154 -232h-214zM269 523v-157h403q64 0 93 17t29 62v1q0 42 -29 59.5t-93 17.5h-403z" />
    <glyph glyph-name="s" unicode="s" horiz-adv-x="966" 
d="M772 484q-24 29 -55 40t-83 11h-315q-41 0 -63.5 -10.5t-22.5 -33.5q0 -19 16 -30t63 -17l402 -23q63 -6 104.5 -26.5t66.5 -50t35 -65.5t10 -73q0 -45 -16.5 -84t-49.5 -67.5t-83 -44.5t-118 -16h-323q-125 0 -201.5 38t-108.5 107l169 95q23 -46 56.5 -61.5t86.5 -15.5
h323q85 0 85 50q0 25 -18 36t-56 16l-414 28q-58 6 -98 24.5t-64.5 45.5t-35 60t-10.5 69q0 47 16.5 86t50.5 67t85.5 43.5t121.5 15.5h309q108 0 178 -29t105 -82z" />
    <glyph glyph-name="t" unicode="t" horiz-adv-x="937" 
d="M906 692v-179h-340v-513h-195v513h-340v179h875z" />
    <glyph glyph-name="u" unicode="u" horiz-adv-x="1081" 
d="M826 692h195v-361q0 -85 -24.5 -148.5t-71 -105.5t-113.5 -62.5t-151 -20.5h-241q-84 0 -150.5 20.5t-113 62.5t-71.5 105.5t-25 148.5v361h195v-361q0 -43 12.5 -73t34 -49.5t52 -28.5t66.5 -9h241q36 0 66 9t52 28.5t34.5 49.5t12.5 73v361z" />
    <glyph glyph-name="v" unicode="v" horiz-adv-x="1049" 
d="M9 692h230l287 -490l287 490h228l-419 -692h-194z" />
    <glyph glyph-name="w" unicode="w" horiz-adv-x="1329" 
d="M24 692h216l153 -456l167 332h210l167 -332l152 456h216l-256 -692h-191l-192 391h-2l-193 -391h-190z" />
    <glyph glyph-name="x" unicode="x" horiz-adv-x="1022" 
d="M363 345l-337 347h257l227 -242l228 242h257l-338 -347l343 -345h-256l-234 244l-232 -244h-257z" />
    <glyph glyph-name="y" unicode="y" horiz-adv-x="998" 
d="M-12 692h245l266 -299l267 299h244l-413 -454v-238h-195v238z" />
    <glyph glyph-name="z" unicode="z" horiz-adv-x="996" 
d="M356 162h592v-162h-897v162l526 334l58 35h-582v161h886v-161l-526 -335z" />
    <glyph glyph-name="braceleft" unicode="{" horiz-adv-x="621" 
d="M69 426q35 0 47 14t12 49v71q0 43 10.5 77t36 57t67.5 35.5t105 12.5h224v-175h-173q-39 0 -57 -20t-18 -62v-32q0 -57 -20.5 -82t-59.5 -25v-14q39 0 59.5 -25t20.5 -82v-32q0 -42 18 -62t57 -20h173v-176h-224q-63 0 -105 12.5t-67.5 36t-36 57.5t-10.5 77v71
q0 35 -12 49t-47 14h-44v174h44z" />
    <glyph glyph-name="bar" unicode="|" horiz-adv-x="387" 
d="M96 -122v890h195v-890h-195z" />
    <glyph glyph-name="braceright" unicode="}" horiz-adv-x="621" 
d="M50 742h224q63 0 105 -12.5t67.5 -35.5t36 -57t10.5 -77v-71q0 -35 12 -49t47 -14h44v-174h-44q-35 0 -47 -14t-12 -49v-71q0 -43 -10.5 -77t-36 -57.5t-67.5 -36t-105 -12.5h-224v176h173q39 0 57 20t18 62v32q0 57 20.5 82t59.5 25v14q-39 0 -59.5 25t-20.5 82v32
q0 42 -18 62t-57 20h-173v175z" />
    <glyph glyph-name="asciitilde" unicode="~" horiz-adv-x="698" 
d="M63 240q0 27 4.5 57.5t22 56t51 42t91.5 16.5q35 0 60.5 -5t46 -11t38 -11t36.5 -5q24 0 33 9.5t9 21.5h179q0 -26 -5.5 -56t-22.5 -55.5t-50 -42.5t-87 -17q-40 0 -67.5 5t-48 11t-36.5 11t-34 5q-25 0 -33 -10.5t-8 -21.5h-179z" />
    <glyph glyph-name="uni00A0" unicode="&#xa0;" horiz-adv-x="345" 
 />
    <glyph glyph-name="exclamdown" unicode="&#xa1;" horiz-adv-x="381" 
d="M93 0v157l16 300h163l16 -300v-157h-195zM191 706q57 0 91 -27t34 -71t-34 -71t-91 -27q-58 0 -92 27t-34 71t34 71t92 27z" />
    <glyph glyph-name="cent" unicode="&#xa2;" horiz-adv-x="881" 
d="M389 595h1l-6 107h191l-6 -107h15q44 0 80 -4.5t66.5 -15t56 -26.5t49.5 -39l-105 -124q-27 24 -61.5 34t-85.5 10h-195q-79 0 -115 -38t-36 -97v-1q0 -59 36 -97t115 -38h195q54 0 87.5 11t59.5 34l105 -125q-23 -22 -48 -38t-55 -26.5t-66.5 -15.5t-82.5 -5h-15l6 -114
h-191l6 114h-1q-83 0 -145.5 21.5t-104.5 60.5t-63 94.5t-21 123.5v1q0 68 21 123.5t63 94.5t104.5 60.5t145.5 21.5z" />
    <glyph glyph-name="sterling" unicode="&#xa3;" horiz-adv-x="1033" 
d="M62 260v134h83q-8 18 -14 40.5t-6 52.5q0 46 18 84.5t57 66.5t100.5 44t149.5 16h271q89 0 146 -12.5t100 -44.5l-89 -154q-23 20 -60.5 27t-96.5 7h-271q-55 0 -87.5 -15.5t-32.5 -56.5q0 -16 4 -29t10 -26h419v-134h-398q-12 -50 -46 -92h648v-168h-877v123
q72 63 85 137h-113z" />
    <glyph glyph-name="currency" unicode="&#xa4;" horiz-adv-x="1020" 
d="M50 525l110 146l116 -86q35 19 80.5 29t100.5 10h106q112 0 183 -38l114 85l110 -146l-115 -68q15 -46 15 -104v-1q0 -58 -16 -103l116 -68l-110 -147l-117 86q-71 -38 -180 -38h-106q-109 0 -180 38l-117 -86l-110 147l116 68q-16 45 -16 103v1q0 58 16 103zM457 245
h106q69 0 99.5 30t30.5 77v1q0 48 -30.5 78t-99.5 30h-106q-69 0 -99.5 -30t-30.5 -78v-1q0 -47 30.5 -77t99.5 -30z" />
    <glyph glyph-name="yen" unicode="&#xa5;" horiz-adv-x="1100" 
d="M40 692h239l271 -303l272 303h239l-298 -328h146v-90h-228l-33 -36v-12h261v-89h-261v-137h-195v137h-261v89h261v12l-33 36h-228v90h146z" />
    <glyph glyph-name="brokenbar" unicode="&#xa6;" horiz-adv-x="382" 
d="M96 411v357h190v-357h-190zM286 235v-357h-190v357h190z" />
    <glyph glyph-name="section" unicode="&#xa7;" horiz-adv-x="1013" 
d="M44 307q0 41 18 78t59 63q-4 11 -5.5 24t-1.5 27q0 45 16 81.5t49 62.5t84.5 40.5t122.5 14.5h265q103 0 172 -29t104 -82l-148 -100q-23 27 -52.5 37.5t-77.5 10.5h-271q-42 0 -63 -8t-21 -28q1 -18 16.5 -26t54.5 -15l394 -27q60 -7 100.5 -24.5t64.5 -42.5t34.5 -56
t10.5 -66q0 -40 -17.5 -77t-59.5 -63q7 -22 7 -52q0 -45 -16 -82t-49 -63t-84.5 -40.5t-122.5 -14.5h-265q-103 0 -172 29t-104 83l148 100q23 -27 52.5 -37.5t77.5 -10.5h271q42 0 63 8t21 28q-1 18 -16.5 26t-54.5 15l-394 27q-60 8 -100.5 25t-64.5 42t-34.5 56t-10.5 66
zM214 304q0 -22 15.5 -32.5t50.5 -16.5l411 -28q48 -6 86 -18q13 6 17.5 16t4.5 21q0 21 -15.5 31.5t-50.5 16.5l-411 28q-52 6 -88 19q-11 -7 -15.5 -16.5t-4.5 -20.5z" />
    <glyph glyph-name="dieresis" unicode="&#xa8;" horiz-adv-x="667" 
d="M183 750q-54 0 -89.5 27.5t-35.5 73.5q0 45 35.5 72.5t89.5 27.5q27 0 49.5 -7t39 -20.5t26 -31.5t9.5 -41q0 -46 -35 -73.5t-89 -27.5zM485 750q-54 0 -89.5 27.5t-35.5 73.5q0 45 35.5 72.5t89.5 27.5q27 0 49.5 -7t39 -20.5t26 -31.5t9.5 -41q0 -46 -35 -73.5
t-89 -27.5z" />
    <glyph glyph-name="copyright" unicode="&#xa9;" horiz-adv-x="826" 
d="M53 346q0 79 26.5 144.5t74 113t114 73.5t145.5 26q80 0 146 -26t113.5 -73.5t74 -113t26.5 -144.5t-26.5 -144.5t-74 -113t-113.5 -73.5t-146 -26q-79 0 -145.5 26t-114 73.5t-74 113t-26.5 144.5zM413 91q56 0 101.5 19t78.5 52.5t51 80.5t18 103q0 57 -18 103.5
t-51 80.5t-79 52.5t-101 18.5t-101 -18.5t-79 -52.5t-51 -80.5t-18 -103.5t18 -103.5t51 -80.5t79 -52.5t101 -18.5zM222 346q0 44 14 81t40 63.5t64.5 41.5t86.5 15q43 0 76.5 -12.5t64.5 -40.5l-72 -95q-12 11 -28.5 18t-40.5 7q-37 0 -56 -23.5t-19 -54.5q0 -32 19 -55.5
t56 -23.5q24 0 40.5 7t28.5 18l72 -95q-31 -28 -64.5 -40.5t-76.5 -12.5q-48 0 -86.5 15t-64.5 42t-40 64t-14 81z" />
    <glyph glyph-name="ordfeminine" unicode="&#xaa;" horiz-adv-x="633" 
d="M34 352l188 340h189l188 -340h-174l-22 52h-173l-22 -52h-174zM48 169v140h536v-140h-536zM360 504l-37 85h-13l-37 -85h87z" />
    <glyph glyph-name="guillemotleft" unicode="&#xab;" horiz-adv-x="842" 
d="M444 453l-228 -138l228 -139l-88 -117l-332 218v76l332 218zM814 453l-228 -138l228 -139l-88 -117l-332 218v76l332 218z" />
    <glyph glyph-name="registered" unicode="&#xae;" horiz-adv-x="569" 
d="M58 491q0 50 16.5 89t46 67t70.5 42.5t89 14.5h1q52 0 94.5 -14.5t73 -42.5t47 -67t16.5 -89t-16.5 -89.5t-47 -67.5t-73 -42.5t-94.5 -14.5h-1q-48 0 -89 14.5t-70.5 42.5t-46 67.5t-16.5 89.5zM138 491q0 -71 40.5 -107.5t101.5 -36.5h1q69 0 110 36t41 108
q0 71 -41 107t-110 36h-1q-61 0 -101.5 -36t-40.5 -107zM201 606h80q46 0 74 -18.5t28 -60.5q0 -43 -30 -62l28 -83h-80l-17 67h-6v-67h-77v224zM278 504h3q26 0 26 23q0 24 -26 24h-3v-47z" />
    <glyph glyph-name="macron" unicode="&#xaf;" horiz-adv-x="542" 
d="M82 764v135h426v-135h-426z" />
    <glyph glyph-name="degree" unicode="&#xb0;" horiz-adv-x="558" 
d="M57 521q0 38 14 70.5t42 56.5t69.5 37.5t96.5 13.5t96.5 -13.5t69.5 -37.5t42 -56.5t14 -70.5t-14 -71t-42 -57t-69.5 -37.5t-96.5 -13.5t-96.5 13.5t-69.5 37.5t-42 57t-14 71zM193 521q0 -26 22.5 -41.5t63.5 -15.5t63.5 15.5t22.5 41.5t-22.5 41.5t-63.5 15.5
t-63.5 -15.5t-22.5 -41.5z" />
    <glyph glyph-name="plusminus" unicode="&#xb1;" horiz-adv-x="801" 
d="M75 359v155h241v163h168v-163h242v-155h-241v-163h-168v163h-242zM75 194h651v-155h-651v155z" />
    <glyph glyph-name="twosuperior" unicode="&#xb2;" horiz-adv-x="521" 
d="M33 623q50 73 174 73h118q76 0 112.5 -32t36.5 -79q0 -46 -30.5 -69t-93.5 -41l-111 -27l233 4v-110h-424v121l238 74q20 8 30.5 14.5t10.5 15.5q0 8 -7 11t-25 3h-96q-26 0 -40.5 -9t-30.5 -24z" />
    <glyph glyph-name="threesuperior" unicode="&#xb3;" horiz-adv-x="514" 
d="M138 460q2 -11 11.5 -18t28.5 -7h137q18 0 25 6t7 16q0 9 -7 15t-26 6h-152v79h152q19 0 26 6t7 16q0 9 -7 15.5t-25 6.5h-137q-18 0 -27.5 -7t-11.5 -17l-114 36q10 42 46.5 62.5t109.5 20.5h142q79 0 114 -29.5t35 -75.5q0 -27 -10 -44.5t-27 -28.5q17 -11 27 -29
t10 -44q0 -46 -35 -76t-114 -30h-142q-73 0 -109.5 21.5t-46.5 63.5z" />
    <glyph glyph-name="acute" unicode="&#xb4;" horiz-adv-x="501" 
d="M17 750l150 162h235l-199 -162h-186z" />
    <glyph glyph-name="paragraph" unicode="&#xb6;" horiz-adv-x="1116" 
d="M46 457q0 115 67.5 175t191.5 60h768v-155h-108v-680h-155v680h-110v-680h-155v366h-240q-124 0 -191.5 60t-67.5 174z" />
    <glyph glyph-name="periodcentered" unicode="&#xb7;" horiz-adv-x="357" 
d="M53 326q0 43 34 70.5t92 27.5q57 0 91 -27.5t34 -70.5q0 -44 -34 -71.5t-91 -27.5q-58 0 -92 27.5t-34 71.5z" />
    <glyph glyph-name="cedilla" unicode="&#xb8;" horiz-adv-x="446" 
d="M295 0l-28 -39q57 -7 89.5 -27t32.5 -62q0 -28 -15 -45.5t-41 -27.5t-61 -13.5t-76 -3.5q-53 0 -83.5 2.5t-53.5 6.5v94q17 -3 33.5 -5t36.5 -2q26 0 42.5 4.5t16.5 18.5q0 16 -22.5 20t-49.5 4l53 75h126z" />
    <glyph glyph-name="onesuperior" unicode="&#xb9;" horiz-adv-x="407" 
d="M20 636l139 56h170v-350h-170v181l-77 -32z" />
    <glyph glyph-name="ordmasculine" unicode="&#xba;" horiz-adv-x="649" 
d="M229 697h191q45 0 80 -13.5t59 -37.5t36.5 -56t12.5 -68v-1q0 -37 -12.5 -69t-36.5 -55.5t-59 -37t-80 -13.5h-191q-45 0 -80 13.5t-59 37t-36 55.5t-12 69v1q0 36 12 68t36 56t59 37.5t80 13.5zM593 309v-140h-536v140h536zM236 469h178q28 0 41.5 16t13.5 36v1
q0 20 -13.5 36t-41.5 16h-178q-28 0 -41.5 -16t-13.5 -36v-1q0 -20 13.5 -36t41.5 -16z" />
    <glyph glyph-name="guillemotright" unicode="&#xbb;" horiz-adv-x="842" 
d="M29 453l87 118l333 -218v-76l-333 -218l-87 117l227 139zM399 453l87 118l333 -218v-76l-333 -218l-87 117l227 139z" />
    <glyph glyph-name="onequarter" unicode="&#xbc;" horiz-adv-x="1130" 
d="M715 692h206l-561 -692h-204zM612 64v116l122 166h170l-126 -166h91v59h152v-59h44v-116h-43v-64h-153v64h-257zM65 637l132 55h165v-350h-165v184l-71 -30z" />
    <glyph glyph-name="onehalf" unicode="&#xbd;" horiz-adv-x="1183" 
d="M167 0l559 692h206l-561 -692h-204zM677 281q50 73 174 73h118q76 0 112.5 -32t36.5 -79q0 -46 -30.5 -69t-93.5 -41l-111 -27l233 4v-110h-424v121l238 74q20 8 30.5 14.5t10.5 15.5q0 8 -7 11t-25 3h-96q-26 0 -40.5 -9t-30.5 -24zM205 692h170v-350h-170v181l-77 -32
l-63 145z" />
    <glyph glyph-name="threequarters" unicode="&#xbe;" horiz-adv-x="1222" 
d="M819 692h205l-560 -692h-204zM67 424l113 36q2 -11 11.5 -18t29.5 -7h137q18 0 25 6t7 16q0 9 -7.5 15t-25.5 6h-153v79h153q18 0 25.5 6t7.5 16q0 9 -7 15.5t-25 6.5h-137q-18 0 -28 -7t-12 -17l-113 36q10 42 46.5 62.5t108.5 20.5h142q80 0 115 -29.5t35 -75.5
q0 -27 -10 -44.5t-27 -28.5q17 -11 27 -29t10 -44q0 -46 -35 -76t-115 -30h-142q-73 0 -109 21.5t-47 63.5zM714 64v116l122 166h170l-126 -166h91v59h152v-59h44v-116h-43v-64h-153v64h-257z" />
    <glyph glyph-name="questiondown" unicode="&#xbf;" horiz-adv-x="938" 
d="M70 234q0 53 19 92.5t51 65t73.5 38t87.5 12.5h112v28h193v-173h-226q-21 0 -44 -2t-42 -8.5t-31.5 -19t-12.5 -33.5v-1q0 -19 9 -31.5t25 -19.5t36.5 -9.5t42.5 -2.5h297q43 0 76 9t62 28l105 -145q-90 -68 -246 -68h-296q-67 0 -121 14t-92 43t-58 74t-20 108v1z
M386 608q0 44 34 71t91 27q58 0 92 -27t34 -71t-34 -71t-92 -27q-57 0 -91 27t-34 71z" />
    <glyph glyph-name="Agrave" unicode="&#xc0;" horiz-adv-x="1108" 
d="M505 750l-198 162h234l151 -162h-187zM1090 0h-210l-74 125h-503l-75 -125h-210l439 692h194zM554 525l-154 -242h308z" />
    <glyph glyph-name="Aacute" unicode="&#xc1;" horiz-adv-x="1108" 
d="M420 750l150 162h235l-199 -162h-186zM1090 0h-210l-74 125h-503l-75 -125h-210l439 692h194zM554 525l-154 -242h308z" />
    <glyph glyph-name="Acircumflex" unicode="&#xc2;" horiz-adv-x="1108" 
d="M664 912l155 -162h-203l-57 66l-59 -66h-203l156 162h211zM1090 0h-210l-74 125h-503l-75 -125h-210l439 692h194zM554 525l-154 -242h308z" />
    <glyph glyph-name="Atilde" unicode="&#xc3;" horiz-adv-x="1108" 
d="M322 750q0 27 4 57.5t18 56t42.5 42t76.5 16.5q29 0 50 -5t38 -11t32 -11t31 -5q20 0 27 9.5t7 21.5h150q0 -26 -4.5 -56t-19 -55.5t-42 -42.5t-72.5 -17q-33 0 -56 5t-40 11t-30.5 11t-28.5 5q-21 0 -27.5 -10.5t-6.5 -21.5h-149zM1090 0h-210l-74 125h-503l-75 -125
h-210l439 692h194zM554 525l-154 -242h308z" />
    <glyph glyph-name="Adieresis" unicode="&#xc4;" horiz-adv-x="1108" 
d="M408 748q-54 0 -89.5 27.5t-35.5 73.5q0 45 35.5 72.5t89.5 27.5q27 0 49.5 -7t39 -20.5t26 -31.5t9.5 -41q0 -46 -35 -73.5t-89 -27.5zM710 748q-54 0 -89.5 27.5t-35.5 73.5q0 45 35.5 72.5t89.5 27.5q27 0 49.5 -7t39 -20.5t26 -31.5t9.5 -41q0 -46 -35 -73.5
t-89 -27.5zM1090 0h-210l-74 125h-503l-75 -125h-210l439 692h194zM554 525l-154 -242h308z" />
    <glyph glyph-name="Aring" unicode="&#xc5;" horiz-adv-x="1108" 
d="M558 750q-85 0 -128 34t-43 88t43 87.5t128 33.5t128 -33.5t43 -87.5t-43 -88t-128 -34zM559 833q21 0 33.5 10.5t12.5 28.5q0 17 -12.5 27.5t-33.5 10.5q-22 0 -34.5 -10.5t-12.5 -27.5q0 -18 12.5 -28.5t34.5 -10.5zM1090 0h-210l-74 125h-503l-75 -125h-210l439 692
h194zM554 525l-154 -242h308z" />
    <glyph glyph-name="AE" unicode="&#xc6;" horiz-adv-x="1805" 
d="M1694 692v-167h-634v-97h564v-164h-564v-96h634v-168h-824v130h-414l-137 -130h-235l749 692h861zM870 514l-259 -241h259v241z" />
    <glyph glyph-name="Ccedilla" unicode="&#xc7;" horiz-adv-x="1005" 
d="M617 -6l-24 -33q57 -7 89.5 -27t32.5 -62q0 -28 -15 -45.5t-41 -27.5t-61 -13.5t-76 -3.5q-53 0 -83.5 2.5t-53.5 6.5v94q17 -3 33.5 -5t36.5 -2q26 0 42.5 4.5t16.5 18.5q0 16 -22.5 20t-49.5 4l49 69h-71q-90 0 -161 24.5t-120 70t-75 111t-26 146.5v1q0 81 26 146
t75 110.5t120 70t161 24.5h281q94 0 161 -19t119 -69l-112 -137q-31 30 -72 40.5t-96 10.5h-281q-92 0 -142 -47t-50 -130v-1q1 -84 51 -131t141 -47h281q59 0 99 11.5t69 40.5l112 -138q-25 -24 -53.5 -40.5t-62.5 -27t-74.5 -15.5t-89.5 -5h-84z" />
    <glyph glyph-name="Egrave" unicode="&#xc8;" horiz-adv-x="959" 
d="M438 750l-198 162h234l151 -162h-187zM903 692v-167h-634v-97h564v-164h-564v-96h634v-168h-824v692h824z" />
    <glyph glyph-name="Eacute" unicode="&#xc9;" horiz-adv-x="959" 
d="M353 750l150 162h235l-199 -162h-186zM903 692v-167h-634v-97h564v-164h-564v-96h634v-168h-824v692h824z" />
    <glyph glyph-name="Ecircumflex" unicode="&#xca;" horiz-adv-x="959" 
d="M597 912l155 -162h-203l-57 66l-59 -66h-203l156 162h211zM903 692v-167h-634v-97h564v-164h-564v-96h634v-168h-824v692h824z" />
    <glyph glyph-name="Edieresis" unicode="&#xcb;" horiz-adv-x="959" 
d="M341 748q-54 0 -89.5 27.5t-35.5 73.5q0 45 35.5 72.5t89.5 27.5q27 0 49.5 -7t39 -20.5t26 -31.5t9.5 -41q0 -46 -35 -73.5t-89 -27.5zM643 748q-54 0 -89.5 27.5t-35.5 73.5q0 45 35.5 72.5t89.5 27.5q27 0 49.5 -7t39 -20.5t26 -31.5t9.5 -41q0 -46 -35 -73.5
t-89 -27.5zM903 692v-167h-634v-97h564v-164h-564v-96h634v-168h-824v692h824z" />
    <glyph glyph-name="Igrave" unicode="&#xcc;" horiz-adv-x="352" 
d="M123 750l-199 162h235l151 -162h-187zM79 0v692h195v-692h-195z" />
    <glyph glyph-name="Iacute" unicode="&#xcd;" horiz-adv-x="352" 
d="M38 750l150 162h235l-199 -162h-186zM79 0v692h195v-692h-195z" />
    <glyph glyph-name="Icircumflex" unicode="&#xce;" horiz-adv-x="352" 
d="M282 912l145 -162h-203l-47 66l-49 -66h-203l146 162h211zM79 0v692h195v-692h-195z" />
    <glyph glyph-name="Idieresis" unicode="&#xcf;" horiz-adv-x="352" 
d="M31 749q-53 0 -87 27.5t-34 72.5t34 72.5t87 27.5t87 -27.5t34 -72.5t-34 -72.5t-87 -27.5zM323 749q-54 0 -88 27.5t-34 72.5t34 72.5t88 27.5q51 0 85.5 -27.5t34.5 -72.5t-34.5 -72.5t-85.5 -27.5zM79 0v692h195v-692h-195z" />
    <glyph glyph-name="Eth" unicode="&#xd0;" horiz-adv-x="1081" 
d="M665 692q90 0 160.5 -23.5t119 -68t73.5 -109t25 -145.5v-1q0 -81 -25 -145t-73.5 -108.5t-119 -68t-160.5 -23.5h-586v278h-85v134h85v280h586zM853 346q0 81 -45.5 126t-142.5 45h-391v-105h346v-134h-346v-103h391q97 0 142.5 44.5t45.5 125.5v1z" />
    <glyph glyph-name="Ntilde" unicode="&#xd1;" horiz-adv-x="1102" 
d="M508 782q-21 0 -27.5 -10.5t-6.5 -21.5h-149q0 27 4 57.5t18 56t42.5 42t76.5 16.5q29 0 50 -5t38 -11t32 -11t31 -5q20 0 27 9.5t7 21.5h150q0 -26 -4.5 -56t-19 -55.5t-42 -42.5t-72.5 -17q-33 0 -56 5t-40 11t-30.5 11t-28.5 5zM831 692h193v-692h-179l-574 428v-428
h-192v692h178l574 -428v428z" />
    <glyph glyph-name="Ograve" unicode="&#xd2;" horiz-adv-x="1151" 
d="M523 750l-198 162h234l151 -162h-187zM731 698q90 0 161 -24.5t120 -70t75 -110.5t26 -146v-1q0 -81 -26 -146.5t-75 -111t-120 -70t-161 -24.5h-311q-90 0 -161 24.5t-120 70t-75 111t-26 146.5v1q0 81 26 146t75 110.5t120 70t161 24.5h311zM731 168q97 0 144.5 48
t47.5 130v1q0 81 -47.5 129t-144.5 48h-311q-97 0 -144.5 -48t-47.5 -129v-1q0 -82 47.5 -130t144.5 -48h311z" />
    <glyph glyph-name="Oacute" unicode="&#xd3;" horiz-adv-x="1151" 
d="M438 750l150 162h235l-199 -162h-186zM731 698q90 0 161 -24.5t120 -70t75 -110.5t26 -146v-1q0 -81 -26 -146.5t-75 -111t-120 -70t-161 -24.5h-311q-90 0 -161 24.5t-120 70t-75 111t-26 146.5v1q0 81 26 146t75 110.5t120 70t161 24.5h311zM731 168q97 0 144.5 48
t47.5 130v1q0 81 -47.5 129t-144.5 48h-311q-97 0 -144.5 -48t-47.5 -129v-1q0 -82 47.5 -130t144.5 -48h311z" />
    <glyph glyph-name="Ocircumflex" unicode="&#xd4;" horiz-adv-x="1151" 
d="M682 912l155 -162h-203l-57 66l-59 -66h-203l156 162h211zM731 698q90 0 161 -24.5t120 -70t75 -110.5t26 -146v-1q0 -81 -26 -146.5t-75 -111t-120 -70t-161 -24.5h-311q-90 0 -161 24.5t-120 70t-75 111t-26 146.5v1q0 81 26 146t75 110.5t120 70t161 24.5h311z
M731 168q97 0 144.5 48t47.5 130v1q0 81 -47.5 129t-144.5 48h-311q-97 0 -144.5 -48t-47.5 -129v-1q0 -82 47.5 -130t144.5 -48h311z" />
    <glyph glyph-name="Otilde" unicode="&#xd5;" horiz-adv-x="1151" 
d="M340 750q0 27 4 57.5t18 56t42.5 42t76.5 16.5q29 0 50 -5t38 -11t32 -11t31 -5q20 0 27 9.5t7 21.5h150q0 -26 -4.5 -56t-19 -55.5t-42 -42.5t-72.5 -17q-33 0 -56 5t-40 11t-30.5 11t-28.5 5q-21 0 -27.5 -10.5t-6.5 -21.5h-149zM731 698q90 0 161 -24.5t120 -70
t75 -110.5t26 -146v-1q0 -81 -26 -146.5t-75 -111t-120 -70t-161 -24.5h-311q-90 0 -161 24.5t-120 70t-75 111t-26 146.5v1q0 81 26 146t75 110.5t120 70t161 24.5h311zM731 168q97 0 144.5 48t47.5 130v1q0 81 -47.5 129t-144.5 48h-311q-97 0 -144.5 -48t-47.5 -129v-1
q0 -82 47.5 -130t144.5 -48h311z" />
    <glyph glyph-name="Odieresis" unicode="&#xd6;" horiz-adv-x="1151" 
d="M426 748q-54 0 -89.5 27.5t-35.5 73.5q0 45 35.5 72.5t89.5 27.5q27 0 49.5 -7t39 -20.5t26 -31.5t9.5 -41q0 -46 -35 -73.5t-89 -27.5zM728 748q-54 0 -89.5 27.5t-35.5 73.5q0 45 35.5 72.5t89.5 27.5q27 0 49.5 -7t39 -20.5t26 -31.5t9.5 -41q0 -46 -35 -73.5
t-89 -27.5zM731 698q90 0 161 -24.5t120 -70t75 -110.5t26 -146v-1q0 -81 -26 -146.5t-75 -111t-120 -70t-161 -24.5h-311q-90 0 -161 24.5t-120 70t-75 111t-26 146.5v1q0 81 26 146t75 110.5t120 70t161 24.5h311zM731 168q97 0 144.5 48t47.5 130v1q0 81 -47.5 129
t-144.5 48h-311q-97 0 -144.5 -48t-47.5 -129v-1q0 -82 47.5 -130t144.5 -48h311z" />
    <glyph glyph-name="multiply" unicode="&#xd7;" horiz-adv-x="729" 
d="M591 570l88 -122l-166 -106l166 -107l-87 -122l-227 134l-228 -134l-87 122l166 107l-166 106l88 122l227 -133z" />
    <glyph glyph-name="Oslash" unicode="&#xd8;" horiz-adv-x="1151" 
d="M1114 649l-84 -63q41 -45 62 -105t21 -134v-1q0 -81 -26 -146.5t-75 -111t-120 -70t-161 -24.5h-311q-111 0 -194 37l-123 -89l-79 92l98 72q-84 92 -84 240v1q0 81 26 146t75 110.5t120 70t161 24.5h311q110 0 193 -37l112 83zM923 347q0 81 -47.5 129t-144.5 48h-311
q-97 0 -144.5 -48t-47.5 -129v-1q0 -82 47.5 -130t144.5 -48h311q97 0 144.5 48t47.5 130v1z" />
    <glyph glyph-name="Ugrave" unicode="&#xd9;" horiz-adv-x="1081" 
d="M487 750l-198 162h234l151 -162h-187zM826 692h195v-361q0 -85 -24.5 -148.5t-71 -105.5t-113.5 -62.5t-151 -20.5h-241q-84 0 -150.5 20.5t-113 62.5t-71.5 105.5t-25 148.5v361h195v-361q0 -43 12.5 -73t34 -49.5t52 -28.5t66.5 -9h241q36 0 66 9t52 28.5t34.5 49.5
t12.5 73v361z" />
    <glyph glyph-name="Uacute" unicode="&#xda;" horiz-adv-x="1081" 
d="M402 750l150 162h235l-199 -162h-186zM826 692h195v-361q0 -85 -24.5 -148.5t-71 -105.5t-113.5 -62.5t-151 -20.5h-241q-84 0 -150.5 20.5t-113 62.5t-71.5 105.5t-25 148.5v361h195v-361q0 -43 12.5 -73t34 -49.5t52 -28.5t66.5 -9h241q36 0 66 9t52 28.5t34.5 49.5
t12.5 73v361z" />
    <glyph glyph-name="Ucircumflex" unicode="&#xdb;" horiz-adv-x="1081" 
d="M646 912l155 -162h-203l-57 66l-59 -66h-203l156 162h211zM826 692h195v-361q0 -85 -24.5 -148.5t-71 -105.5t-113.5 -62.5t-151 -20.5h-241q-84 0 -150.5 20.5t-113 62.5t-71.5 105.5t-25 148.5v361h195v-361q0 -43 12.5 -73t34 -49.5t52 -28.5t66.5 -9h241q36 0 66 9
t52 28.5t34.5 49.5t12.5 73v361z" />
    <glyph glyph-name="Udieresis" unicode="&#xdc;" horiz-adv-x="1081" 
d="M390 748q-54 0 -89.5 27.5t-35.5 73.5q0 45 35.5 72.5t89.5 27.5q27 0 49.5 -7t39 -20.5t26 -31.5t9.5 -41q0 -46 -35 -73.5t-89 -27.5zM692 748q-54 0 -89.5 27.5t-35.5 73.5q0 45 35.5 72.5t89.5 27.5q27 0 49.5 -7t39 -20.5t26 -31.5t9.5 -41q0 -46 -35 -73.5
t-89 -27.5zM826 692h195v-361q0 -85 -24.5 -148.5t-71 -105.5t-113.5 -62.5t-151 -20.5h-241q-84 0 -150.5 20.5t-113 62.5t-71.5 105.5t-25 148.5v361h195v-361q0 -43 12.5 -73t34 -49.5t52 -28.5t66.5 -9h241q36 0 66 9t52 28.5t34.5 49.5t12.5 73v361z" />
    <glyph glyph-name="Yacute" unicode="&#xdd;" horiz-adv-x="998" 
d="M360 750l150 162h235l-199 -162h-186zM499 393l267 299h244l-413 -454v-238h-195v238l-414 454h245z" />
    <glyph glyph-name="Thorn" unicode="&#xde;" horiz-adv-x="1017" 
d="M269 605h387q89 0 151.5 -18.5t101.5 -52.5t57 -81.5t18 -106.5v-1q0 -58 -18 -105.5t-57 -81.5t-101.5 -52.5t-151.5 -18.5h-387v-87h-190v692h190v-87zM269 254h387q66 0 99.5 21t33.5 70v1q0 50 -33.5 71t-99.5 21h-387v-184z" />
    <glyph glyph-name="germandbls" unicode="&#xdf;" horiz-adv-x="1007" 
d="M341 692h575v-172l-211 -126q51 -1 99.5 -9.5t86 -30.5t60.5 -60t23 -98q0 -53 -19 -90.5t-54.5 -61t-86.5 -34t-116 -10.5h-315v163h315q38 0 59.5 12t21.5 39q0 25 -21 37.5t-76 12.5h-236v130l219 126h-324q-37 0 -59 -19t-22 -66v-435h-195v435q0 59 15.5 106.5
t49 81t86 51.5t125.5 18z" />
    <glyph glyph-name="agrave" unicode="&#xe0;" horiz-adv-x="1108" 
d="M505 750l-198 162h234l151 -162h-187zM1090 0h-210l-74 125h-503l-75 -125h-210l439 692h194zM554 525l-154 -242h308z" />
    <glyph glyph-name="aacute" unicode="&#xe1;" horiz-adv-x="1108" 
d="M420 750l150 162h235l-199 -162h-186zM1090 0h-210l-74 125h-503l-75 -125h-210l439 692h194zM554 525l-154 -242h308z" />
    <glyph glyph-name="acircumflex" unicode="&#xe2;" horiz-adv-x="1108" 
d="M664 912l155 -162h-203l-57 66l-59 -66h-203l156 162h211zM1090 0h-210l-74 125h-503l-75 -125h-210l439 692h194zM554 525l-154 -242h308z" />
    <glyph glyph-name="atilde" unicode="&#xe3;" horiz-adv-x="1108" 
d="M322 750q0 27 4 57.5t18 56t42.5 42t76.5 16.5q29 0 50 -5t38 -11t32 -11t31 -5q20 0 27 9.5t7 21.5h150q0 -26 -4.5 -56t-19 -55.5t-42 -42.5t-72.5 -17q-33 0 -56 5t-40 11t-30.5 11t-28.5 5q-21 0 -27.5 -10.5t-6.5 -21.5h-149zM1090 0h-210l-74 125h-503l-75 -125
h-210l439 692h194zM554 525l-154 -242h308z" />
    <glyph glyph-name="adieresis" unicode="&#xe4;" horiz-adv-x="1108" 
d="M408 748q-54 0 -89.5 27.5t-35.5 73.5q0 45 35.5 72.5t89.5 27.5q27 0 49.5 -7t39 -20.5t26 -31.5t9.5 -41q0 -46 -35 -73.5t-89 -27.5zM710 748q-54 0 -89.5 27.5t-35.5 73.5q0 45 35.5 72.5t89.5 27.5q27 0 49.5 -7t39 -20.5t26 -31.5t9.5 -41q0 -46 -35 -73.5
t-89 -27.5zM1090 0h-210l-74 125h-503l-75 -125h-210l439 692h194zM554 525l-154 -242h308z" />
    <glyph glyph-name="aring" unicode="&#xe5;" horiz-adv-x="1108" 
d="M558 750q-85 0 -128 34t-43 88t43 87.5t128 33.5t128 -33.5t43 -87.5t-43 -88t-128 -34zM559 833q21 0 33.5 10.5t12.5 28.5q0 17 -12.5 27.5t-33.5 10.5q-22 0 -34.5 -10.5t-12.5 -27.5q0 -18 12.5 -28.5t34.5 -10.5zM1090 0h-210l-74 125h-503l-75 -125h-210l439 692
h194zM554 525l-154 -242h308z" />
    <glyph glyph-name="ae" unicode="&#xe6;" horiz-adv-x="1805" 
d="M1694 692v-167h-634v-97h564v-164h-564v-96h634v-168h-824v130h-414l-137 -130h-235l749 692h861zM870 514l-259 -241h259v241z" />
    <glyph glyph-name="ccedilla" unicode="&#xe7;" horiz-adv-x="1005" 
d="M617 -6l-24 -33q57 -7 89.5 -27t32.5 -62q0 -28 -15 -45.5t-41 -27.5t-61 -13.5t-76 -3.5q-53 0 -83.5 2.5t-53.5 6.5v94q17 -3 33.5 -5t36.5 -2q26 0 42.5 4.5t16.5 18.5q0 16 -22.5 20t-49.5 4l49 69h-71q-90 0 -161 24.5t-120 70t-75 111t-26 146.5v1q0 81 26 146
t75 110.5t120 70t161 24.5h281q94 0 161 -19t119 -69l-112 -137q-31 30 -72 40.5t-96 10.5h-281q-92 0 -142 -47t-50 -130v-1q1 -84 51 -131t141 -47h281q59 0 99 11.5t69 40.5l112 -138q-25 -24 -53.5 -40.5t-62.5 -27t-74.5 -15.5t-89.5 -5h-84z" />
    <glyph glyph-name="egrave" unicode="&#xe8;" horiz-adv-x="959" 
d="M438 750l-198 162h234l151 -162h-187zM903 692v-167h-634v-97h564v-164h-564v-96h634v-168h-824v692h824z" />
    <glyph glyph-name="eacute" unicode="&#xe9;" horiz-adv-x="959" 
d="M353 750l150 162h235l-199 -162h-186zM903 692v-167h-634v-97h564v-164h-564v-96h634v-168h-824v692h824z" />
    <glyph glyph-name="ecircumflex" unicode="&#xea;" horiz-adv-x="959" 
d="M597 912l155 -162h-203l-57 66l-59 -66h-203l156 162h211zM903 692v-167h-634v-97h564v-164h-564v-96h634v-168h-824v692h824z" />
    <glyph glyph-name="edieresis" unicode="&#xeb;" horiz-adv-x="959" 
d="M341 748q-54 0 -89.5 27.5t-35.5 73.5q0 45 35.5 72.5t89.5 27.5q27 0 49.5 -7t39 -20.5t26 -31.5t9.5 -41q0 -46 -35 -73.5t-89 -27.5zM643 748q-54 0 -89.5 27.5t-35.5 73.5q0 45 35.5 72.5t89.5 27.5q27 0 49.5 -7t39 -20.5t26 -31.5t9.5 -41q0 -46 -35 -73.5
t-89 -27.5zM903 692v-167h-634v-97h564v-164h-564v-96h634v-168h-824v692h824z" />
    <glyph glyph-name="igrave" unicode="&#xec;" horiz-adv-x="352" 
d="M123 750l-199 162h235l151 -162h-187zM79 0v692h195v-692h-195z" />
    <glyph glyph-name="iacute" unicode="&#xed;" horiz-adv-x="352" 
d="M38 750l150 162h235l-199 -162h-186zM79 0v692h195v-692h-195z" />
    <glyph glyph-name="icircumflex" unicode="&#xee;" horiz-adv-x="352" 
d="M282 912l145 -162h-203l-47 66l-49 -66h-203l146 162h211zM79 0v692h195v-692h-195z" />
    <glyph glyph-name="idieresis" unicode="&#xef;" horiz-adv-x="352" 
d="M31 749q-53 0 -87 27.5t-34 72.5t34 72.5t87 27.5t87 -27.5t34 -72.5t-34 -72.5t-87 -27.5zM323 749q-54 0 -88 27.5t-34 72.5t34 72.5t88 27.5q51 0 85.5 -27.5t34.5 -72.5t-34.5 -72.5t-85.5 -27.5zM79 0v692h195v-692h-195z" />
    <glyph glyph-name="eth" unicode="&#xf0;" horiz-adv-x="1081" 
d="M665 692q90 0 160.5 -23.5t119 -68t73.5 -109t25 -145.5v-1q0 -81 -25 -145t-73.5 -108.5t-119 -68t-160.5 -23.5h-586v278h-85v134h85v280h586zM853 346q0 81 -45.5 126t-142.5 45h-391v-105h346v-134h-346v-103h391q97 0 142.5 44.5t45.5 125.5v1z" />
    <glyph glyph-name="ntilde" unicode="&#xf1;" horiz-adv-x="1102" 
d="M508 782q-21 0 -27.5 -10.5t-6.5 -21.5h-149q0 27 4 57.5t18 56t42.5 42t76.5 16.5q29 0 50 -5t38 -11t32 -11t31 -5q20 0 27 9.5t7 21.5h150q0 -26 -4.5 -56t-19 -55.5t-42 -42.5t-72.5 -17q-33 0 -56 5t-40 11t-30.5 11t-28.5 5zM831 692h193v-692h-179l-574 428v-428
h-192v692h178l574 -428v428z" />
    <glyph glyph-name="ograve" unicode="&#xf2;" horiz-adv-x="1151" 
d="M523 750l-198 162h234l151 -162h-187zM731 698q90 0 161 -24.5t120 -70t75 -110.5t26 -146v-1q0 -81 -26 -146.5t-75 -111t-120 -70t-161 -24.5h-311q-90 0 -161 24.5t-120 70t-75 111t-26 146.5v1q0 81 26 146t75 110.5t120 70t161 24.5h311zM731 168q97 0 144.5 48
t47.5 130v1q0 81 -47.5 129t-144.5 48h-311q-97 0 -144.5 -48t-47.5 -129v-1q0 -82 47.5 -130t144.5 -48h311z" />
    <glyph glyph-name="oacute" unicode="&#xf3;" horiz-adv-x="1151" 
d="M438 750l150 162h235l-199 -162h-186zM731 698q90 0 161 -24.5t120 -70t75 -110.5t26 -146v-1q0 -81 -26 -146.5t-75 -111t-120 -70t-161 -24.5h-311q-90 0 -161 24.5t-120 70t-75 111t-26 146.5v1q0 81 26 146t75 110.5t120 70t161 24.5h311zM731 168q97 0 144.5 48
t47.5 130v1q0 81 -47.5 129t-144.5 48h-311q-97 0 -144.5 -48t-47.5 -129v-1q0 -82 47.5 -130t144.5 -48h311z" />
    <glyph glyph-name="ocircumflex" unicode="&#xf4;" horiz-adv-x="1151" 
d="M682 912l155 -162h-203l-57 66l-59 -66h-203l156 162h211zM731 698q90 0 161 -24.5t120 -70t75 -110.5t26 -146v-1q0 -81 -26 -146.5t-75 -111t-120 -70t-161 -24.5h-311q-90 0 -161 24.5t-120 70t-75 111t-26 146.5v1q0 81 26 146t75 110.5t120 70t161 24.5h311z
M731 168q97 0 144.5 48t47.5 130v1q0 81 -47.5 129t-144.5 48h-311q-97 0 -144.5 -48t-47.5 -129v-1q0 -82 47.5 -130t144.5 -48h311z" />
    <glyph glyph-name="otilde" unicode="&#xf5;" horiz-adv-x="1151" 
d="M340 750q0 27 4 57.5t18 56t42.5 42t76.5 16.5q29 0 50 -5t38 -11t32 -11t31 -5q20 0 27 9.5t7 21.5h150q0 -26 -4.5 -56t-19 -55.5t-42 -42.5t-72.5 -17q-33 0 -56 5t-40 11t-30.5 11t-28.5 5q-21 0 -27.5 -10.5t-6.5 -21.5h-149zM731 698q90 0 161 -24.5t120 -70
t75 -110.5t26 -146v-1q0 -81 -26 -146.5t-75 -111t-120 -70t-161 -24.5h-311q-90 0 -161 24.5t-120 70t-75 111t-26 146.5v1q0 81 26 146t75 110.5t120 70t161 24.5h311zM731 168q97 0 144.5 48t47.5 130v1q0 81 -47.5 129t-144.5 48h-311q-97 0 -144.5 -48t-47.5 -129v-1
q0 -82 47.5 -130t144.5 -48h311z" />
    <glyph glyph-name="odieresis" unicode="&#xf6;" horiz-adv-x="1151" 
d="M426 748q-54 0 -89.5 27.5t-35.5 73.5q0 45 35.5 72.5t89.5 27.5q27 0 49.5 -7t39 -20.5t26 -31.5t9.5 -41q0 -46 -35 -73.5t-89 -27.5zM728 748q-54 0 -89.5 27.5t-35.5 73.5q0 45 35.5 72.5t89.5 27.5q27 0 49.5 -7t39 -20.5t26 -31.5t9.5 -41q0 -46 -35 -73.5
t-89 -27.5zM731 698q90 0 161 -24.5t120 -70t75 -110.5t26 -146v-1q0 -81 -26 -146.5t-75 -111t-120 -70t-161 -24.5h-311q-90 0 -161 24.5t-120 70t-75 111t-26 146.5v1q0 81 26 146t75 110.5t120 70t161 24.5h311zM731 168q97 0 144.5 48t47.5 130v1q0 81 -47.5 129
t-144.5 48h-311q-97 0 -144.5 -48t-47.5 -129v-1q0 -82 47.5 -130t144.5 -48h311z" />
    <glyph glyph-name="divide" unicode="&#xf7;" horiz-adv-x="824" 
d="M738 409v-155h-651v155h651zM287 554q0 43 34 70.5t91 27.5t91 -27.5t34 -70.5q0 -44 -34 -71.5t-91 -27.5t-91 27.5t-34 71.5zM412 207q57 0 91 -27t34 -71t-34 -71t-91 -27t-91 27t-34 71t34 71t91 27z" />
    <glyph glyph-name="oslash" unicode="&#xf8;" horiz-adv-x="1151" 
d="M1114 649l-84 -63q41 -45 62 -105t21 -134v-1q0 -81 -26 -146.5t-75 -111t-120 -70t-161 -24.5h-311q-111 0 -194 37l-123 -89l-79 92l98 72q-84 92 -84 240v1q0 81 26 146t75 110.5t120 70t161 24.5h311q110 0 193 -37l112 83zM923 347q0 81 -47.5 129t-144.5 48h-311
q-97 0 -144.5 -48t-47.5 -129v-1q0 -82 47.5 -130t144.5 -48h311q97 0 144.5 48t47.5 130v1z" />
    <glyph glyph-name="ugrave" unicode="&#xf9;" horiz-adv-x="1081" 
d="M487 750l-198 162h234l151 -162h-187zM826 692h195v-361q0 -85 -24.5 -148.5t-71 -105.5t-113.5 -62.5t-151 -20.5h-241q-84 0 -150.5 20.5t-113 62.5t-71.5 105.5t-25 148.5v361h195v-361q0 -43 12.5 -73t34 -49.5t52 -28.5t66.5 -9h241q36 0 66 9t52 28.5t34.5 49.5
t12.5 73v361z" />
    <glyph glyph-name="uacute" unicode="&#xfa;" horiz-adv-x="1081" 
d="M402 750l150 162h235l-199 -162h-186zM826 692h195v-361q0 -85 -24.5 -148.5t-71 -105.5t-113.5 -62.5t-151 -20.5h-241q-84 0 -150.5 20.5t-113 62.5t-71.5 105.5t-25 148.5v361h195v-361q0 -43 12.5 -73t34 -49.5t52 -28.5t66.5 -9h241q36 0 66 9t52 28.5t34.5 49.5
t12.5 73v361z" />
    <glyph glyph-name="ucircumflex" unicode="&#xfb;" horiz-adv-x="1081" 
d="M646 912l155 -162h-203l-57 66l-59 -66h-203l156 162h211zM826 692h195v-361q0 -85 -24.5 -148.5t-71 -105.5t-113.5 -62.5t-151 -20.5h-241q-84 0 -150.5 20.5t-113 62.5t-71.5 105.5t-25 148.5v361h195v-361q0 -43 12.5 -73t34 -49.5t52 -28.5t66.5 -9h241q36 0 66 9
t52 28.5t34.5 49.5t12.5 73v361z" />
    <glyph glyph-name="udieresis" unicode="&#xfc;" horiz-adv-x="1081" 
d="M390 748q-54 0 -89.5 27.5t-35.5 73.5q0 45 35.5 72.5t89.5 27.5q27 0 49.5 -7t39 -20.5t26 -31.5t9.5 -41q0 -46 -35 -73.5t-89 -27.5zM692 748q-54 0 -89.5 27.5t-35.5 73.5q0 45 35.5 72.5t89.5 27.5q27 0 49.5 -7t39 -20.5t26 -31.5t9.5 -41q0 -46 -35 -73.5
t-89 -27.5zM826 692h195v-361q0 -85 -24.5 -148.5t-71 -105.5t-113.5 -62.5t-151 -20.5h-241q-84 0 -150.5 20.5t-113 62.5t-71.5 105.5t-25 148.5v361h195v-361q0 -43 12.5 -73t34 -49.5t52 -28.5t66.5 -9h241q36 0 66 9t52 28.5t34.5 49.5t12.5 73v361z" />
    <glyph glyph-name="yacute" unicode="&#xfd;" horiz-adv-x="998" 
d="M360 750l150 162h235l-199 -162h-186zM499 393l267 299h244l-413 -454v-238h-195v238l-414 454h245z" />
    <glyph glyph-name="thorn" unicode="&#xfe;" horiz-adv-x="1017" 
d="M269 692v-87h387q89 0 151.5 -18.5t101.5 -52.5t57 -81.5t18 -106.5v-1q0 -58 -18 -105.5t-57 -81.5t-101.5 -52.5t-151.5 -18.5h-387v-87h-190v692h190zM656 254q66 0 99.5 21t33.5 70v1q0 50 -33.5 71t-99.5 21h-387v-184h387z" />
    <glyph glyph-name="ydieresis" unicode="&#xff;" horiz-adv-x="998" 
d="M348 748q-54 0 -89.5 27.5t-35.5 73.5q0 45 35.5 72.5t89.5 27.5q27 0 49.5 -7t39 -20.5t26 -31.5t9.5 -41q0 -46 -35 -73.5t-89 -27.5zM650 748q-54 0 -89.5 27.5t-35.5 73.5q0 45 35.5 72.5t89.5 27.5q27 0 49.5 -7t39 -20.5t26 -31.5t9.5 -41q0 -46 -35 -73.5
t-89 -27.5zM499 393l267 299h244l-413 -454v-238h-195v238l-414 454h245z" />
    <glyph glyph-name="Amacron" unicode="&#x100;" horiz-adv-x="1108" 
d="M345 764v135h426v-135h-426zM1090 0h-210l-74 125h-503l-75 -125h-210l439 692h194zM554 525l-154 -242h308z" />
    <glyph glyph-name="amacron" unicode="&#x101;" horiz-adv-x="1108" 
d="M345 764v135h426v-135h-426zM1090 0h-210l-74 125h-503l-75 -125h-210l439 692h194zM554 525l-154 -242h308z" />
    <glyph glyph-name="Abreve" unicode="&#x102;" horiz-adv-x="1108" 
d="M558 750q-71 0 -117 14t-73 37t-37.5 52t-10.5 59h180q0 -22 14.5 -36.5t43.5 -14.5t43.5 14.5t14.5 36.5h180q0 -30 -10.5 -59t-37.5 -52t-73 -37t-117 -14zM1090 0h-210l-74 125h-503l-75 -125h-210l439 692h194zM554 525l-154 -242h308z" />
    <glyph glyph-name="abreve" unicode="&#x103;" horiz-adv-x="1108" 
d="M558 750q-71 0 -117 14t-73 37t-37.5 52t-10.5 59h180q0 -22 14.5 -36.5t43.5 -14.5t43.5 14.5t14.5 36.5h180q0 -30 -10.5 -59t-37.5 -52t-73 -37t-117 -14zM1090 0h-210l-74 125h-503l-75 -125h-210l439 692h194zM554 525l-154 -242h308z" />
    <glyph glyph-name="Aogonek" unicode="&#x104;" horiz-adv-x="1108" 
d="M1064 -85q18 0 29 1.5t25 3.5v-126q-24 -5 -48.5 -7.5t-58.5 -2.5q-39 0 -71.5 6t-56 18.5t-37 32.5t-13.5 47q0 42 32.5 71.5t91.5 40.5h-77l-74 125h-503l-75 -125h-210l439 692h194l439 -692q-23 -9 -37 -18t-21 -17t-9 -14.5t-2 -11.5q0 -14 12 -19t31 -5zM400 283
h308l-154 242z" />
    <glyph glyph-name="aogonek" unicode="&#x105;" horiz-adv-x="1108" 
d="M1064 -85q18 0 29 1.5t25 3.5v-126q-24 -5 -48.5 -7.5t-58.5 -2.5q-39 0 -71.5 6t-56 18.5t-37 32.5t-13.5 47q0 42 32.5 71.5t91.5 40.5h-77l-74 125h-503l-75 -125h-210l439 692h194l439 -692q-23 -9 -37 -18t-21 -17t-9 -14.5t-2 -11.5q0 -14 12 -19t31 -5zM400 283
h308l-154 242z" />
    <glyph glyph-name="Cacute" unicode="&#x106;" horiz-adv-x="1005" 
d="M419 750l150 162h235l-199 -162h-186zM869 473q-31 30 -72 40.5t-96 10.5h-281q-92 0 -142 -47t-50 -130v-1q1 -84 51 -131t141 -47h281q59 0 99 11.5t69 40.5l112 -138q-25 -24 -53.5 -40.5t-62.5 -27t-74.5 -15.5t-89.5 -5h-281q-90 0 -161 24.5t-120 70t-75 111
t-26 146.5v1q0 81 26 146t75 110.5t120 70t161 24.5h281q94 0 161 -19t119 -69z" />
    <glyph glyph-name="cacute" unicode="&#x107;" horiz-adv-x="1005" 
d="M419 750l150 162h235l-199 -162h-186zM869 473q-31 30 -72 40.5t-96 10.5h-281q-92 0 -142 -47t-50 -130v-1q1 -84 51 -131t141 -47h281q59 0 99 11.5t69 40.5l112 -138q-25 -24 -53.5 -40.5t-62.5 -27t-74.5 -15.5t-89.5 -5h-281q-90 0 -161 24.5t-120 70t-75 111
t-26 146.5v1q0 81 26 146t75 110.5t120 70t161 24.5h281q94 0 161 -19t119 -69z" />
    <glyph glyph-name="Cdotaccent" unicode="&#x10a;" horiz-adv-x="1005" 
d="M558 750q-58 0 -92 27.5t-34 71.5q0 43 34 70.5t92 27.5q57 0 91 -27.5t34 -70.5q0 -44 -34 -71.5t-91 -27.5zM869 473q-31 30 -72 40.5t-96 10.5h-281q-92 0 -142 -47t-50 -130v-1q1 -84 51 -131t141 -47h281q59 0 99 11.5t69 40.5l112 -138q-25 -24 -53.5 -40.5
t-62.5 -27t-74.5 -15.5t-89.5 -5h-281q-90 0 -161 24.5t-120 70t-75 111t-26 146.5v1q0 81 26 146t75 110.5t120 70t161 24.5h281q94 0 161 -19t119 -69z" />
    <glyph glyph-name="cdotaccent" unicode="&#x10b;" horiz-adv-x="1005" 
d="M558 750q-58 0 -92 27.5t-34 71.5q0 43 34 70.5t92 27.5q57 0 91 -27.5t34 -70.5q0 -44 -34 -71.5t-91 -27.5zM869 473q-31 30 -72 40.5t-96 10.5h-281q-92 0 -142 -47t-50 -130v-1q1 -84 51 -131t141 -47h281q59 0 99 11.5t69 40.5l112 -138q-25 -24 -53.5 -40.5
t-62.5 -27t-74.5 -15.5t-89.5 -5h-281q-90 0 -161 24.5t-120 70t-75 111t-26 146.5v1q0 81 26 146t75 110.5t120 70t161 24.5h281q94 0 161 -19t119 -69z" />
    <glyph glyph-name="Ccaron" unicode="&#x10c;" horiz-adv-x="1005" 
d="M663 750h-211l-156 162h203l59 -65l57 65h203zM869 473q-31 30 -72 40.5t-96 10.5h-281q-92 0 -142 -47t-50 -130v-1q1 -84 51 -131t141 -47h281q59 0 99 11.5t69 40.5l112 -138q-25 -24 -53.5 -40.5t-62.5 -27t-74.5 -15.5t-89.5 -5h-281q-90 0 -161 24.5t-120 70
t-75 111t-26 146.5v1q0 81 26 146t75 110.5t120 70t161 24.5h281q94 0 161 -19t119 -69z" />
    <glyph glyph-name="ccaron" unicode="&#x10d;" horiz-adv-x="1005" 
d="M663 750h-211l-156 162h203l59 -65l57 65h203zM869 473q-31 30 -72 40.5t-96 10.5h-281q-92 0 -142 -47t-50 -130v-1q1 -84 51 -131t141 -47h281q59 0 99 11.5t69 40.5l112 -138q-25 -24 -53.5 -40.5t-62.5 -27t-74.5 -15.5t-89.5 -5h-281q-90 0 -161 24.5t-120 70
t-75 111t-26 146.5v1q0 81 26 146t75 110.5t120 70t161 24.5h281q94 0 161 -19t119 -69z" />
    <glyph glyph-name="Dcaron" unicode="&#x10e;" horiz-adv-x="1081" 
d="M647 750h-211l-156 162h203l59 -65l57 65h203zM665 692q90 0 160.5 -23.5t119 -68t73.5 -109t25 -145.5v-1q0 -81 -25 -145t-73.5 -108.5t-119 -68t-160.5 -23.5h-586v692h586zM274 175h391q97 0 142.5 44.5t45.5 125.5v1q0 81 -45.5 126t-142.5 45h-391v-342z" />
    <glyph glyph-name="dcaron" unicode="&#x10f;" horiz-adv-x="1081" 
d="M647 750h-211l-156 162h203l59 -65l57 65h203zM665 692q90 0 160.5 -23.5t119 -68t73.5 -109t25 -145.5v-1q0 -81 -25 -145t-73.5 -108.5t-119 -68t-160.5 -23.5h-586v692h586zM274 175h391q97 0 142.5 44.5t45.5 125.5v1q0 81 -45.5 126t-142.5 45h-391v-342z" />
    <glyph glyph-name="Dcroat" unicode="&#x110;" horiz-adv-x="1081" 
d="M665 692q90 0 160.5 -23.5t119 -68t73.5 -109t25 -145.5v-1q0 -81 -25 -145t-73.5 -108.5t-119 -68t-160.5 -23.5h-586v278h-85v134h85v280h586zM853 346q0 81 -45.5 126t-142.5 45h-391v-105h346v-134h-346v-103h391q97 0 142.5 44.5t45.5 125.5v1z" />
    <glyph glyph-name="dcroat" unicode="&#x111;" horiz-adv-x="1081" 
d="M665 692q90 0 160.5 -23.5t119 -68t73.5 -109t25 -145.5v-1q0 -81 -25 -145t-73.5 -108.5t-119 -68t-160.5 -23.5h-586v278h-85v134h85v280h586zM853 346q0 81 -45.5 126t-142.5 45h-391v-105h346v-134h-346v-103h391q97 0 142.5 44.5t45.5 125.5v1z" />
    <glyph glyph-name="Emacron" unicode="&#x112;" horiz-adv-x="959" 
d="M278 764v135h426v-135h-426zM903 692v-167h-634v-97h564v-164h-564v-96h634v-168h-824v692h824z" />
    <glyph glyph-name="emacron" unicode="&#x113;" horiz-adv-x="959" 
d="M278 764v135h426v-135h-426zM903 692v-167h-634v-97h564v-164h-564v-96h634v-168h-824v692h824z" />
    <glyph glyph-name="Edotaccent" unicode="&#x116;" horiz-adv-x="959" 
d="M491 750q-58 0 -92 27.5t-34 71.5q0 43 34 70.5t92 27.5q57 0 91 -27.5t34 -70.5q0 -44 -34 -71.5t-91 -27.5zM903 692v-167h-634v-97h564v-164h-564v-96h634v-168h-824v692h824z" />
    <glyph glyph-name="edotaccent" unicode="&#x117;" horiz-adv-x="959" 
d="M491 750q-58 0 -92 27.5t-34 71.5q0 43 34 70.5t92 27.5q57 0 91 -27.5t34 -70.5q0 -44 -34 -71.5t-91 -27.5zM903 692v-167h-634v-97h564v-164h-564v-96h634v-168h-824v692h824z" />
    <glyph glyph-name="Eogonek" unicode="&#x118;" horiz-adv-x="959" 
d="M877 -85q18 0 29 1.5t25 3.5v-126q-24 -5 -48.5 -7.5t-58.5 -2.5q-39 0 -71.5 6t-56 18.5t-37 32.5t-13.5 47q0 42 32.5 71.5t91.5 40.5h-691v692h824v-167h-634v-97h564v-164h-564v-96h634v-168q-23 -9 -37 -18t-21 -17t-9 -14.5t-2 -11.5q0 -14 12 -19t31 -5z" />
    <glyph glyph-name="eogonek" unicode="&#x119;" horiz-adv-x="959" 
d="M877 -85q18 0 29 1.5t25 3.5v-126q-24 -5 -48.5 -7.5t-58.5 -2.5q-39 0 -71.5 6t-56 18.5t-37 32.5t-13.5 47q0 42 32.5 71.5t91.5 40.5h-691v692h824v-167h-634v-97h564v-164h-564v-96h634v-168q-23 -9 -37 -18t-21 -17t-9 -14.5t-2 -11.5q0 -14 12 -19t31 -5z" />
    <glyph glyph-name="Ecaron" unicode="&#x11a;" horiz-adv-x="959" 
d="M597 750h-211l-156 162h203l59 -65l57 65h203zM903 692v-167h-634v-97h564v-164h-564v-96h634v-168h-824v692h824z" />
    <glyph glyph-name="ecaron" unicode="&#x11b;" horiz-adv-x="959" 
d="M597 750h-211l-156 162h203l59 -65l57 65h203zM903 692v-167h-634v-97h564v-164h-564v-96h634v-168h-824v692h824z" />
    <glyph glyph-name="Gbreve" unicode="&#x11e;" horiz-adv-x="1079" 
d="M572 750q-71 0 -117 14t-73 37t-37.5 52t-10.5 59h180q0 -22 14.5 -36.5t43.5 -14.5t43.5 14.5t14.5 36.5h180q0 -30 -10.5 -59t-37.5 -52t-73 -37t-117 -14zM896 473q-31 30 -72.5 40.5t-100.5 10.5h-298q-96 0 -146.5 -46t-50.5 -131v-1q0 -83 50 -130.5t144 -47.5h280
q57 0 98 10.5t62 39.5v13h-231v150h395v-381h-113l-12 70q-34 -42 -84 -59t-123 -17h-280q-88 0 -158 24.5t-118.5 70t-74 111t-25.5 146.5v1q0 81 26 146t75.5 110.5t121.5 70t164 24.5h298q98 0 165.5 -19t119.5 -69z" />
    <glyph glyph-name="gbreve" unicode="&#x11f;" horiz-adv-x="1079" 
d="M572 750q-71 0 -117 14t-73 37t-37.5 52t-10.5 59h180q0 -22 14.5 -36.5t43.5 -14.5t43.5 14.5t14.5 36.5h180q0 -30 -10.5 -59t-37.5 -52t-73 -37t-117 -14zM896 473q-31 30 -72.5 40.5t-100.5 10.5h-298q-96 0 -146.5 -46t-50.5 -131v-1q0 -83 50 -130.5t144 -47.5h280
q57 0 98 10.5t62 39.5v13h-231v150h395v-381h-113l-12 70q-34 -42 -84 -59t-123 -17h-280q-88 0 -158 24.5t-118.5 70t-74 111t-25.5 146.5v1q0 81 26 146t75.5 110.5t121.5 70t164 24.5h298q98 0 165.5 -19t119.5 -69z" />
    <glyph glyph-name="Gdotaccent" unicode="&#x120;" horiz-adv-x="1079" 
d="M573 750q-58 0 -92 27.5t-34 71.5q0 43 34 70.5t92 27.5q57 0 91 -27.5t34 -70.5q0 -44 -34 -71.5t-91 -27.5zM896 473q-31 30 -72.5 40.5t-100.5 10.5h-298q-96 0 -146.5 -46t-50.5 -131v-1q0 -83 50 -130.5t144 -47.5h280q57 0 98 10.5t62 39.5v13h-231v150h395v-381
h-113l-12 70q-34 -42 -84 -59t-123 -17h-280q-88 0 -158 24.5t-118.5 70t-74 111t-25.5 146.5v1q0 81 26 146t75.5 110.5t121.5 70t164 24.5h298q98 0 165.5 -19t119.5 -69z" />
    <glyph glyph-name="gdotaccent" unicode="&#x121;" horiz-adv-x="1079" 
d="M573 750q-58 0 -92 27.5t-34 71.5q0 43 34 70.5t92 27.5q57 0 91 -27.5t34 -70.5q0 -44 -34 -71.5t-91 -27.5zM896 473q-31 30 -72.5 40.5t-100.5 10.5h-298q-96 0 -146.5 -46t-50.5 -131v-1q0 -83 50 -130.5t144 -47.5h280q57 0 98 10.5t62 39.5v13h-231v150h395v-381
h-113l-12 70q-34 -42 -84 -59t-123 -17h-280q-88 0 -158 24.5t-118.5 70t-74 111t-25.5 146.5v1q0 81 26 146t75.5 110.5t121.5 70t164 24.5h298q98 0 165.5 -19t119.5 -69z" />
    <glyph glyph-name="uni0122" unicode="&#x122;" horiz-adv-x="1079" 
d="M896 473q-31 30 -72.5 40.5t-100.5 10.5h-298q-96 0 -146.5 -46t-50.5 -131v-1q0 -83 50 -130.5t144 -47.5h280q57 0 98 10.5t62 39.5v13h-231v150h395v-381h-113l-12 70q-34 -42 -84 -59t-123 -17h-280q-88 0 -158 24.5t-118.5 70t-74 111t-25.5 146.5v1q0 81 26 146
t75.5 110.5t121.5 70t164 24.5h298q98 0 165.5 -19t119.5 -69zM478 -331l40 109q-31 8 -54.5 31.5t-23.5 60.5q0 44 34 71t92 27q57 0 91 -27t34 -71q0 -25 -20 -62l-79 -139h-114z" />
    <glyph glyph-name="uni0123" unicode="&#x123;" horiz-adv-x="1079" 
d="M896 473q-31 30 -72.5 40.5t-100.5 10.5h-298q-96 0 -146.5 -46t-50.5 -131v-1q0 -83 50 -130.5t144 -47.5h280q57 0 98 10.5t62 39.5v13h-231v150h395v-381h-113l-12 70q-34 -42 -84 -59t-123 -17h-280q-88 0 -158 24.5t-118.5 70t-74 111t-25.5 146.5v1q0 81 26 146
t75.5 110.5t121.5 70t164 24.5h298q98 0 165.5 -19t119.5 -69zM478 -331l40 109q-31 8 -54.5 31.5t-23.5 60.5q0 44 34 71t92 27q57 0 91 -27t34 -71q0 -25 -20 -62l-79 -139h-114z" />
    <glyph glyph-name="Hbar" unicode="&#x126;" horiz-adv-x="1102" 
d="M1126 627v-134h-102v-493h-195v260h-555v-260h-195v493h-104v134h104v65h195v-65h555v65h195v-65h102zM829 432v61h-555v-61h555z" />
    <glyph glyph-name="hbar" unicode="&#x127;" horiz-adv-x="1102" 
d="M1126 627v-134h-102v-493h-195v260h-555v-260h-195v493h-104v134h104v65h195v-65h555v65h195v-65h102zM829 432v61h-555v-61h555z" />
    <glyph glyph-name="Itilde" unicode="&#x128;" horiz-adv-x="352" 
d="M-43 750q0 27 3.5 57.5t17 56t39.5 42t71 16.5q27 0 46.5 -5t35.5 -11t29.5 -11t28.5 -5q18 0 25 9.5t7 21.5h138q0 -26 -4 -56t-17.5 -55.5t-39 -42.5t-67.5 -17q-31 0 -52 5t-36.5 11t-28 11t-26.5 5q-20 0 -25.5 -10.5t-5.5 -21.5h-139zM79 0v692h195v-692h-195z" />
    <glyph glyph-name="itilde" unicode="&#x129;" horiz-adv-x="352" 
d="M-43 750q0 27 3.5 57.5t17 56t39.5 42t71 16.5q27 0 46.5 -5t35.5 -11t29.5 -11t28.5 -5q18 0 25 9.5t7 21.5h138q0 -26 -4 -56t-17.5 -55.5t-39 -42.5t-67.5 -17q-31 0 -52 5t-36.5 11t-28 11t-26.5 5q-20 0 -25.5 -10.5t-5.5 -21.5h-139zM79 0v692h195v-692h-195z" />
    <glyph glyph-name="Imacron" unicode="&#x12a;" horiz-adv-x="352" 
d="M-18 764v135h387v-135h-387zM79 0v692h195v-692h-195z" />
    <glyph glyph-name="imacron" unicode="&#x12b;" horiz-adv-x="352" 
d="M-18 764v135h387v-135h-387zM79 0v692h195v-692h-195z" />
    <glyph glyph-name="Iogonek" unicode="&#x12e;" horiz-adv-x="352" 
d="M248 -85q17 0 28.5 1.5t25.5 3.5v-126q-25 -5 -49 -7.5t-58 -2.5q-39 0 -71.5 6t-56 18.5t-37 32.5t-13.5 47q0 42 32 71.5t91 40.5h-61v692h195v-692q-23 -9 -37 -18t-21.5 -17t-9.5 -14.5t-2 -11.5q0 -14 12 -19t32 -5z" />
    <glyph glyph-name="iogonek" unicode="&#x12f;" horiz-adv-x="352" 
d="M248 -85q17 0 28.5 1.5t25.5 3.5v-126q-25 -5 -49 -7.5t-58 -2.5q-39 0 -71.5 6t-56 18.5t-37 32.5t-13.5 47q0 42 32 71.5t91 40.5h-61v692h195v-692q-23 -9 -37 -18t-21.5 -17t-9.5 -14.5t-2 -11.5q0 -14 12 -19t32 -5z" />
    <glyph glyph-name="Idotaccent" unicode="&#x130;" horiz-adv-x="352" 
d="M177 750q-58 0 -92 27.5t-34 71.5q0 43 34 70.5t92 27.5q57 0 91 -27.5t34 -70.5q0 -44 -34 -71.5t-91 -27.5zM79 0v692h195v-692h-195z" />
    <glyph glyph-name="IJ" unicode="&#x132;" horiz-adv-x="1273" 
d="M79 0v692h195v-692h-195zM1212 692v-376q0 -156 -88 -239t-259 -83h-205q-101 0 -175 27.5t-116 87.5l134 130q29 -35 66 -51.5t91 -16.5h205q72 0 112 37t40 108v201h-409v175h604z" />
    <glyph glyph-name="ij" unicode="&#x133;" horiz-adv-x="1273" 
d="M79 0v692h195v-692h-195zM1212 692v-376q0 -156 -88 -239t-259 -83h-205q-101 0 -175 27.5t-116 87.5l134 130q29 -35 66 -51.5t91 -16.5h205q72 0 112 37t40 108v201h-409v175h604z" />
    <glyph glyph-name="uni0136" unicode="&#x136;" horiz-adv-x="1047" 
d="M804 692h217l-231 -356l231 -336h-218l-170 254h-359v-254h-195v692h195v-265h364zM453 -331l40 109q-31 8 -54.5 31.5t-23.5 60.5q0 44 34 71t92 27q57 0 91 -27t34 -71q0 -25 -20 -62l-79 -139h-114z" />
    <glyph glyph-name="uni0137" unicode="&#x137;" horiz-adv-x="1047" 
d="M804 692h217l-231 -356l231 -336h-218l-170 254h-359v-254h-195v692h195v-265h364zM453 -331l40 109q-31 8 -54.5 31.5t-23.5 60.5q0 44 34 71t92 27q57 0 91 -27t34 -71q0 -25 -20 -62l-79 -139h-114z" />
    <glyph glyph-name="Lacute" unicode="&#x139;" horiz-adv-x="912" 
d="M39 750l150 162h235l-199 -162h-186zM274 692v-510h606v-182h-801v692h195z" />
    <glyph glyph-name="lacute" unicode="&#x13a;" horiz-adv-x="912" 
d="M39 750l150 162h235l-199 -162h-186zM274 692v-510h606v-182h-801v692h195z" />
    <glyph glyph-name="uni013B" unicode="&#x13b;" horiz-adv-x="912" 
d="M274 692v-510h606v-182h-801v692h195zM384 -331l40 109q-31 8 -54.5 31.5t-23.5 60.5q0 44 34 71t92 27q57 0 91 -27t34 -71q0 -25 -20 -62l-79 -139h-114z" />
    <glyph glyph-name="uni013C" unicode="&#x13c;" horiz-adv-x="912" 
d="M274 692v-510h606v-182h-801v692h195zM384 -331l40 109q-31 8 -54.5 31.5t-23.5 60.5q0 44 34 71t92 27q57 0 91 -27t34 -71q0 -25 -20 -62l-79 -139h-114z" />
    <glyph glyph-name="Lcaron" unicode="&#x13d;" horiz-adv-x="932" 
d="M559 486v237h211l-55 -237h-156zM274 692v-510h606v-182h-801v692h195z" />
    <glyph glyph-name="lcaron" unicode="&#x13e;" horiz-adv-x="932" 
d="M559 486v237h211l-55 -237h-156zM274 692v-510h606v-182h-801v692h195z" />
    <glyph glyph-name="Ldot" unicode="&#x13f;" horiz-adv-x="912" 
d="M274 692v-510h606v-182h-801v692h195zM591 318q-58 0 -92 27.5t-34 71.5q0 43 34 70.5t92 27.5q57 0 91 -27.5t34 -70.5q0 -44 -34 -71.5t-91 -27.5z" />
    <glyph glyph-name="ldot" unicode="&#x140;" horiz-adv-x="912" 
d="M274 692v-510h606v-182h-801v692h195zM591 318q-58 0 -92 27.5t-34 71.5q0 43 34 70.5t92 27.5q57 0 91 -27.5t34 -70.5q0 -44 -34 -71.5t-91 -27.5z" />
    <glyph glyph-name="Lslash" unicode="&#x141;" horiz-adv-x="912" 
d="M274 182h606v-182h-801v244l-118 -41l-47 125l165 57v307h195v-240l210 73l48 -125l-258 -89v-129z" />
    <glyph glyph-name="lslash" unicode="&#x142;" horiz-adv-x="912" 
d="M274 182h606v-182h-801v244l-118 -41l-47 125l165 57v307h195v-240l210 73l48 -125l-258 -89v-129z" />
    <glyph glyph-name="Nacute" unicode="&#x143;" horiz-adv-x="1102" 
d="M808 912l-199 -162h-186l150 162h235zM831 692h193v-692h-179l-574 428v-428h-192v692h178l574 -428v428z" />
    <glyph glyph-name="nacute" unicode="&#x144;" horiz-adv-x="1102" 
d="M808 912l-199 -162h-186l150 162h235zM831 692h193v-692h-179l-574 428v-428h-192v692h178l574 -428v428z" />
    <glyph glyph-name="uni0145" unicode="&#x145;" horiz-adv-x="1102" 
d="M831 692h193v-692h-179l-574 428v-428h-192v692h178l574 -428v428zM557 -32q57 0 91 -27t34 -71q0 -25 -20 -62l-79 -139h-114l40 109q-31 8 -54.5 31.5t-23.5 60.5q0 44 34 71t92 27z" />
    <glyph glyph-name="uni0146" unicode="&#x146;" horiz-adv-x="1102" 
d="M831 692h193v-692h-179l-574 428v-428h-192v692h178l574 -428v428zM557 -32q57 0 91 -27t34 -71q0 -25 -20 -62l-79 -139h-114l40 109q-31 8 -54.5 31.5t-23.5 60.5q0 44 34 71t92 27z" />
    <glyph glyph-name="Ncaron" unicode="&#x147;" horiz-adv-x="1102" 
d="M667 750h-211l-156 162h203l59 -65l57 65h203zM831 692h193v-692h-179l-574 428v-428h-192v692h178l574 -428v428z" />
    <glyph glyph-name="ncaron" unicode="&#x148;" horiz-adv-x="1102" 
d="M667 750h-211l-156 162h203l59 -65l57 65h203zM831 692h193v-692h-179l-574 428v-428h-192v692h178l574 -428v428z" />
    <glyph glyph-name="Eng" unicode="&#x14a;" horiz-adv-x="1135" 
d="M831 692h193v-697q0 -60 -16 -102.5t-55 -70.5t-103.5 -41t-160.5 -13v165q85 0 118 13.5t33 48.5v13l-569 417v-425h-192v692h178l574 -425v425z" />
    <glyph glyph-name="eng" unicode="&#x14b;" horiz-adv-x="1135" 
d="M79 0v692h178l574 -425v425h193v-697q0 -60 -16 -102.5t-55 -70.5t-103.5 -41t-160.5 -13v165q85 0 118 13.5t33 48.5v13l-569 417v-425h-192z" />
    <glyph glyph-name="Omacron" unicode="&#x14c;" horiz-adv-x="1151" 
d="M363 764v135h426v-135h-426zM731 698q90 0 161 -24.5t120 -70t75 -110.5t26 -146v-1q0 -81 -26 -146.5t-75 -111t-120 -70t-161 -24.5h-311q-90 0 -161 24.5t-120 70t-75 111t-26 146.5v1q0 81 26 146t75 110.5t120 70t161 24.5h311zM731 168q97 0 144.5 48t47.5 130v1
q0 81 -47.5 129t-144.5 48h-311q-97 0 -144.5 -48t-47.5 -129v-1q0 -82 47.5 -130t144.5 -48h311z" />
    <glyph glyph-name="omacron" unicode="&#x14d;" horiz-adv-x="1151" 
d="M363 764v135h426v-135h-426zM731 698q90 0 161 -24.5t120 -70t75 -110.5t26 -146v-1q0 -81 -26 -146.5t-75 -111t-120 -70t-161 -24.5h-311q-90 0 -161 24.5t-120 70t-75 111t-26 146.5v1q0 81 26 146t75 110.5t120 70t161 24.5h311zM731 168q97 0 144.5 48t47.5 130v1
q0 81 -47.5 129t-144.5 48h-311q-97 0 -144.5 -48t-47.5 -129v-1q0 -82 47.5 -130t144.5 -48h311z" />
    <glyph glyph-name="Ohungarumlaut" unicode="&#x150;" horiz-adv-x="1151" 
d="M335 750l105 162h212l-146 -162h-171zM619 750l106 162h212l-146 -162h-172zM731 698q90 0 161 -24.5t120 -70t75 -110.5t26 -146v-1q0 -81 -26 -146.5t-75 -111t-120 -70t-161 -24.5h-311q-90 0 -161 24.5t-120 70t-75 111t-26 146.5v1q0 81 26 146t75 110.5t120 70
t161 24.5h311zM731 168q97 0 144.5 48t47.5 130v1q0 81 -47.5 129t-144.5 48h-311q-97 0 -144.5 -48t-47.5 -129v-1q0 -82 47.5 -130t144.5 -48h311z" />
    <glyph glyph-name="ohungarumlaut" unicode="&#x151;" horiz-adv-x="1151" 
d="M335 750l105 162h212l-146 -162h-171zM619 750l106 162h212l-146 -162h-172zM731 698q90 0 161 -24.5t120 -70t75 -110.5t26 -146v-1q0 -81 -26 -146.5t-75 -111t-120 -70t-161 -24.5h-311q-90 0 -161 24.5t-120 70t-75 111t-26 146.5v1q0 81 26 146t75 110.5t120 70
t161 24.5h311zM731 168q97 0 144.5 48t47.5 130v1q0 81 -47.5 129t-144.5 48h-311q-97 0 -144.5 -48t-47.5 -129v-1q0 -82 47.5 -130t144.5 -48h311z" />
    <glyph glyph-name="OE" unicode="&#x152;" horiz-adv-x="1831" 
d="M1775 525h-634v-97h564v-164h-564v-96h634v-168h-824v32q-82 -38 -195 -38h-311q-90 0 -161 24.5t-120 70t-75 111t-26 146.5v1q0 81 26 146t75 110.5t120 70t161 24.5h311q113 0 195 -38v32h824v-167zM948 347q0 81 -47.5 129t-144.5 48h-311q-97 0 -144.5 -48
t-47.5 -129v-1q0 -82 47.5 -130t144.5 -48h311q97 0 144.5 48t47.5 130v1z" />
    <glyph glyph-name="oe" unicode="&#x153;" horiz-adv-x="1831" 
d="M1775 525h-634v-97h564v-164h-564v-96h634v-168h-824v32q-82 -38 -195 -38h-311q-90 0 -161 24.5t-120 70t-75 111t-26 146.5v1q0 81 26 146t75 110.5t120 70t161 24.5h311q113 0 195 -38v32h824v-167zM948 347q0 81 -47.5 129t-144.5 48h-311q-97 0 -144.5 -48
t-47.5 -129v-1q0 -82 47.5 -130t144.5 -48h311q97 0 144.5 48t47.5 130v1z" />
    <glyph glyph-name="Racute" unicode="&#x154;" horiz-adv-x="1034" 
d="M766 912l-199 -162h-186l150 162h235zM787 0l-126 204h-392v-204h-190v692h593q85 0 144.5 -18.5t96.5 -51t54 -77.5t17 -99v-1q0 -73 -32 -128.5t-105 -84.5l154 -232h-214zM269 523v-157h403q64 0 93 17t29 62v1q0 42 -29 59.5t-93 17.5h-403z" />
    <glyph glyph-name="racute" unicode="&#x155;" horiz-adv-x="1034" 
d="M766 912l-199 -162h-186l150 162h235zM787 0l-126 204h-392v-204h-190v692h593q85 0 144.5 -18.5t96.5 -51t54 -77.5t17 -99v-1q0 -73 -32 -128.5t-105 -84.5l154 -232h-214zM269 523v-157h403q64 0 93 17t29 62v1q0 42 -29 59.5t-93 17.5h-403z" />
    <glyph glyph-name="uni0156" unicode="&#x156;" horiz-adv-x="1034" 
d="M1001 0h-214l-126 204h-392v-204h-190v692h593q85 0 144.5 -18.5t96.5 -51t54 -77.5t17 -99v-1q0 -73 -32 -128.5t-105 -84.5zM269 523v-157h403q64 0 93 17t29 62v1q0 42 -29 59.5t-93 17.5h-403zM546 -32q57 0 91 -27t34 -71q0 -25 -20 -62l-79 -139h-114l40 109
q-31 8 -54.5 31.5t-23.5 60.5q0 44 34 71t92 27z" />
    <glyph glyph-name="uni0157" unicode="&#x157;" horiz-adv-x="1034" 
d="M1001 0h-214l-126 204h-392v-204h-190v692h593q85 0 144.5 -18.5t96.5 -51t54 -77.5t17 -99v-1q0 -73 -32 -128.5t-105 -84.5zM269 523v-157h403q64 0 93 17t29 62v1q0 42 -29 59.5t-93 17.5h-403zM546 -32q57 0 91 -27t34 -71q0 -25 -20 -62l-79 -139h-114l40 109
q-31 8 -54.5 31.5t-23.5 60.5q0 44 34 71t92 27z" />
    <glyph glyph-name="Rcaron" unicode="&#x158;" horiz-adv-x="1034" 
d="M625 750h-211l-156 162h203l59 -65l57 65h203zM787 0l-126 204h-392v-204h-190v692h593q85 0 144.5 -18.5t96.5 -51t54 -77.5t17 -99v-1q0 -73 -32 -128.5t-105 -84.5l154 -232h-214zM269 523v-157h403q64 0 93 17t29 62v1q0 42 -29 59.5t-93 17.5h-403z" />
    <glyph glyph-name="rcaron" unicode="&#x159;" horiz-adv-x="1034" 
d="M625 750h-211l-156 162h203l59 -65l57 65h203zM787 0l-126 204h-392v-204h-190v692h593q85 0 144.5 -18.5t96.5 -51t54 -77.5t17 -99v-1q0 -73 -32 -128.5t-105 -84.5l154 -232h-214zM269 523v-157h403q64 0 93 17t29 62v1q0 42 -29 59.5t-93 17.5h-403z" />
    <glyph glyph-name="Sacute" unicode="&#x15a;" horiz-adv-x="966" 
d="M341 750l150 162h235l-199 -162h-186zM772 484q-24 29 -55 40t-83 11h-315q-41 0 -63.5 -10.5t-22.5 -33.5q0 -19 16 -30t63 -17l402 -23q63 -6 104.5 -26.5t66.5 -50t35 -65.5t10 -73q0 -45 -16.5 -84t-49.5 -67.5t-83 -44.5t-118 -16h-323q-125 0 -201.5 38t-108.5 107
l169 95q23 -46 56.5 -61.5t86.5 -15.5h323q85 0 85 50q0 25 -18 36t-56 16l-414 28q-58 6 -98 24.5t-64.5 45.5t-35 60t-10.5 69q0 47 16.5 86t50.5 67t85.5 43.5t121.5 15.5h309q108 0 178 -29t105 -82z" />
    <glyph glyph-name="sacute" unicode="&#x15b;" horiz-adv-x="966" 
d="M341 750l150 162h235l-199 -162h-186zM772 484q-24 29 -55 40t-83 11h-315q-41 0 -63.5 -10.5t-22.5 -33.5q0 -19 16 -30t63 -17l402 -23q63 -6 104.5 -26.5t66.5 -50t35 -65.5t10 -73q0 -45 -16.5 -84t-49.5 -67.5t-83 -44.5t-118 -16h-323q-125 0 -201.5 38t-108.5 107
l169 95q23 -46 56.5 -61.5t86.5 -15.5h323q85 0 85 50q0 25 -18 36t-56 16l-414 28q-58 6 -98 24.5t-64.5 45.5t-35 60t-10.5 69q0 47 16.5 86t50.5 67t85.5 43.5t121.5 15.5h309q108 0 178 -29t105 -82z" />
    <glyph glyph-name="Scedilla" unicode="&#x15e;" horiz-adv-x="966" 
d="M714 421q63 -6 104.5 -26.5t66.5 -50t35 -65.5t10 -73q0 -45 -16.5 -84t-49.5 -67.5t-83 -44.5t-118 -16h-120l-24 -33q57 -7 89.5 -27t32.5 -62q0 -28 -15 -45.5t-41 -27.5t-61 -13.5t-76 -3.5q-53 0 -83.5 2.5t-53.5 6.5v94q17 -3 33.5 -5t36.5 -2q26 0 42.5 4.5
t16.5 18.5q0 16 -22.5 20t-49.5 4l49 69h-77q-125 0 -201.5 38t-108.5 107l169 95q23 -46 56.5 -61.5t86.5 -15.5h323q85 0 85 50q0 25 -18 36t-56 16l-414 28q-58 6 -98 24.5t-64.5 45.5t-35 60t-10.5 69q0 47 16.5 86t50.5 67t85.5 43.5t121.5 15.5h309q108 0 178 -29
t105 -82l-148 -103q-24 29 -55 40t-83 11h-315q-41 0 -63.5 -10.5t-22.5 -33.5q0 -19 16 -30t63 -17z" />
    <glyph glyph-name="scedilla" unicode="&#x15f;" horiz-adv-x="966" 
d="M714 421q63 -6 104.5 -26.5t66.5 -50t35 -65.5t10 -73q0 -45 -16.5 -84t-49.5 -67.5t-83 -44.5t-118 -16h-120l-24 -33q57 -7 89.5 -27t32.5 -62q0 -28 -15 -45.5t-41 -27.5t-61 -13.5t-76 -3.5q-53 0 -83.5 2.5t-53.5 6.5v94q17 -3 33.5 -5t36.5 -2q26 0 42.5 4.5
t16.5 18.5q0 16 -22.5 20t-49.5 4l49 69h-77q-125 0 -201.5 38t-108.5 107l169 95q23 -46 56.5 -61.5t86.5 -15.5h323q85 0 85 50q0 25 -18 36t-56 16l-414 28q-58 6 -98 24.5t-64.5 45.5t-35 60t-10.5 69q0 47 16.5 86t50.5 67t85.5 43.5t121.5 15.5h309q108 0 178 -29
t105 -82l-148 -103q-24 29 -55 40t-83 11h-315q-41 0 -63.5 -10.5t-22.5 -33.5q0 -19 16 -30t63 -17z" />
    <glyph glyph-name="Scaron" unicode="&#x160;" horiz-adv-x="966" 
d="M585 750h-211l-156 162h203l59 -65l57 65h203zM772 484q-24 29 -55 40t-83 11h-315q-41 0 -63.5 -10.5t-22.5 -33.5q0 -19 16 -30t63 -17l402 -23q63 -6 104.5 -26.5t66.5 -50t35 -65.5t10 -73q0 -45 -16.5 -84t-49.5 -67.5t-83 -44.5t-118 -16h-323q-125 0 -201.5 38
t-108.5 107l169 95q23 -46 56.5 -61.5t86.5 -15.5h323q85 0 85 50q0 25 -18 36t-56 16l-414 28q-58 6 -98 24.5t-64.5 45.5t-35 60t-10.5 69q0 47 16.5 86t50.5 67t85.5 43.5t121.5 15.5h309q108 0 178 -29t105 -82z" />
    <glyph glyph-name="scaron" unicode="&#x161;" horiz-adv-x="966" 
d="M585 750h-211l-156 162h203l59 -65l57 65h203zM772 484q-24 29 -55 40t-83 11h-315q-41 0 -63.5 -10.5t-22.5 -33.5q0 -19 16 -30t63 -17l402 -23q63 -6 104.5 -26.5t66.5 -50t35 -65.5t10 -73q0 -45 -16.5 -84t-49.5 -67.5t-83 -44.5t-118 -16h-323q-125 0 -201.5 38
t-108.5 107l169 95q23 -46 56.5 -61.5t86.5 -15.5h323q85 0 85 50q0 25 -18 36t-56 16l-414 28q-58 6 -98 24.5t-64.5 45.5t-35 60t-10.5 69q0 47 16.5 86t50.5 67t85.5 43.5t121.5 15.5h309q108 0 178 -29t105 -82z" />
    <glyph glyph-name="uni0162" unicode="&#x162;" horiz-adv-x="937" 
d="M566 513v-513h-29l-28 -39q57 -7 89.5 -27t32.5 -62q0 -28 -15 -45.5t-41 -27.5t-61 -13.5t-76 -3.5q-53 0 -83.5 2.5t-53.5 6.5v94q17 -3 33.5 -5t36.5 -2q26 0 42.5 4.5t16.5 18.5q0 16 -22.5 20t-49.5 4l53 75h-40v513h-340v179h875v-179h-340z" />
    <glyph glyph-name="uni0163" unicode="&#x163;" horiz-adv-x="937" 
d="M566 513v-513h-29l-28 -39q57 -7 89.5 -27t32.5 -62q0 -28 -15 -45.5t-41 -27.5t-61 -13.5t-76 -3.5q-53 0 -83.5 2.5t-53.5 6.5v94q17 -3 33.5 -5t36.5 -2q26 0 42.5 4.5t16.5 18.5q0 16 -22.5 20t-49.5 4l53 75h-40v513h-340v179h875v-179h-340z" />
    <glyph glyph-name="Tcaron" unicode="&#x164;" horiz-adv-x="937" 
d="M575 750h-211l-156 162h203l59 -65l57 65h203zM906 692v-179h-340v-513h-195v513h-340v179h875z" />
    <glyph glyph-name="tcaron" unicode="&#x165;" horiz-adv-x="937" 
d="M575 750h-211l-156 162h203l59 -65l57 65h203zM906 692v-179h-340v-513h-195v513h-340v179h875z" />
    <glyph glyph-name="Tbar" unicode="&#x166;" horiz-adv-x="937" 
d="M906 513h-340v-135h228v-134h-228v-244h-195v244h-203v134h203v135h-340v179h875v-179z" />
    <glyph glyph-name="tbar" unicode="&#x167;" horiz-adv-x="937" 
d="M906 513h-340v-135h228v-134h-228v-244h-195v244h-203v134h203v135h-340v179h875v-179z" />
    <glyph glyph-name="Utilde" unicode="&#x168;" horiz-adv-x="1081" 
d="M304 750q0 27 4 57.5t18 56t42.5 42t76.5 16.5q29 0 50 -5t38 -11t32 -11t31 -5q20 0 27 9.5t7 21.5h150q0 -26 -4.5 -56t-19 -55.5t-42 -42.5t-72.5 -17q-33 0 -56 5t-40 11t-30.5 11t-28.5 5q-21 0 -27.5 -10.5t-6.5 -21.5h-149zM826 692h195v-361q0 -85 -24.5 -148.5
t-71 -105.5t-113.5 -62.5t-151 -20.5h-241q-84 0 -150.5 20.5t-113 62.5t-71.5 105.5t-25 148.5v361h195v-361q0 -43 12.5 -73t34 -49.5t52 -28.5t66.5 -9h241q36 0 66 9t52 28.5t34.5 49.5t12.5 73v361z" />
    <glyph glyph-name="utilde" unicode="&#x169;" horiz-adv-x="1081" 
d="M304 750q0 27 4 57.5t18 56t42.5 42t76.5 16.5q29 0 50 -5t38 -11t32 -11t31 -5q20 0 27 9.5t7 21.5h150q0 -26 -4.5 -56t-19 -55.5t-42 -42.5t-72.5 -17q-33 0 -56 5t-40 11t-30.5 11t-28.5 5q-21 0 -27.5 -10.5t-6.5 -21.5h-149zM826 692h195v-361q0 -85 -24.5 -148.5
t-71 -105.5t-113.5 -62.5t-151 -20.5h-241q-84 0 -150.5 20.5t-113 62.5t-71.5 105.5t-25 148.5v361h195v-361q0 -43 12.5 -73t34 -49.5t52 -28.5t66.5 -9h241q36 0 66 9t52 28.5t34.5 49.5t12.5 73v361z" />
    <glyph glyph-name="Umacron" unicode="&#x16a;" horiz-adv-x="1081" 
d="M327 764v135h426v-135h-426zM826 692h195v-361q0 -85 -24.5 -148.5t-71 -105.5t-113.5 -62.5t-151 -20.5h-241q-84 0 -150.5 20.5t-113 62.5t-71.5 105.5t-25 148.5v361h195v-361q0 -43 12.5 -73t34 -49.5t52 -28.5t66.5 -9h241q36 0 66 9t52 28.5t34.5 49.5t12.5 73v361
z" />
    <glyph glyph-name="umacron" unicode="&#x16b;" horiz-adv-x="1081" 
d="M327 764v135h426v-135h-426zM826 692h195v-361q0 -85 -24.5 -148.5t-71 -105.5t-113.5 -62.5t-151 -20.5h-241q-84 0 -150.5 20.5t-113 62.5t-71.5 105.5t-25 148.5v361h195v-361q0 -43 12.5 -73t34 -49.5t52 -28.5t66.5 -9h241q36 0 66 9t52 28.5t34.5 49.5t12.5 73v361
z" />
    <glyph glyph-name="Uring" unicode="&#x16e;" horiz-adv-x="1081" 
d="M540 750q-85 0 -128 34t-43 88t43 87.5t128 33.5t128 -33.5t43 -87.5t-43 -88t-128 -34zM541 833q21 0 33.5 10.5t12.5 28.5q0 17 -12.5 27.5t-33.5 10.5q-22 0 -34.5 -10.5t-12.5 -27.5q0 -18 12.5 -28.5t34.5 -10.5zM826 692h195v-361q0 -85 -24.5 -148.5t-71 -105.5
t-113.5 -62.5t-151 -20.5h-241q-84 0 -150.5 20.5t-113 62.5t-71.5 105.5t-25 148.5v361h195v-361q0 -43 12.5 -73t34 -49.5t52 -28.5t66.5 -9h241q36 0 66 9t52 28.5t34.5 49.5t12.5 73v361z" />
    <glyph glyph-name="uring" unicode="&#x16f;" horiz-adv-x="1081" 
d="M540 750q-85 0 -128 34t-43 88t43 87.5t128 33.5t128 -33.5t43 -87.5t-43 -88t-128 -34zM541 833q21 0 33.5 10.5t12.5 28.5q0 17 -12.5 27.5t-33.5 10.5q-22 0 -34.5 -10.5t-12.5 -27.5q0 -18 12.5 -28.5t34.5 -10.5zM826 692h195v-361q0 -85 -24.5 -148.5t-71 -105.5
t-113.5 -62.5t-151 -20.5h-241q-84 0 -150.5 20.5t-113 62.5t-71.5 105.5t-25 148.5v361h195v-361q0 -43 12.5 -73t34 -49.5t52 -28.5t66.5 -9h241q36 0 66 9t52 28.5t34.5 49.5t12.5 73v361z" />
    <glyph glyph-name="Uhungarumlaut" unicode="&#x170;" horiz-adv-x="1081" 
d="M299 750l105 162h212l-146 -162h-171zM583 750l106 162h212l-146 -162h-172zM826 692h195v-361q0 -85 -24.5 -148.5t-71 -105.5t-113.5 -62.5t-151 -20.5h-241q-84 0 -150.5 20.5t-113 62.5t-71.5 105.5t-25 148.5v361h195v-361q0 -43 12.5 -73t34 -49.5t52 -28.5
t66.5 -9h241q36 0 66 9t52 28.5t34.5 49.5t12.5 73v361z" />
    <glyph glyph-name="uhungarumlaut" unicode="&#x171;" horiz-adv-x="1081" 
d="M299 750l105 162h212l-146 -162h-171zM583 750l106 162h212l-146 -162h-172zM826 692h195v-361q0 -85 -24.5 -148.5t-71 -105.5t-113.5 -62.5t-151 -20.5h-241q-84 0 -150.5 20.5t-113 62.5t-71.5 105.5t-25 148.5v361h195v-361q0 -43 12.5 -73t34 -49.5t52 -28.5
t66.5 -9h241q36 0 66 9t52 28.5t34.5 49.5t12.5 73v361z" />
    <glyph glyph-name="Uogonek" unicode="&#x172;" horiz-adv-x="1081" 
d="M826 692h195v-361q0 -140 -64 -220t-180 -106q-37 -17 -46.5 -31.5t-9.5 -23.5q0 -14 12 -19t31 -5q18 0 29 1.5t25 3.5v-126q-24 -5 -48.5 -7.5t-58.5 -2.5q-39 0 -71.5 6t-56 18.5t-37 32.5t-13.5 47q0 31 18 55t51 40h-182q-84 0 -150.5 20.5t-113 62.5t-71.5 105.5
t-25 148.5v361h195v-361q0 -43 12.5 -73t34 -49.5t52 -28.5t66.5 -9h241q36 0 66 9t52 28.5t34.5 49.5t12.5 73v361z" />
    <glyph glyph-name="uogonek" unicode="&#x173;" horiz-adv-x="1081" 
d="M826 692h195v-361q0 -140 -64 -220t-180 -106q-37 -17 -46.5 -31.5t-9.5 -23.5q0 -14 12 -19t31 -5q18 0 29 1.5t25 3.5v-126q-24 -5 -48.5 -7.5t-58.5 -2.5q-39 0 -71.5 6t-56 18.5t-37 32.5t-13.5 47q0 31 18 55t51 40h-182q-84 0 -150.5 20.5t-113 62.5t-71.5 105.5
t-25 148.5v361h195v-361q0 -43 12.5 -73t34 -49.5t52 -28.5t66.5 -9h241q36 0 66 9t52 28.5t34.5 49.5t12.5 73v361z" />
    <glyph glyph-name="Wcircumflex" unicode="&#x174;" horiz-adv-x="1329" 
d="M771 912l155 -162h-203l-57 66l-59 -66h-203l156 162h211zM560 568h210l167 -332l152 456h216l-256 -692h-191l-192 391h-2l-193 -391h-190l-257 692h216l153 -456z" />
    <glyph glyph-name="wcircumflex" unicode="&#x175;" horiz-adv-x="1329" 
d="M771 912l155 -162h-203l-57 66l-59 -66h-203l156 162h211zM560 568h210l167 -332l152 456h216l-256 -692h-191l-192 391h-2l-193 -391h-190l-257 692h216l153 -456z" />
    <glyph glyph-name="Ycircumflex" unicode="&#x176;" horiz-adv-x="998" 
d="M604 912l155 -162h-203l-57 66l-59 -66h-203l156 162h211zM499 393l267 299h244l-413 -454v-238h-195v238l-414 454h245z" />
    <glyph glyph-name="ycircumflex" unicode="&#x177;" horiz-adv-x="998" 
d="M604 912l155 -162h-203l-57 66l-59 -66h-203l156 162h211zM499 393l267 299h244l-413 -454v-238h-195v238l-414 454h245z" />
    <glyph glyph-name="Ydieresis" unicode="&#x178;" horiz-adv-x="998" 
d="M348 748q-54 0 -89.5 27.5t-35.5 73.5q0 45 35.5 72.5t89.5 27.5q27 0 49.5 -7t39 -20.5t26 -31.5t9.5 -41q0 -46 -35 -73.5t-89 -27.5zM650 748q-54 0 -89.5 27.5t-35.5 73.5q0 45 35.5 72.5t89.5 27.5q27 0 49.5 -7t39 -20.5t26 -31.5t9.5 -41q0 -46 -35 -73.5
t-89 -27.5zM499 393l267 299h244l-413 -454v-238h-195v238l-414 454h245z" />
    <glyph glyph-name="Zacute" unicode="&#x179;" horiz-adv-x="996" 
d="M745 912l-199 -162h-186l150 162h235zM356 162h592v-162h-897v162l526 334l58 35h-582v161h886v-161l-526 -335z" />
    <glyph glyph-name="zacute" unicode="&#x17a;" horiz-adv-x="996" 
d="M745 912l-199 -162h-186l150 162h235zM356 162h592v-162h-897v162l526 334l58 35h-582v161h886v-161l-526 -335z" />
    <glyph glyph-name="Zdotaccent" unicode="&#x17b;" horiz-adv-x="996" 
d="M498 750q-58 0 -92 27.5t-34 71.5q0 43 34 70.5t92 27.5q57 0 91 -27.5t34 -70.5q0 -44 -34 -71.5t-91 -27.5zM356 162h592v-162h-897v162l526 334l58 35h-582v161h886v-161l-526 -335z" />
    <glyph glyph-name="zdotaccent" unicode="&#x17c;" horiz-adv-x="996" 
d="M498 750q-58 0 -92 27.5t-34 71.5q0 43 34 70.5t92 27.5q57 0 91 -27.5t34 -70.5q0 -44 -34 -71.5t-91 -27.5zM356 162h592v-162h-897v162l526 334l58 35h-582v161h886v-161l-526 -335z" />
    <glyph glyph-name="Zcaron" unicode="&#x17d;" horiz-adv-x="996" 
d="M604 750h-211l-156 162h203l59 -65l57 65h203zM356 162h592v-162h-897v162l526 334l58 35h-582v161h886v-161l-526 -335z" />
    <glyph glyph-name="zcaron" unicode="&#x17e;" horiz-adv-x="996" 
d="M604 750h-211l-156 162h203l59 -65l57 65h203zM356 162h592v-162h-897v162l526 334l58 35h-582v161h886v-161l-526 -335z" />
    <glyph glyph-name="uni01EA" unicode="&#x1ea;" horiz-adv-x="1151" 
d="M731 698q90 0 161 -24.5t120 -70t75 -110.5t26 -146v-1q0 -134 -68 -222t-195 -117q-39 -17 -48.5 -32.5t-9.5 -24.5q0 -14 12 -19t31 -5q18 0 29 1.5t25 3.5v-126q-24 -5 -48.5 -7.5t-58.5 -2.5q-39 0 -71.5 6t-56 18.5t-37 32.5t-13.5 47q0 31 18 55t51 40h-253
q-90 0 -161 24.5t-120 70t-75 111t-26 146.5v1q0 81 26 146t75 110.5t120 70t161 24.5h311zM923 347q0 81 -47.5 129t-144.5 48h-311q-97 0 -144.5 -48t-47.5 -129v-1q0 -82 47.5 -130t144.5 -48h311q97 0 144.5 48t47.5 130v1z" />
    <glyph glyph-name="uni01EB" unicode="&#x1eb;" horiz-adv-x="1151" 
d="M731 698q90 0 161 -24.5t120 -70t75 -110.5t26 -146v-1q0 -134 -68 -222t-195 -117q-39 -17 -48.5 -32.5t-9.5 -24.5q0 -14 12 -19t31 -5q18 0 29 1.5t25 3.5v-126q-24 -5 -48.5 -7.5t-58.5 -2.5q-39 0 -71.5 6t-56 18.5t-37 32.5t-13.5 47q0 31 18 55t51 40h-253
q-90 0 -161 24.5t-120 70t-75 111t-26 146.5v1q0 81 26 146t75 110.5t120 70t161 24.5h311zM923 347q0 81 -47.5 129t-144.5 48h-311q-97 0 -144.5 -48t-47.5 -129v-1q0 -82 47.5 -130t144.5 -48h311q97 0 144.5 48t47.5 130v1z" />
    <glyph glyph-name="AEacute" unicode="&#x1fc;" horiz-adv-x="1805" 
d="M875 750l150 162h235l-199 -162h-186zM1694 692v-167h-634v-97h564v-164h-564v-96h634v-168h-824v130h-414l-137 -130h-235l749 692h861zM870 514l-259 -241h259v241z" />
    <glyph glyph-name="aeacute" unicode="&#x1fd;" horiz-adv-x="1805" 
d="M875 750l150 162h235l-199 -162h-186zM1694 692v-167h-634v-97h564v-164h-564v-96h634v-168h-824v130h-414l-137 -130h-235l749 692h861zM870 514l-259 -241h259v241z" />
    <glyph glyph-name="Oslashacute" unicode="&#x1fe;" horiz-adv-x="1151" 
d="M823 912l-199 -162h-186l150 162h235zM1114 649l-84 -63q41 -45 62 -105t21 -134v-1q0 -81 -26 -146.5t-75 -111t-120 -70t-161 -24.5h-311q-111 0 -194 37l-123 -89l-79 92l98 72q-84 92 -84 240v1q0 81 26 146t75 110.5t120 70t161 24.5h311q110 0 193 -37l112 83z
M923 347q0 81 -47.5 129t-144.5 48h-311q-97 0 -144.5 -48t-47.5 -129v-1q0 -82 47.5 -130t144.5 -48h311q97 0 144.5 48t47.5 130v1z" />
    <glyph glyph-name="oslashacute" unicode="&#x1ff;" horiz-adv-x="1151" 
d="M823 912l-199 -162h-186l150 162h235zM1114 649l-84 -63q41 -45 62 -105t21 -134v-1q0 -81 -26 -146.5t-75 -111t-120 -70t-161 -24.5h-311q-111 0 -194 37l-123 -89l-79 92l98 72q-84 92 -84 240v1q0 81 26 146t75 110.5t120 70t161 24.5h311q110 0 193 -37l112 83z
M923 347q0 81 -47.5 129t-144.5 48h-311q-97 0 -144.5 -48t-47.5 -129v-1q0 -82 47.5 -130t144.5 -48h311q97 0 144.5 48t47.5 130v1z" />
    <glyph glyph-name="uni0218" unicode="&#x218;" horiz-adv-x="966" 
d="M772 484q-24 29 -55 40t-83 11h-315q-41 0 -63.5 -10.5t-22.5 -33.5q0 -19 16 -30t63 -17l402 -23q63 -6 104.5 -26.5t66.5 -50t35 -65.5t10 -73q0 -45 -16.5 -84t-49.5 -67.5t-83 -44.5t-118 -16h-323q-125 0 -201.5 38t-108.5 107l169 95q23 -46 56.5 -61.5t86.5 -15.5
h323q85 0 85 50q0 25 -18 36t-56 16l-414 28q-58 6 -98 24.5t-64.5 45.5t-35 60t-10.5 69q0 47 16.5 86t50.5 67t85.5 43.5t121.5 15.5h309q108 0 178 -29t105 -82zM392 -331l40 109q-31 8 -54.5 31.5t-23.5 60.5q0 44 34 71t92 27q57 0 91 -27t34 -71q0 -25 -20 -62
l-79 -139h-114z" />
    <glyph glyph-name="uni0219" unicode="&#x219;" horiz-adv-x="966" 
d="M772 484q-24 29 -55 40t-83 11h-315q-41 0 -63.5 -10.5t-22.5 -33.5q0 -19 16 -30t63 -17l402 -23q63 -6 104.5 -26.5t66.5 -50t35 -65.5t10 -73q0 -45 -16.5 -84t-49.5 -67.5t-83 -44.5t-118 -16h-323q-125 0 -201.5 38t-108.5 107l169 95q23 -46 56.5 -61.5t86.5 -15.5
h323q85 0 85 50q0 25 -18 36t-56 16l-414 28q-58 6 -98 24.5t-64.5 45.5t-35 60t-10.5 69q0 47 16.5 86t50.5 67t85.5 43.5t121.5 15.5h309q108 0 178 -29t105 -82zM392 -331l40 109q-31 8 -54.5 31.5t-23.5 60.5q0 44 34 71t92 27q57 0 91 -27t34 -71q0 -25 -20 -62
l-79 -139h-114z" />
    <glyph glyph-name="uni021A" unicode="&#x21a;" horiz-adv-x="937" 
d="M906 692v-179h-340v-513h-195v513h-340v179h875zM378 -331l40 109q-31 8 -54.5 31.5t-23.5 60.5q0 44 34 71t92 27q57 0 91 -27t34 -71q0 -25 -20 -62l-79 -139h-114z" />
    <glyph glyph-name="uni021B" unicode="&#x21b;" horiz-adv-x="937" 
d="M906 692v-179h-340v-513h-195v513h-340v179h875zM378 -331l40 109q-31 8 -54.5 31.5t-23.5 60.5q0 44 34 71t92 27q57 0 91 -27t34 -71q0 -25 -20 -62l-79 -139h-114z" />
    <glyph glyph-name="circumflex" unicode="&#x2c6;" horiz-adv-x="638" 
d="M402 912l155 -162h-203l-57 66l-59 -66h-203l156 162h211z" />
    <glyph glyph-name="caron" unicode="&#x2c7;" horiz-adv-x="638" 
d="M425 750h-211l-156 162h203l59 -65l57 65h203z" />
    <glyph glyph-name="breve" unicode="&#x2d8;" horiz-adv-x="593" 
d="M265 750q-71 0 -117 14t-73 37t-37.5 52t-10.5 59h180q0 -22 14.5 -36.5t43.5 -14.5t43.5 14.5t14.5 36.5h180q0 -30 -10.5 -59t-37.5 -52t-73 -37t-117 -14z" />
    <glyph glyph-name="dotaccent" unicode="&#x2d9;" horiz-adv-x="367" 
d="M174 750q-57 0 -91 27.5t-34 71.5q0 43 34 70.5t91 27.5t91 -27.5t34 -70.5q0 -44 -34 -71.5t-91 -27.5z" />
    <glyph glyph-name="ring" unicode="&#x2da;" horiz-adv-x="459" 
d="M231 750q-85 0 -128 34t-43 88t43 87.5t128 33.5t128 -33.5t43 -87.5t-43 -88t-128 -34zM232 833q21 0 33.5 10.5t12.5 28.5q0 17 -12.5 27.5t-33.5 10.5q-22 0 -34.5 -10.5t-12.5 -27.5q0 -18 12.5 -28.5t34.5 -10.5z" />
    <glyph glyph-name="ogonek" unicode="&#x2db;" horiz-adv-x="401" 
d="M56 -112q0 42 32 71.5t91 40.5h134q-23 -9 -37 -18t-21.5 -17t-9.5 -14.5t-2 -11.5q0 -14 12 -19t32 -5q17 0 28.5 1.5t25.5 3.5v-126q-25 -5 -49 -7.5t-58 -2.5q-39 0 -71.5 6t-56 18.5t-37 32.5t-13.5 47z" />
    <glyph glyph-name="tilde" unicode="&#x2dc;" horiz-adv-x="592" 
d="M49 750q0 27 4 57.5t18 56t42.5 42t76.5 16.5q30 0 51 -5t37.5 -11t31.5 -11t31 -5q20 0 27.5 9.5t7.5 21.5h149q0 -26 -4.5 -56t-19 -55.5t-42 -42.5t-72.5 -17q-33 0 -56 5t-40 11t-30.5 11t-28.5 5q-20 0 -26.5 -10.5t-6.5 -21.5h-150z" />
    <glyph glyph-name="hungarumlaut" unicode="&#x2dd;" horiz-adv-x="718" 
d="M38 750l105 162h212l-145 -162h-172zM323 750l105 162h212l-146 -162h-171z" />
    <glyph glyph-name="gravecomb" unicode="&#x300;" horiz-adv-x="0" 
d="M-200 750l-198 162h234l151 -162h-187z" />
    <glyph glyph-name="acutecomb" unicode="&#x301;" horiz-adv-x="0" 
d="M-397 750l150 162h235l-199 -162h-186z" />
    <glyph glyph-name="uni0302" unicode="&#x302;" horiz-adv-x="0" 
d="M-168 912l155 -162h-203l-57 66l-59 -66h-203l156 162h211z" />
    <glyph glyph-name="tildecomb" unicode="&#x303;" horiz-adv-x="0" 
d="M-507 750q0 27 4 57.5t18 56t42.5 42t76.5 16.5q29 0 50 -5t38 -11t31.5 -11t31.5 -5q20 0 27 9.5t7 21.5h150q0 -26 -4.5 -56t-19 -55.5t-42 -42.5t-72.5 -17q-33 0 -56 5t-40 11t-30.5 11t-28.5 5q-21 0 -27.5 -10.5t-6.5 -21.5h-149z" />
    <glyph glyph-name="uni0304" unicode="&#x304;" horiz-adv-x="0" 
d="M-479 764v135h426v-135h-426z" />
    <glyph glyph-name="uni0306" unicode="&#x306;" horiz-adv-x="0" 
d="M-264 750q-71 0 -117 14t-73 37t-37.5 52t-10.5 59h180q0 -22 14.5 -36.5t43.5 -14.5t43.5 14.5t14.5 36.5h180q0 -30 -10.5 -59t-37.5 -52t-73 -37t-117 -14z" />
    <glyph glyph-name="uni0307" unicode="&#x307;" horiz-adv-x="0" 
d="M-152 750q-58 0 -92 27.5t-34 71.5q0 43 34 70.5t92 27.5q57 0 91 -27.5t34 -70.5q0 -44 -34 -71.5t-91 -27.5z" />
    <glyph glyph-name="uni0308" unicode="&#x308;" horiz-adv-x="0" 
d="M-453 750q-54 0 -89.5 27.5t-35.5 73.5q0 45 35.5 72.5t89.5 27.5q27 0 49.5 -7t39 -20.5t26 -31.5t9.5 -41q0 -46 -35 -73.5t-89 -27.5zM-151 750q-54 0 -89.5 27.5t-35.5 73.5q0 45 35.5 72.5t89.5 27.5q27 0 49.5 -7t39 -20.5t26 -31.5t9.5 -41q0 -46 -35 -73.5
t-89 -27.5z" />
    <glyph glyph-name="uni030A" unicode="&#x30a;" horiz-adv-x="0" 
d="M-197 750q-85 0 -128 34t-43 88t43 87.5t128 33.5t128 -33.5t43 -87.5t-43 -88t-128 -34zM-196 833q21 0 33.5 10.5t12.5 28.5q0 17 -12.5 27.5t-33.5 10.5q-22 0 -34.5 -10.5t-12.5 -27.5q0 -18 12.5 -28.5t34.5 -10.5z" />
    <glyph glyph-name="uni030B" unicode="&#x30b;" horiz-adv-x="0" 
d="M-616 750l105 162h212l-146 -162h-171zM-332 750l106 162h212l-146 -162h-172z" />
    <glyph glyph-name="uni030C" unicode="&#x30c;" horiz-adv-x="0" 
d="M-191 750h-211l-156 162h203l59 -65l57 65h203z" />
    <glyph glyph-name="uni0326" unicode="&#x326;" horiz-adv-x="0" 
d="M-295 -331l40 109q-31 8 -54.5 31.5t-23.5 60.5q0 44 34 71t92 27q57 0 91 -27t34 -71q0 -25 -20 -62l-79 -139h-114z" />
    <glyph glyph-name="uni0327" unicode="&#x327;" horiz-adv-x="0" 
d="M-117 0l-28 -39q57 -7 89.5 -27t32.5 -62q0 -28 -15 -45.5t-41 -27.5t-61 -13.5t-76 -3.5q-53 0 -83.5 2.5t-53.5 6.5v94q17 -3 33.5 -5t36.5 -2q26 0 42.5 4.5t16.5 18.5q0 16 -22.5 20t-49.5 4l53 75h126z" />
    <glyph glyph-name="uni0328" unicode="&#x328;" horiz-adv-x="0" 
d="M-149 -216q-39 0 -71.5 6t-56 18.5t-37 32.5t-13.5 47q0 42 32.5 71.5t91.5 40.5h133q-23 -9 -37 -18t-21 -17t-9 -14.5t-2 -11.5q0 -14 12 -19t31 -5q18 0 29 1.5t25 3.5v-126q-24 -5 -48.5 -7.5t-58.5 -2.5z" />
    <glyph glyph-name="uni0335" unicode="&#x335;" horiz-adv-x="0" 
d="M-679 243v134h626v-134h-626z" />
    <glyph glyph-name="uni0336" unicode="&#x336;" horiz-adv-x="0" 
d="M-1204 243v134h1151v-134h-1151z" />
    <glyph glyph-name="uni0337" unicode="&#x337;" horiz-adv-x="0" 
d="M-585 131l-47 125l570 197l48 -125z" />
    <glyph glyph-name="uni0338" unicode="&#x338;" horiz-adv-x="0" 
d="M-171 524l-76 97l169 125l79 -95zM-901 175l75 -97l-185 -134l-80 92z" />
    <glyph glyph-name="uni0401" unicode="&#x401;" horiz-adv-x="959" 
d="M341 748q-54 0 -89.5 27.5t-35.5 73.5q0 45 35.5 72.5t89.5 27.5q27 0 49.5 -7t39 -20.5t26 -31.5t9.5 -41q0 -46 -35 -73.5t-89 -27.5zM643 748q-54 0 -89.5 27.5t-35.5 73.5q0 45 35.5 72.5t89.5 27.5q27 0 49.5 -7t39 -20.5t26 -31.5t9.5 -41q0 -46 -35 -73.5
t-89 -27.5zM903 692v-167h-634v-97h564v-164h-564v-96h634v-168h-824v692h824z" />
    <glyph glyph-name="uni0410" unicode="&#x410;" horiz-adv-x="1108" 
d="M1090 0h-210l-74 125h-503l-75 -125h-210l439 692h194zM554 525l-154 -242h308z" />
    <glyph glyph-name="uni0411" unicode="&#x411;" horiz-adv-x="1047" 
d="M79 0v692h881v-159h-691v-112h477q62 0 112 -10.5t85 -35t54.5 -64t19.5 -97.5q0 -60 -19.5 -101t-54.5 -66t-85 -36t-112 -11h-667zM746 156q41 0 61.5 13.5t20.5 44.5q0 60 -82 60h-477v-118h477z" />
    <glyph glyph-name="uni0412" unicode="&#x412;" horiz-adv-x="1056" 
d="M718 692q132 0 201 -46.5t69 -143.5q0 -73 -31.5 -107.5t-83.5 -46.5q30 -5 56.5 -15.5t46 -29t30.5 -46t11 -66.5q0 -50 -20 -86t-55.5 -59.5t-85.5 -34.5t-110 -11h-667v692h639zM746 156q38 0 60 13t22 46q0 28 -19.5 43.5t-61.5 15.5h-478v-118h477zM269 420h453
q33 0 55.5 10.5t22.5 45.5q0 32 -22.5 46.5t-59.5 14.5h-449v-117z" />
    <glyph glyph-name="uni0413" unicode="&#x413;" horiz-adv-x="912" 
d="M880 692v-181h-606v-511h-195v692h801z" />
    <glyph glyph-name="uni0414" unicode="&#x414;" horiz-adv-x="1208" 
d="M33 -150v323h123q15 14 30 36.5t27 60t21 94t12 138.5l8 190h784v-519h137v-323h-195v150h-752v-150h-195zM361 161h482v371h-401l-1 -30q-6 -121 -25 -203t-55 -138z" />
    <glyph glyph-name="uni0415" unicode="&#x415;" horiz-adv-x="959" 
d="M903 692v-167h-634v-97h564v-164h-564v-96h634v-168h-824v692h824z" />
    <glyph glyph-name="uni0416" unicode="&#x416;" horiz-adv-x="1355" 
d="M25 0l236 336l-236 356h211l170 -265h174v265h195v-265h174l170 265h211l-236 -356l236 -336h-212l-174 254h-169v-254h-195v254h-169l-174 -254h-212z" />
    <glyph glyph-name="uni0417" unicode="&#x417;" horiz-adv-x="974" 
d="M25 147l182 69q19 -59 128 -59h306q52 0 77 13.5t25 44.5q0 27 -22 42.5t-73 15.5h-358v145h356q45 0 63 15t18 41q0 31 -24 46.5t-69 15.5h-304q-100 0 -120 -60l-181 69q26 71 103.5 112t197.5 41h299q143 0 215.5 -51t72.5 -142q0 -115 -103 -157q119 -43 119 -165
q0 -92 -74.5 -140.5t-221.5 -48.5h-302q-125 0 -204.5 41.5t-105.5 111.5z" />
    <glyph glyph-name="uni0418" unicode="&#x418;" horiz-adv-x="1102" 
d="M845 692h179v-692h-193v428l-574 -428h-178v692h192v-428z" />
    <glyph glyph-name="uni0419" unicode="&#x419;" horiz-adv-x="1102" 
d="M542 750q-71 0 -117 14t-73 37t-37.5 52t-10.5 59h180q0 -22 14.5 -36.5t43.5 -14.5t43.5 14.5t14.5 36.5h180q0 -30 -10.5 -59t-37.5 -52t-73 -37t-117 -14zM845 692h179v-692h-193v428l-574 -428h-178v692h192v-428z" />
    <glyph glyph-name="uni041A" unicode="&#x41a;" horiz-adv-x="1047" 
d="M804 692h217l-231 -356l231 -336h-218l-170 254h-359v-254h-195v692h195v-265h364z" />
    <glyph glyph-name="uni041B" unicode="&#x41b;" horiz-adv-x="1086" 
d="M31 0v173h32q27 0 49 11t39 45t28.5 96.5t17.5 165.5l10 201h801v-692h-195v520h-420l-2 -35q-7 -141 -28.5 -234t-60.5 -149t-97.5 -79t-141.5 -23h-32z" />
    <glyph glyph-name="uni041C" unicode="&#x41c;" horiz-adv-x="1238" 
d="M260 692l359 -366l359 366h181v-692h-192v421l-303 -309h-90l-303 309v-421h-192v692h181z" />
    <glyph glyph-name="uni041D" unicode="&#x41d;" horiz-adv-x="1102" 
d="M829 432v260h195v-692h-195v260h-555v-260h-195v692h195v-260h555z" />
    <glyph glyph-name="uni041E" unicode="&#x41e;" horiz-adv-x="1151" 
d="M731 698q90 0 161 -24.5t120 -70t75 -110.5t26 -146v-1q0 -81 -26 -146.5t-75 -111t-120 -70t-161 -24.5h-311q-90 0 -161 24.5t-120 70t-75 111t-26 146.5v1q0 81 26 146t75 110.5t120 70t161 24.5h311zM731 168q97 0 144.5 48t47.5 130v1q0 81 -47.5 129t-144.5 48
h-311q-97 0 -144.5 -48t-47.5 -129v-1q0 -82 47.5 -130t144.5 -48h311z" />
    <glyph glyph-name="uni041F" unicode="&#x41f;" horiz-adv-x="1102" 
d="M1024 692v-692h-195v520h-555v-520h-195v692h945z" />
    <glyph glyph-name="uni0420" unicode="&#x420;" horiz-adv-x="1017" 
d="M663 692q87 0 148 -18.5t99.5 -52.5t56 -81.5t17.5 -106.5v-1q0 -58 -17.5 -105.5t-56 -81.5t-99.5 -52.5t-148 -18.5h-394v-174h-190v692h584zM269 349h394q72 0 101.5 19.5t29.5 63.5v1q0 44 -29.5 64t-101.5 20h-394v-168z" />
    <glyph glyph-name="uni0421" unicode="&#x421;" horiz-adv-x="1005" 
d="M869 473q-31 30 -72 40.5t-96 10.5h-281q-92 0 -142 -47t-50 -130v-1q1 -84 51 -131t141 -47h281q59 0 99 11.5t69 40.5l112 -138q-25 -24 -53.5 -40.5t-62.5 -27t-74.5 -15.5t-89.5 -5h-281q-90 0 -161 24.5t-120 70t-75 111t-26 146.5v1q0 81 26 146t75 110.5t120 70
t161 24.5h281q94 0 161 -19t119 -69z" />
    <glyph glyph-name="uni0422" unicode="&#x422;" horiz-adv-x="937" 
d="M906 692v-179h-340v-513h-195v513h-340v179h875z" />
    <glyph glyph-name="uni0423" unicode="&#x423;" horiz-adv-x="1035" 
d="M17 692h235l266 -337l265 337h235l-407 -498q-39 -47 -77.5 -83t-82 -61t-94 -37.5t-113.5 -12.5h-58v177h56q51 0 87 9t70 35z" />
    <glyph glyph-name="uni0424" unicode="&#x424;" horiz-adv-x="1243" 
d="M385 622h139v90h195v-90h139q91 0 157.5 -21t110 -58t64.5 -87t21 -109t-21 -109.5t-64.5 -88t-110 -58.5t-157.5 -21h-139v-90h-195v90h-139q-91 0 -157.5 21t-109.5 58.5t-64 88t-21 109.5t21 109t64 87t109.5 58t157.5 21zM385 235h142v222h-142q-51 0 -83.5 -9.5
t-51.5 -25t-26.5 -35t-7.5 -40.5t7.5 -41.5t26.5 -36t51.5 -25t83.5 -9.5zM858 235q51 0 83.5 9.5t51.5 25t26.5 36t7.5 41.5t-7.5 40.5t-26.5 35t-51.5 25t-83.5 9.5h-141v-222h141z" />
    <glyph glyph-name="uni0425" unicode="&#x425;" horiz-adv-x="1022" 
d="M363 345l-337 347h257l227 -242l228 242h257l-338 -347l343 -345h-256l-234 244l-232 -244h-257z" />
    <glyph glyph-name="uni0426" unicode="&#x426;" horiz-adv-x="1171" 
d="M274 692v-519h555v519h195v-519h136v-323h-195v150h-886v692h195z" />
    <glyph glyph-name="uni0427" unicode="&#x427;" horiz-adv-x="1063" 
d="M239 692v-159q0 -70 33.5 -100t101.5 -30h146q99 0 166.5 16t103.5 42v231h195v-692h-195v273q-50 -23 -116.5 -35t-160.5 -12h-146q-76 0 -136 16t-101.5 52.5t-63.5 95t-22 143.5v159h195z" />
    <glyph glyph-name="uni0428" unicode="&#x428;" horiz-adv-x="1284" 
d="M274 692v-519h271v519h195v-519h271v519h195v-692h-1127v692h195z" />
    <glyph glyph-name="uni0429" unicode="&#x429;" horiz-adv-x="1353" 
d="M79 0v692h195v-519h271v519h195v-519h271v519h195v-519h136v-323h-195v150h-1068z" />
    <glyph glyph-name="uni042A" unicode="&#x42a;" horiz-adv-x="1208" 
d="M29 692h400v-264h477q62 0 112 -11t85 -36t54.5 -66t19.5 -101t-19.5 -101t-54.5 -66t-85 -36t-112 -11h-667v516h-210v176zM429 156h477q41 0 61.5 13.5t20.5 44.5q0 59 -82 59h-477v-117z" />
    <glyph glyph-name="uni042B" unicode="&#x42b;" horiz-adv-x="1400" 
d="M269 428h477q62 0 112 -11t85 -36t54.5 -66t19.5 -101t-19.5 -101t-54.5 -66t-85 -36t-112 -11h-667v692h190v-264zM1127 0v692h195v-692h-195zM269 156h477q41 0 61.5 13.5t20.5 44.5q0 59 -82 59h-477v-117z" />
    <glyph glyph-name="uni042C" unicode="&#x42c;" horiz-adv-x="1048" 
d="M269 692v-264h477q62 0 112 -11t85 -36t54.5 -66t19.5 -101t-19.5 -101t-54.5 -66t-85 -36t-112 -11h-667v692h190zM746 156q41 0 61.5 13.5t20.5 44.5q0 59 -82 59h-477v-117h477z" />
    <glyph glyph-name="uni042D" unicode="&#x42d;" horiz-adv-x="1004" 
d="M136 220q29 -29 69 -40.5t99 -11.5h280q67 0 112 25.5t65 72.5h-447v160h447q-20 47 -65 72.5t-112 25.5h-280q-56 0 -97 -10.5t-71 -40.5l-112 137q52 50 118.5 69t161.5 19h280q90 0 161 -24.5t120 -70t75 -110.5t26 -146v-1q0 -81 -26 -146.5t-75 -111t-120 -70
t-161 -24.5h-280q-98 0 -164 20.5t-116 67.5z" />
    <glyph glyph-name="uni042E" unicode="&#x42e;" horiz-adv-x="1485" 
d="M79 692h195v-260h179q24 129 117.5 197.5t245.5 68.5h260q87 0 155.5 -23.5t116.5 -68t73 -110t25 -149.5v-1q0 -84 -25 -149.5t-73 -110.5t-116.5 -68.5t-155.5 -23.5h-260q-75 0 -136.5 17.5t-108 51.5t-76 83.5t-41.5 113.5h-180v-260h-195v692zM632 347v-1
q0 -85 45.5 -131.5t138.5 -46.5h260q93 0 138.5 46.5t45.5 131.5v1q0 85 -45.5 131t-138.5 46h-260q-93 0 -138.5 -46t-45.5 -131z" />
    <glyph glyph-name="uni042F" unicode="&#x42f;" horiz-adv-x="1034" 
d="M956 692v-692h-190v204h-392l-126 -204h-215l155 232q-73 29 -105 84.5t-32 128.5v1q0 54 17 99t54 77.5t96 51t144 18.5h594zM766 366v157h-404q-63 0 -92 -17.5t-29 -59.5v-1q0 -45 29 -62t92 -17h404z" />
    <glyph glyph-name="uni0430" unicode="&#x430;" horiz-adv-x="1108" 
d="M1090 0h-210l-74 125h-503l-75 -125h-210l439 692h194zM554 525l-154 -242h308z" />
    <glyph glyph-name="uni0431" unicode="&#x431;" horiz-adv-x="1047" 
d="M79 0v692h881v-159h-691v-112h477q62 0 112 -10.5t85 -35t54.5 -64t19.5 -97.5q0 -60 -19.5 -101t-54.5 -66t-85 -36t-112 -11h-667zM746 156q41 0 61.5 13.5t20.5 44.5q0 60 -82 60h-477v-118h477z" />
    <glyph glyph-name="uni0432" unicode="&#x432;" horiz-adv-x="1056" 
d="M718 692q132 0 201 -46.5t69 -143.5q0 -73 -31.5 -107.5t-83.5 -46.5q30 -5 56.5 -15.5t46 -29t30.5 -46t11 -66.5q0 -50 -20 -86t-55.5 -59.5t-85.5 -34.5t-110 -11h-667v692h639zM746 156q38 0 60 13t22 46q0 28 -19.5 43.5t-61.5 15.5h-478v-118h477zM269 420h453
q33 0 55.5 10.5t22.5 45.5q0 32 -22.5 46.5t-59.5 14.5h-449v-117z" />
    <glyph glyph-name="uni0433" unicode="&#x433;" horiz-adv-x="912" 
d="M880 692v-181h-606v-511h-195v692h801z" />
    <glyph glyph-name="uni0434" unicode="&#x434;" horiz-adv-x="1208" 
d="M33 -150v323h123q15 14 30 36.5t27 60t21 94t12 138.5l8 190h784v-519h137v-323h-195v150h-752v-150h-195zM361 161h482v371h-401l-1 -30q-6 -121 -25 -203t-55 -138z" />
    <glyph glyph-name="uni0435" unicode="&#x435;" horiz-adv-x="959" 
d="M903 692v-167h-634v-97h564v-164h-564v-96h634v-168h-824v692h824z" />
    <glyph glyph-name="uni0436" unicode="&#x436;" horiz-adv-x="1355" 
d="M25 0l236 336l-236 356h211l170 -265h174v265h195v-265h174l170 265h211l-236 -356l236 -336h-212l-174 254h-169v-254h-195v254h-169l-174 -254h-212z" />
    <glyph glyph-name="uni0437" unicode="&#x437;" horiz-adv-x="974" 
d="M25 147l182 69q19 -59 128 -59h306q52 0 77 13.5t25 44.5q0 27 -22 42.5t-73 15.5h-358v145h356q45 0 63 15t18 41q0 31 -24 46.5t-69 15.5h-304q-100 0 -120 -60l-181 69q26 71 103.5 112t197.5 41h299q143 0 215.5 -51t72.5 -142q0 -115 -103 -157q119 -43 119 -165
q0 -92 -74.5 -140.5t-221.5 -48.5h-302q-125 0 -204.5 41.5t-105.5 111.5z" />
    <glyph glyph-name="uni0438" unicode="&#x438;" horiz-adv-x="1102" 
d="M845 692h179v-692h-193v428l-574 -428h-178v692h192v-428z" />
    <glyph glyph-name="uni0439" unicode="&#x439;" horiz-adv-x="1102" 
d="M542 750q-71 0 -117 14t-73 37t-37.5 52t-10.5 59h180q0 -22 14.5 -36.5t43.5 -14.5t43.5 14.5t14.5 36.5h180q0 -30 -10.5 -59t-37.5 -52t-73 -37t-117 -14zM845 692h179v-692h-193v428l-574 -428h-178v692h192v-428z" />
    <glyph glyph-name="uni043A" unicode="&#x43a;" horiz-adv-x="1047" 
d="M804 692h217l-231 -356l231 -336h-218l-170 254h-359v-254h-195v692h195v-265h364z" />
    <glyph glyph-name="uni043B" unicode="&#x43b;" horiz-adv-x="1086" 
d="M31 0v173h32q27 0 49 11t39 45t28.5 96.5t17.5 165.5l10 201h801v-692h-195v520h-420l-2 -35q-7 -141 -28.5 -234t-60.5 -149t-97.5 -79t-141.5 -23h-32z" />
    <glyph glyph-name="uni043C" unicode="&#x43c;" horiz-adv-x="1238" 
d="M260 692l359 -366l359 366h181v-692h-192v421l-303 -309h-90l-303 309v-421h-192v692h181z" />
    <glyph glyph-name="uni043D" unicode="&#x43d;" horiz-adv-x="1102" 
d="M829 432v260h195v-692h-195v260h-555v-260h-195v692h195v-260h555z" />
    <glyph glyph-name="uni043E" unicode="&#x43e;" horiz-adv-x="1151" 
d="M731 698q90 0 161 -24.5t120 -70t75 -110.5t26 -146v-1q0 -81 -26 -146.5t-75 -111t-120 -70t-161 -24.5h-311q-90 0 -161 24.5t-120 70t-75 111t-26 146.5v1q0 81 26 146t75 110.5t120 70t161 24.5h311zM731 168q97 0 144.5 48t47.5 130v1q0 81 -47.5 129t-144.5 48
h-311q-97 0 -144.5 -48t-47.5 -129v-1q0 -82 47.5 -130t144.5 -48h311z" />
    <glyph glyph-name="uni043F" unicode="&#x43f;" horiz-adv-x="1102" 
d="M1024 692v-692h-195v520h-555v-520h-195v692h945z" />
    <glyph glyph-name="uni0440" unicode="&#x440;" horiz-adv-x="1017" 
d="M663 692q87 0 148 -18.5t99.5 -52.5t56 -81.5t17.5 -106.5v-1q0 -58 -17.5 -105.5t-56 -81.5t-99.5 -52.5t-148 -18.5h-394v-174h-190v692h584zM269 349h394q72 0 101.5 19.5t29.5 63.5v1q0 44 -29.5 64t-101.5 20h-394v-168z" />
    <glyph glyph-name="uni0441" unicode="&#x441;" horiz-adv-x="1005" 
d="M869 473q-31 30 -72 40.5t-96 10.5h-281q-92 0 -142 -47t-50 -130v-1q1 -84 51 -131t141 -47h281q59 0 99 11.5t69 40.5l112 -138q-25 -24 -53.5 -40.5t-62.5 -27t-74.5 -15.5t-89.5 -5h-281q-90 0 -161 24.5t-120 70t-75 111t-26 146.5v1q0 81 26 146t75 110.5t120 70
t161 24.5h281q94 0 161 -19t119 -69z" />
    <glyph glyph-name="uni0442" unicode="&#x442;" horiz-adv-x="937" 
d="M906 692v-179h-340v-513h-195v513h-340v179h875z" />
    <glyph glyph-name="uni0443" unicode="&#x443;" horiz-adv-x="1035" 
d="M17 692h235l266 -337l265 337h235l-407 -498q-39 -47 -77.5 -83t-82 -61t-94 -37.5t-113.5 -12.5h-58v177h56q51 0 87 9t70 35z" />
    <glyph glyph-name="uni0444" unicode="&#x444;" horiz-adv-x="1243" 
d="M385 622h139v90h195v-90h139q91 0 157.5 -21t110 -58t64.5 -87t21 -109t-21 -109.5t-64.5 -88t-110 -58.5t-157.5 -21h-139v-90h-195v90h-139q-91 0 -157.5 21t-109.5 58.5t-64 88t-21 109.5t21 109t64 87t109.5 58t157.5 21zM385 235h142v222h-142q-51 0 -83.5 -9.5
t-51.5 -25t-26.5 -35t-7.5 -40.5t7.5 -41.5t26.5 -36t51.5 -25t83.5 -9.5zM858 235q51 0 83.5 9.5t51.5 25t26.5 36t7.5 41.5t-7.5 40.5t-26.5 35t-51.5 25t-83.5 9.5h-141v-222h141z" />
    <glyph glyph-name="uni0445" unicode="&#x445;" horiz-adv-x="1022" 
d="M363 345l-337 347h257l227 -242l228 242h257l-338 -347l343 -345h-256l-234 244l-232 -244h-257z" />
    <glyph glyph-name="uni0446" unicode="&#x446;" horiz-adv-x="1171" 
d="M274 692v-519h555v519h195v-519h136v-323h-195v150h-886v692h195z" />
    <glyph glyph-name="uni0447" unicode="&#x447;" horiz-adv-x="1063" 
d="M239 692v-159q0 -70 33.5 -100t101.5 -30h146q99 0 166.5 16t103.5 42v231h195v-692h-195v273q-50 -23 -116.5 -35t-160.5 -12h-146q-76 0 -136 16t-101.5 52.5t-63.5 95t-22 143.5v159h195z" />
    <glyph glyph-name="uni0448" unicode="&#x448;" horiz-adv-x="1284" 
d="M274 692v-519h271v519h195v-519h271v519h195v-692h-1127v692h195z" />
    <glyph glyph-name="uni0449" unicode="&#x449;" horiz-adv-x="1353" 
d="M79 0v692h195v-519h271v519h195v-519h271v519h195v-519h136v-323h-195v150h-1068z" />
    <glyph glyph-name="uni044A" unicode="&#x44a;" horiz-adv-x="1208" 
d="M29 692h400v-264h477q62 0 112 -11t85 -36t54.5 -66t19.5 -101t-19.5 -101t-54.5 -66t-85 -36t-112 -11h-667v516h-210v176zM429 156h477q41 0 61.5 13.5t20.5 44.5q0 59 -82 59h-477v-117z" />
    <glyph glyph-name="uni044B" unicode="&#x44b;" horiz-adv-x="1400" 
d="M269 428h477q62 0 112 -11t85 -36t54.5 -66t19.5 -101t-19.5 -101t-54.5 -66t-85 -36t-112 -11h-667v692h190v-264zM1127 0v692h195v-692h-195zM269 156h477q41 0 61.5 13.5t20.5 44.5q0 59 -82 59h-477v-117z" />
    <glyph glyph-name="uni044C" unicode="&#x44c;" horiz-adv-x="1048" 
d="M269 692v-264h477q62 0 112 -11t85 -36t54.5 -66t19.5 -101t-19.5 -101t-54.5 -66t-85 -36t-112 -11h-667v692h190zM746 156q41 0 61.5 13.5t20.5 44.5q0 59 -82 59h-477v-117h477z" />
    <glyph glyph-name="uni044D" unicode="&#x44d;" horiz-adv-x="1004" 
d="M136 220q29 -29 69 -40.5t99 -11.5h280q67 0 112 25.5t65 72.5h-447v160h447q-20 47 -65 72.5t-112 25.5h-280q-56 0 -97 -10.5t-71 -40.5l-112 137q52 50 118.5 69t161.5 19h280q90 0 161 -24.5t120 -70t75 -110.5t26 -146v-1q0 -81 -26 -146.5t-75 -111t-120 -70
t-161 -24.5h-280q-98 0 -164 20.5t-116 67.5z" />
    <glyph glyph-name="uni044E" unicode="&#x44e;" horiz-adv-x="1485" 
d="M79 692h195v-260h179q24 129 117.5 197.5t245.5 68.5h260q87 0 155.5 -23.5t116.5 -68t73 -110t25 -149.5v-1q0 -84 -25 -149.5t-73 -110.5t-116.5 -68.5t-155.5 -23.5h-260q-75 0 -136.5 17.5t-108 51.5t-76 83.5t-41.5 113.5h-180v-260h-195v692zM632 347v-1
q0 -85 45.5 -131.5t138.5 -46.5h260q93 0 138.5 46.5t45.5 131.5v1q0 85 -45.5 131t-138.5 46h-260q-93 0 -138.5 -46t-45.5 -131z" />
    <glyph glyph-name="uni044F" unicode="&#x44f;" horiz-adv-x="1034" 
d="M956 692v-692h-190v204h-392l-126 -204h-215l155 232q-73 29 -105 84.5t-32 128.5v1q0 54 17 99t54 77.5t96 51t144 18.5h594zM766 366v157h-404q-63 0 -92 -17.5t-29 -59.5v-1q0 -45 29 -62t92 -17h404z" />
    <glyph glyph-name="uni0451" unicode="&#x451;" horiz-adv-x="959" 
d="M341 748q-54 0 -89.5 27.5t-35.5 73.5q0 45 35.5 72.5t89.5 27.5q27 0 49.5 -7t39 -20.5t26 -31.5t9.5 -41q0 -46 -35 -73.5t-89 -27.5zM643 748q-54 0 -89.5 27.5t-35.5 73.5q0 45 35.5 72.5t89.5 27.5q27 0 49.5 -7t39 -20.5t26 -31.5t9.5 -41q0 -46 -35 -73.5
t-89 -27.5zM903 692v-167h-634v-97h564v-164h-564v-96h634v-168h-824v692h824z" />
    <glyph glyph-name="Wgrave" unicode="&#x1e80;" horiz-adv-x="1329" 
d="M612 750l-198 162h234l151 -162h-187zM560 568h210l167 -332l152 456h216l-256 -692h-191l-192 391h-2l-193 -391h-190l-257 692h216l153 -456z" />
    <glyph glyph-name="wgrave" unicode="&#x1e81;" horiz-adv-x="1329" 
d="M612 750l-198 162h234l151 -162h-187zM560 568h210l167 -332l152 456h216l-256 -692h-191l-192 391h-2l-193 -391h-190l-257 692h216l153 -456z" />
    <glyph glyph-name="Wacute" unicode="&#x1e82;" horiz-adv-x="1329" 
d="M527 750l150 162h235l-199 -162h-186zM560 568h210l167 -332l152 456h216l-256 -692h-191l-192 391h-2l-193 -391h-190l-257 692h216l153 -456z" />
    <glyph glyph-name="wacute" unicode="&#x1e83;" horiz-adv-x="1329" 
d="M527 750l150 162h235l-199 -162h-186zM560 568h210l167 -332l152 456h216l-256 -692h-191l-192 391h-2l-193 -391h-190l-257 692h216l153 -456z" />
    <glyph glyph-name="Wdieresis" unicode="&#x1e84;" horiz-adv-x="1329" 
d="M515 748q-54 0 -89.5 27.5t-35.5 73.5q0 45 35.5 72.5t89.5 27.5q27 0 49.5 -7t39 -20.5t26 -31.5t9.5 -41q0 -46 -35 -73.5t-89 -27.5zM817 748q-54 0 -89.5 27.5t-35.5 73.5q0 45 35.5 72.5t89.5 27.5q27 0 49.5 -7t39 -20.5t26 -31.5t9.5 -41q0 -46 -35 -73.5
t-89 -27.5zM560 568h210l167 -332l152 456h216l-256 -692h-191l-192 391h-2l-193 -391h-190l-257 692h216l153 -456z" />
    <glyph glyph-name="wdieresis" unicode="&#x1e85;" horiz-adv-x="1329" 
d="M515 748q-54 0 -89.5 27.5t-35.5 73.5q0 45 35.5 72.5t89.5 27.5q27 0 49.5 -7t39 -20.5t26 -31.5t9.5 -41q0 -46 -35 -73.5t-89 -27.5zM817 748q-54 0 -89.5 27.5t-35.5 73.5q0 45 35.5 72.5t89.5 27.5q27 0 49.5 -7t39 -20.5t26 -31.5t9.5 -41q0 -46 -35 -73.5
t-89 -27.5zM560 568h210l167 -332l152 456h216l-256 -692h-191l-192 391h-2l-193 -391h-190l-257 692h216l153 -456z" />
    <glyph glyph-name="Germandbls" unicode="&#x1e9e;" horiz-adv-x="1007" 
d="M705 394q51 -1 99.5 -9.5t86 -30.5t60.5 -60t23 -98q0 -53 -19 -90.5t-54.5 -61t-86.5 -34t-116 -10.5h-315v163h315q38 0 59.5 12t21.5 39q0 25 -21 37.5t-76 12.5h-236v130l219 126h-324q-37 0 -59 -19t-22 -66v-435h-195v435q0 59 15.5 106.5t49 81t86 51.5t125.5 18
h575v-172z" />
    <glyph glyph-name="Ygrave" unicode="&#x1ef2;" horiz-adv-x="998" 
d="M445 750l-198 162h234l151 -162h-187zM499 393l267 299h244l-413 -454v-238h-195v238l-414 454h245z" />
    <glyph glyph-name="ygrave" unicode="&#x1ef3;" horiz-adv-x="998" 
d="M445 750l-198 162h234l151 -162h-187zM499 393l267 299h244l-413 -454v-238h-195v238l-414 454h245z" />
    <glyph glyph-name="uni1EF8" unicode="&#x1ef8;" horiz-adv-x="998" 
d="M262 750q0 27 4 57.5t18 56t42.5 42t76.5 16.5q29 0 50 -5t38 -11t32 -11t31 -5q20 0 27 9.5t7 21.5h150q0 -26 -4.5 -56t-19 -55.5t-42 -42.5t-72.5 -17q-33 0 -56 5t-40 11t-30.5 11t-28.5 5q-21 0 -27.5 -10.5t-6.5 -21.5h-149zM499 393l267 299h244l-413 -454v-238
h-195v238l-414 454h245z" />
    <glyph glyph-name="uni1EF9" unicode="&#x1ef9;" horiz-adv-x="998" 
d="M262 750q0 27 4 57.5t18 56t42.5 42t76.5 16.5q29 0 50 -5t38 -11t32 -11t31 -5q20 0 27 9.5t7 21.5h150q0 -26 -4.5 -56t-19 -55.5t-42 -42.5t-72.5 -17q-33 0 -56 5t-40 11t-30.5 11t-28.5 5q-21 0 -27.5 -10.5t-6.5 -21.5h-149zM499 393l267 299h244l-413 -454v-238
h-195v238l-414 454h245z" />
    <glyph glyph-name="endash" unicode="&#x2013;" horiz-adv-x="889" 
d="M54 254v155h782v-155h-782z" />
    <glyph glyph-name="emdash" unicode="&#x2014;" horiz-adv-x="993" 
d="M54 254v155h886v-155h-886z" />
    <glyph glyph-name="quoteleft" unicode="&#x2018;" horiz-adv-x="371" 
d="M92 563l79 139h114l-40 -109q31 -8 54.5 -31.5t23.5 -60.5q0 -43 -34 -70.5t-92 -27.5q-57 0 -91 27.5t-34 70.5q0 25 20 62z" />
    <glyph glyph-name="quoteright" unicode="&#x2019;" horiz-adv-x="371" 
d="M48 605q0 44 34 71t92 27q57 0 91 -27t34 -71q0 -25 -20 -62l-79 -139h-114l40 109q-31 8 -54.5 31.5t-23.5 60.5z" />
    <glyph glyph-name="quotesinglbase" unicode="&#x201a;" horiz-adv-x="371" 
d="M48 85q0 43 34 70.5t92 27.5q57 0 91 -27.5t34 -70.5q0 -25 -20 -62l-79 -140h-114l40 109q-31 8 -54.5 32t-23.5 61z" />
    <glyph glyph-name="quotedblleft" unicode="&#x201c;" horiz-adv-x="688" 
d="M72 501q0 25 20 62l79 139h114l-40 -109q31 -8 54.5 -31.5t23.5 -60.5q0 -43 -34 -70.5t-92 -27.5q-57 0 -91 27.5t-34 70.5zM410 563l78 139h114l-40 -109q32 -8 55 -31.5t23 -60.5q0 -43 -34 -70.5t-91 -27.5t-91 27.5t-34 70.5q0 13 4.5 27.5t15.5 34.5z" />
    <glyph glyph-name="quotedblright" unicode="&#x201d;" horiz-adv-x="688" 
d="M48 605q0 44 34 71t92 27q57 0 91 -27t34 -71q0 -25 -20 -62l-79 -139h-114l40 109q-31 8 -54.5 31.5t-23.5 60.5zM491 703q57 0 91 -27t34 -71q0 -13 -4.5 -27.5t-15.5 -34.5l-78 -139h-114l40 109q-32 8 -55 31.5t-23 60.5q0 44 34 71t91 27z" />
    <glyph glyph-name="quotedblbase" unicode="&#x201e;" horiz-adv-x="688" 
d="M48 85q0 43 34 70.5t92 27.5q57 0 91 -27.5t34 -70.5q0 -25 -20 -62l-79 -140h-114l40 109q-31 8 -54.5 32t-23.5 61zM491 183q57 0 91 -27.5t34 -70.5q0 -13 -4.5 -27.5t-15.5 -34.5l-78 -140h-114l40 109q-32 8 -55 32t-23 61q0 43 34 70.5t91 27.5z" />
    <glyph glyph-name="dagger" unicode="&#x2020;" horiz-adv-x="699" 
d="M47 533h205v159h195v-159h205v-173h-205v-360h-195v360h-205v173z" />
    <glyph glyph-name="daggerdbl" unicode="&#x2021;" horiz-adv-x="744" 
d="M70 287h205v119h-205v172h205v114h195v-114h205v-172h-205v-119h205v-173h-205v-114h-195v114h-205v173z" />
    <glyph glyph-name="bullet" unicode="&#x2022;" horiz-adv-x="435" 
d="M49 339q0 58 45.5 94.5t122.5 36.5q78 0 123 -36.5t45 -94.5q0 -59 -45 -96t-123 -37q-77 0 -122.5 37t-45.5 96z" />
    <glyph glyph-name="ellipsis" unicode="&#x2026;" horiz-adv-x="1037" 
d="M733 85q0 43 34 70.5t92 27.5q57 0 91 -27.5t34 -70.5q0 -44 -34 -71.5t-91 -27.5q-58 0 -92 27.5t-34 71.5zM519 183q57 0 91 -27.5t34 -70.5q0 -44 -34 -71.5t-91 -27.5q-58 0 -92 27.5t-34 71.5q0 43 34 70.5t92 27.5zM53 85q0 43 34 70.5t92 27.5q57 0 91 -27.5
t34 -70.5q0 -44 -34 -71.5t-91 -27.5q-58 0 -92 27.5t-34 71.5z" />
    <glyph glyph-name="perthousand" unicode="&#x2030;" horiz-adv-x="1851" 
d="M260 696h126q94 0 142 -46t48 -130v-1q0 -84 -48 -130t-142 -46h-126q-94 0 -142 46t-48 130v1q0 84 48 130t142 46zM1465 349h126q94 0 142 -45.5t48 -129.5v-1q0 -84 -48 -130.5t-142 -46.5h-126q-94 0 -142 46.5t-48 130.5v1q0 84 48 129.5t142 45.5zM741 173v1
q0 84 48 129.5t142 45.5h125q94 0 142 -45.5t48 -129.5v-1q0 -84 -48 -130.5t-142 -46.5h-125q-94 0 -142 46.5t-48 130.5zM278 0l559 692h205l-560 -692h-204zM223 520v-1q0 -29 14 -44.5t40 -15.5h92q27 0 41 15.5t14 44.5v1q0 29 -14 44.5t-41 15.5h-92q-26 0 -40 -15.5
t-14 -44.5zM1428 174v-1q0 -29 14 -44.5t40 -15.5h92q27 0 41 15.5t14 44.5v1q0 59 -55 59h-92q-54 0 -54 -59zM893 173q0 -29 14.5 -44.5t40.5 -15.5h91q27 0 41 15.5t14 44.5v1q0 59 -55 59h-91q-55 0 -55 -59v-1z" />
    <glyph glyph-name="guilsinglleft" unicode="&#x2039;" horiz-adv-x="472" 
d="M444 453l-228 -138l228 -139l-88 -117l-332 218v76l332 218z" />
    <glyph glyph-name="guilsinglright" unicode="&#x203a;" horiz-adv-x="472" 
d="M29 453l87 118l333 -218v-76l-333 -218l-87 117l227 139z" />
    <glyph glyph-name="fraction" unicode="&#x2044;" horiz-adv-x="895" 
d="M65 0l559 692h206l-561 -692h-204z" />
    <glyph glyph-name="Euro" unicode="&#x20ac;" horiz-adv-x="1046" 
d="M784 171q51 0 83.5 5.5t55.5 16.5l68 -164q-47 -21 -95 -28t-112 -7h-270q-152 0 -246.5 63t-126.5 176h-83v89h69q-1 6 -1 12v12v1v11.5t1 11.5h-69v90h83q32 113 126.5 175.5t246.5 62.5h270q32 0 59.5 -1.5t52.5 -5.5t48 -10.5t47 -17.5l-68 -163q-23 11 -55.5 16
t-83.5 5h-270q-56 0 -96 -16t-65 -45h412v-90h-448q-1 -5 -1 -11v-12v-1v-12t1 -12h448v-89h-413q51 -62 162 -62h270z" />
    <glyph glyph-name="trademark" unicode="&#x2122;" horiz-adv-x="802" 
d="M481 687l63 -110l62 110h105v-324h-102l4 159l-54 -93h-31l-54 93l4 -159h-102v324h105zM55 575v112h289v-112h-87v-212h-115v212h-87z" />
    <glyph glyph-name="arrowleft" unicode="&#x2190;" horiz-adv-x="1129" 
d="M309 58l-275 274l275 274l111 -106l-99 -92h758v-152h-758l99 -92z" />
    <glyph glyph-name="arrowright" unicode="&#x2192;" horiz-adv-x="1129" 
d="M820 58l-111 106l99 92h-758v152h758l-99 92l111 106l275 -274z" />
    <glyph glyph-name="minus" unicode="&#x2212;" horiz-adv-x="824" 
d="M87 254v155h651v-155h-651z" />
    <glyph glyph-name="approxequal" unicode="&#x2248;" horiz-adv-x="781" 
d="M268 311q37 0 69 -7.5t59.5 -17t51.5 -17t46 -7.5q20 0 31.5 11.5t17.5 38.5l186 -32q-52 -174 -203 -174q-35 0 -70 7.5t-66.5 17t-58 17t-44.5 7.5q-20 0 -30.5 -12t-21.5 -44l-182 37q20 86 74 130.5t141 44.5zM53 381q20 86 74 130.5t141 44.5q37 0 69 -7.5t59.5 -17
t51.5 -17t46 -7.5q20 0 31.5 11.5t17.5 38.5l186 -32q-52 -174 -203 -174q-35 0 -70 7.5t-66.5 17t-58 17t-44.5 7.5q-20 0 -30.5 -12t-21.5 -44z" />
    <glyph glyph-name="notequal" unicode="&#x2260;" horiz-adv-x="836" 
d="M435 514l96 158l143 -83l-45 -75h115v-155h-209l-48 -80h257v-155h-351l-93 -154l-143 84l42 70h-106v155h200l49 80h-249v155h342z" />
    <glyph glyph-name="uni261A" unicode="&#x261a;" horiz-adv-x="1336" 
d="M340 442l143 149l201 -94l156 1v21h416v-385h-416v20l-156 4l-122 -72h-122q21 9 28.5 23.5t7.5 28.5q0 12 -4.5 22.5t-16.5 21.5q6 8 10.5 16.5t4.5 25.5q0 32 -23 49q6 8 10 19.5t4 26.5q0 16 -6 28t-17 23l49 45l-23 23l-59 -54q-10 -9 -21 -13t-21 -4q-16 0 -28 10
q-14 13 -12 31.5t17 33.5zM728 448v-243l112 -2v246zM40 425q0 15 7 24t17.5 14t23 6.5t22.5 2.5l222 14l-15 -16q-17 -18 -22 -35.5t-5 -32.5q0 -17 5 -27l-190 2q-10 0 -21.5 2.5t-21 8t-16 14.5t-6.5 23zM208 317q0 15 11.5 23t26.5 8h70q18 -16 46 -16q26 0 48 14
q5 -5 8.5 -12t3.5 -16q0 -22 -12 -29.5t-26 -7.5h-138q-15 0 -26.5 7.5t-11.5 28.5zM264 224q0 19 11 25.5t24 6.5h98q14 0 24.5 -6.5t10.5 -25.5q0 -20 -10.5 -26.5t-24.5 -6.5h-98q-13 0 -24 6.5t-11 26.5zM339 167h70q13 0 21 -6.5t8 -20.5t-8 -21t-21 -7h-70
q-13 0 -21 7t-8 21t8 20.5t21 6.5zM750 396q0 14 10 24t24 10t24.5 -10t10.5 -24t-10.5 -24.5t-24.5 -10.5t-24 10.5t-10 24.5z" />
    <glyph glyph-name="uni261B" unicode="&#x261b;" horiz-adv-x="1336" 
d="M496 519v-21l156 -1l201 94l143 -149q15 -15 17 -33.5t-12 -31.5q-12 -10 -28 -10q-10 0 -21 4t-21 13l-59 54l-23 -23l49 -45q-11 -11 -17 -23t-6 -28q0 -15 4 -26.5t10 -19.5q-23 -17 -23 -49q0 -17 4.5 -25.5t10.5 -16.5q-12 -11 -16.5 -21.5t-4.5 -22.5
q0 -14 7.5 -28.5t28.5 -23.5h-122l-122 72l-156 -4v-20h-416v385h416zM496 203l112 2v243l-112 1v-246zM1226 472q11 -1 23 -2.5t22.5 -6.5t17.5 -14t7 -24q0 -14 -6.5 -23t-16 -14.5t-21 -8t-21.5 -2.5l-190 -2q5 10 5 27q0 15 -5 32.5t-22 35.5l-15 16zM914 318
q0 9 3.5 16t8.5 12q22 -14 48 -14q28 0 46 16h70q15 0 26.5 -8t11.5 -23q0 -21 -11.5 -28.5t-26.5 -7.5h-138q-14 0 -26 7.5t-12 29.5zM939 256h98q13 0 24 -6.5t11 -25.5q0 -20 -11 -26.5t-24 -6.5h-98q-14 0 -24.5 6.5t-10.5 26.5q0 19 10.5 25.5t24.5 6.5zM898 140
q0 14 8 20.5t21 6.5h70q13 0 21 -6.5t8 -20.5t-8 -21t-21 -7h-70q-13 0 -21 7t-8 21zM552 430q14 0 24 -10t10 -24t-10 -24.5t-24 -10.5t-24.5 10.5t-10.5 24.5t10.5 24t24.5 10z" />
    <glyph glyph-name="uni261C" unicode="&#x261c;" horiz-adv-x="1355" 
d="M39 423q0 35 22.5 52.5t64.5 17.5l250 2l110 102l214 -100l157 1v21h417v-385h-417v20l-151 3l-126 -71h-202q-38 0 -58.5 16.5t-20.5 47.5v7.5t2 10.5q-45 14 -45 64q0 14 3 23q-52 14 -52 68q0 7 1 13.5t3 11.5l-86 4q-42 2 -64 20t-22 51zM365 385q6 -6 16 -6
q13 0 26 11l62 59l35 -34l-47 -43q17 -17 17 -49q0 -11 -2.5 -20.5t-6.5 -17.5q21 -18 21 -53q0 -11 -2.5 -20t-6.5 -17q14 -13 16 -26.5t2 -18.5q0 -10 -2 -15h73l130 76v232l-204 97l-98 -93l-24 -25q-8 -9 -10.5 -18.5t5.5 -18.5zM745 205l112 -2v246l-112 -1v-243z
M119 401l170 -6h16q0 26 21 50l-207 -2q-14 0 -21 -6t-7 -15q0 -18 28 -21zM257 323q0 -13 9 -18t22 -5h105q13 0 22 5t9 18q0 10 -6 17q-18 -11 -39 -11q-25 0 -47 17h-44q-13 0 -22 -4.5t-9 -18.5zM331 212h80q11 0 18 4.5t7 15.5t-7 15.5t-18 4.5h-80q-11 0 -18.5 -4.5
t-7.5 -15.5t7.5 -15.5t18.5 -4.5zM801 430q14 0 25 -10t11 -24t-11 -24.5t-25 -10.5q-13 0 -23.5 10.5t-10.5 24.5t10.5 24t23.5 10zM348 150q0 -15 20 -15h57q20 0 20 15q0 14 -20 14h-57q-20 0 -20 -14z" />
    <glyph glyph-name="uni261E" unicode="&#x261e;" horiz-adv-x="1355" 
d="M497 519v-21l157 -1l215 100l110 -102l249 -2q42 0 64.5 -17.5t22.5 -52.5q0 -66 -85 -71l-86 -4q3 -10 3 -25q0 -54 -52 -68q4 -8 4 -23q0 -50 -45 -64q2 -5 2 -10.5v-7.5q0 -31 -21 -47.5t-58 -16.5h-203l-125 71l-152 -3v-20h-417v385h417zM659 443v-232l130 -76h72
q-1 5 -1 15q0 5 2 18.5t16 26.5q-9 15 -9 37q0 37 21 53q-9 15 -9 38q0 33 16 49l-47 43l35 34l63 -59q13 -11 26 -11q10 0 16 6q8 9 5 18.5t-11 18.5l-24 25l-98 93zM497 449v-246l112 2v243zM1028 445q11 -12 16 -25t5 -25h17l169 6q29 3 29 21q0 9 -7.5 15t-21.5 6z
M930 323q0 -13 9.5 -18t21.5 -5h106q12 0 21.5 5t9.5 18q0 14 -9.5 18.5t-21.5 4.5h-44q-22 -17 -47 -17q-21 0 -39 11q-3 -4 -5 -7.5t-2 -9.5zM944 212h80q11 0 18 4.5t7 15.5t-7 15.5t-18 4.5h-80q-11 0 -18.5 -4.5t-7.5 -15.5t7.5 -15.5t18.5 -4.5zM553 430q14 0 24 -10
t10 -24t-10 -24.5t-24 -10.5t-24.5 10.5t-10.5 24.5t10.5 24t24.5 10zM909 150q0 -15 20 -15h57q20 0 20 15q0 14 -20 14h-57q-20 0 -20 -14z" />
    <glyph glyph-name="uniF8FF" unicode="&#xf8ff;" horiz-adv-x="2307" 
d="M1691 421h99v-65h3q5 30 21.5 50t51.5 20q38 0 60.5 -27t22.5 -87t-26.5 -86.5t-59.5 -26.5q-52 0 -69 43h-3v-110h-100v289zM1141 426q61 0 93.5 -32t32.5 -82q0 -49 -32 -81t-94 -32t-94 31.5t-32 81.5t33 82t93 32zM289 326q26 0 41.5 -6t24.5 -15h2v35q0 25 -23 25
t-23 -29l-90 14q8 37 38 57.5t84 20.5t84 -24t30 -66v-134h-98v22h-3q-5 -8 -22.5 -17.5t-48.5 -9.5q-32 0 -51 17t-19 44q0 29 19.5 47.5t54.5 18.5zM1963 312q0 50 33.5 82t93.5 32q27 0 48.5 -8.5t36.5 -23.5t23.5 -34.5t8.5 -42.5v-9h-150q0 -18 8.5 -32t25.5 -14
q16 0 22 10t8 24l82 -8q-9 -49 -42.5 -69t-73.5 -20q-60 0 -92 31.5t-32 81.5zM756 204v217h97v-65h3q5 38 23.5 54t47.5 16q34 0 53.5 -22t19.5 -66v-134h-100v129q0 27 -19 27q-11 0 -16 -7t-10 -25v-124h-99zM1429 421h100q7 -41 16 -86.5t12 -86.5h2q5 41 13.5 86.5
t16.5 86.5h99l-71 -207q-31 -86 -106 -86h-39v66h65q32 0 47 3t20 9l-1 3h-68q-40 0 -52 39zM1382 510q0 -30 -19 -59.5t-48 -42.5l2 -4q8 5 18 9q8 3 18.5 5.5t21.5 2.5h50v-79h-42v-48q0 -17 18 -17q14 0 24 7v-75q-17 -10 -54 -10q-47 0 -67.5 19.5t-20.5 63.5v228h99z
M573 510q0 -30 -19 -59.5t-48 -42.5l1 -4q8 5 18 9q8 3 18.5 5.5t21.5 2.5h51v-79h-42v-48q0 -17 18 -17q14 0 24 7v-75q-17 -10 -55 -10q-47 0 -67 19.5t-20 63.5v228h99zM100 509h99v-305h-99v305zM636 510h98q0 -33 -23 -59.5t-56 -34.5l2 -3l24 4q11 2 23 3t23 1h8v-217
h-99v306zM1798 332v-72q6 -8 12.5 -10.5t14.5 -2.5q15 0 22.5 13t7.5 44t-5.5 46t-21.5 15q-22 0 -30 -33zM1113 312q0 -28 7.5 -39.5t20.5 -11.5t21 11.5t8 39.5q0 29 -8 40.5t-21 11.5q-14 0 -21 -11.5t-7 -40.5zM335 229q15 0 22 11v51q-5 8 -19 8q-12 0 -19.5 -9
t-7.5 -26t5 -26t19 -9zM2057 320h6q32 0 43.5 6t11.5 18q0 22 -24 22q-17 0 -27 -12.5t-10 -33.5z" />
    <glyph glyph-name="J_acutecomb" horiz-adv-x="921" 
d="M426 750l150 162h235l-199 -162h-186zM860 692v-376q0 -156 -88 -239t-259 -83h-205q-101 0 -175 27.5t-116 87.5l134 130q29 -35 66 -51.5t91 -16.5h205q72 0 112 37t40 108v201h-409v175h604z" />
    <glyph glyph-name="A.ss01" horiz-adv-x="1044" 
d="M795 65l-63 99h-419l-63 -99h-231l383 563h240l384 -563h-231zM400 300h245l-117 183h-11z" />
    <glyph glyph-name="Aacute.ss01" horiz-adv-x="1044" 
d="M769 848l-199 -162h-186l150 162h235zM795 65l-63 99h-419l-63 -99h-231l383 563h240l384 -563h-231zM400 300h245l-117 183h-11z" />
    <glyph glyph-name="Abreve.ss01" horiz-adv-x="1044" 
d="M522 686q-71 0 -117 14t-73 37t-37.5 52t-10.5 59h180q0 -22 14.5 -36.5t43.5 -14.5t43.5 14.5t14.5 36.5h180q0 -30 -10.5 -59t-37.5 -52t-73 -37t-117 -14zM795 65l-63 99h-419l-63 -99h-231l383 563h240l384 -563h-231zM400 300h245l-117 183h-11z" />
    <glyph glyph-name="Acircumflex.ss01" horiz-adv-x="1044" 
d="M523 752l-59 -66h-203l156 162h211l155 -162h-203zM795 65l-63 99h-419l-63 -99h-231l383 563h240l384 -563h-231zM400 300h245l-117 183h-11z" />
    <glyph glyph-name="Adieresis.ss01" horiz-adv-x="1044" 
d="M372 684q-54 0 -89.5 27.5t-35.5 73.5q0 45 35.5 72.5t89.5 27.5q27 0 49.5 -7t39 -20.5t26 -31.5t9.5 -41q0 -46 -35 -73.5t-89 -27.5zM674 684q-54 0 -89.5 27.5t-35.5 73.5q0 45 35.5 72.5t89.5 27.5q27 0 49.5 -7t39 -20.5t26 -31.5t9.5 -41q0 -46 -35 -73.5
t-89 -27.5zM795 65l-63 99h-419l-63 -99h-231l383 563h240l384 -563h-231zM400 300h245l-117 183h-11z" />
    <glyph glyph-name="Agrave.ss01" horiz-adv-x="1044" 
d="M656 686h-187l-198 162h234zM795 65l-63 99h-419l-63 -99h-231l383 563h240l384 -563h-231zM400 300h245l-117 183h-11z" />
    <glyph glyph-name="Amacron.ss01" horiz-adv-x="1044" 
d="M735 835v-135h-426v135h426zM795 65l-63 99h-419l-63 -99h-231l383 563h240l384 -563h-231zM400 300h245l-117 183h-11z" />
    <glyph glyph-name="Aogonek.ss01" horiz-adv-x="1044" 
d="M1000 -20q18 0 29 1.5t25 3.5v-126q-24 -5 -48.5 -7.5t-58.5 -2.5q-39 0 -71.5 6t-56 18.5t-37 32.5t-13.5 47q0 42 32.5 71.5t91.5 40.5h-98l-63 99h-419l-63 -99h-231l383 563h240l384 -563q-23 -9 -37 -18t-21 -17t-9 -14.5t-2 -11.5q0 -14 12 -19t31 -5zM400 300h245
l-117 183h-11z" />
    <glyph glyph-name="Aring.ss01" horiz-adv-x="1044" 
d="M522 686q-85 0 -128 34t-43 88t43 87.5t128 33.5t128 -33.5t43 -87.5t-43 -88t-128 -34zM523 846q-22 0 -34.5 -10.5t-12.5 -27.5q0 -18 12.5 -28.5t34.5 -10.5q21 0 33.5 10.5t12.5 28.5q0 17 -12.5 27.5t-33.5 10.5zM795 65l-63 99h-419l-63 -99h-231l383 563h240
l384 -563h-231zM400 300h245l-117 183h-11z" />
    <glyph glyph-name="Atilde.ss01" horiz-adv-x="1044" 
d="M469 718q-21 0 -27.5 -10.5t-6.5 -21.5h-149q0 27 4 57.5t18 56t42.5 42t76.5 16.5q29 0 50 -5t38 -11t32 -11t31 -5q20 0 27 9.5t7 21.5h150q0 -26 -4.5 -56t-19 -55.5t-42 -42.5t-72.5 -17q-33 0 -56 5t-40 11t-30.5 11t-28.5 5zM795 65l-63 99h-419l-63 -99h-231
l383 563h240l384 -563h-231zM400 300h245l-117 183h-11z" />
    <glyph glyph-name="E.ss01" horiz-adv-x="892" 
d="M841 628v-140h-583v-73h513v-137h-513v-73h583v-140h-774v563h774z" />
    <glyph glyph-name="Eacute.ss01" horiz-adv-x="892" 
d="M316 686l150 162h235l-199 -162h-186zM841 628v-140h-583v-73h513v-137h-513v-73h583v-140h-774v563h774z" />
    <glyph glyph-name="Ecaron.ss01" horiz-adv-x="892" 
d="M560 686h-211l-156 162h203l59 -65l57 65h203zM841 628v-140h-583v-73h513v-137h-513v-73h583v-140h-774v563h774z" />
    <glyph glyph-name="Ecircumflex.ss01" horiz-adv-x="892" 
d="M560 848l155 -162h-203l-57 66l-59 -66h-203l156 162h211zM841 628v-140h-583v-73h513v-137h-513v-73h583v-140h-774v563h774z" />
    <glyph glyph-name="Edieresis.ss01" horiz-adv-x="892" 
d="M304 684q-54 0 -89.5 27.5t-35.5 73.5q0 45 35.5 72.5t89.5 27.5q27 0 49.5 -7t39 -20.5t26 -31.5t9.5 -41q0 -46 -35 -73.5t-89 -27.5zM606 684q-54 0 -89.5 27.5t-35.5 73.5q0 45 35.5 72.5t89.5 27.5q27 0 49.5 -7t39 -20.5t26 -31.5t9.5 -41q0 -46 -35 -73.5
t-89 -27.5zM841 628v-140h-583v-73h513v-137h-513v-73h583v-140h-774v563h774z" />
    <glyph glyph-name="Edotaccent.ss01" horiz-adv-x="892" 
d="M455 686q-58 0 -92 27.5t-34 71.5q0 43 34 70.5t92 27.5q57 0 91 -27.5t34 -70.5q0 -44 -34 -71.5t-91 -27.5zM841 628v-140h-583v-73h513v-137h-513v-73h583v-140h-774v563h774z" />
    <glyph glyph-name="Egrave.ss01" horiz-adv-x="892" 
d="M401 686l-198 162h234l151 -162h-187zM841 628v-140h-583v-73h513v-137h-513v-73h583v-140h-774v563h774z" />
    <glyph glyph-name="Emacron.ss01" horiz-adv-x="892" 
d="M241 700v135h426v-135h-426zM841 628v-140h-583v-73h513v-137h-513v-73h583v-140h-774v563h774z" />
    <glyph glyph-name="Eogonek.ss01" horiz-adv-x="892" 
d="M815 -20q18 0 29 1.5t25 3.5v-126q-24 -5 -48.5 -7.5t-58.5 -2.5q-39 0 -71.5 6t-56 18.5t-37 32.5t-13.5 47q0 42 32.5 71.5t91.5 40.5h-641v563h774v-140h-583v-73h513v-137h-513v-73h583v-140q-23 -9 -37 -18t-21 -17t-9 -14.5t-2 -11.5q0 -14 12 -19t31 -5z" />
    <glyph glyph-name="I.ss01" horiz-adv-x="328" 
d="M67 65v563h195v-563h-195z" />
    <glyph glyph-name="Iacute.ss01" horiz-adv-x="328" 
d="M26 686l150 162h235l-199 -162h-186zM67 65v563h195v-563h-195z" />
    <glyph glyph-name="Icircumflex.ss01" horiz-adv-x="328" 
d="M270 848l145 -162h-203l-47 66l-49 -66h-203l146 162h211zM67 65v563h195v-563h-195z" />
    <glyph glyph-name="Idieresis.ss01" horiz-adv-x="328" 
d="M19 685q-53 0 -87 27.5t-34 72.5t34 72.5t87 27.5t87 -27.5t34 -72.5t-34 -72.5t-87 -27.5zM311 685q-54 0 -88 27.5t-34 72.5t34 72.5t88 27.5q51 0 85.5 -27.5t34.5 -72.5t-34.5 -72.5t-85.5 -27.5zM67 65v563h195v-563h-195z" />
    <glyph glyph-name="Idotaccent.ss01" horiz-adv-x="328" 
d="M165 686q-58 0 -92 27.5t-34 71.5q0 43 34 70.5t92 27.5q57 0 91 -27.5t34 -70.5q0 -44 -34 -71.5t-91 -27.5zM67 65v563h195v-563h-195z" />
    <glyph glyph-name="Igrave.ss01" horiz-adv-x="328" 
d="M111 686l-199 162h235l151 -162h-187zM67 65v563h195v-563h-195z" />
    <glyph glyph-name="Imacron.ss01" horiz-adv-x="328" 
d="M-30 700v135h387v-135h-387zM67 65v563h195v-563h-195z" />
    <glyph glyph-name="Iogonek.ss01" horiz-adv-x="328" 
d="M236 -20q17 0 28.5 1.5t25.5 3.5v-126q-25 -5 -49 -7.5t-58 -2.5q-39 0 -71.5 6t-56 18.5t-37 32.5t-13.5 47q0 42 32 71.5t91 40.5h-61v563h195v-563q-23 -8 -37 -17t-21.5 -17t-9.5 -15t-2 -12q0 -14 12 -19t32 -5z" />
    <glyph glyph-name="Itilde.ss01" horiz-adv-x="328" 
d="M-54 686q0 27 3.5 57.5t17 56t39.5 42t71 16.5q27 0 47 -5t35.5 -11t29.5 -11t29 -5q18 0 24.5 9.5t6.5 21.5h139q0 -26 -4 -56t-17.5 -55.5t-39 -42.5t-67.5 -17q-31 0 -52 5t-37 11t-28.5 11t-26.5 5q-19 0 -25 -10.5t-6 -21.5h-139zM67 65v563h195v-563h-195z" />
    <glyph glyph-name="O.ss01" horiz-adv-x="1048" 
d="M693 632q155 0 237.5 -76.5t82.5 -209.5v-1q0 -66 -21 -119t-61.5 -89.5t-100.5 -56.5t-137 -20h-338q-77 0 -136.5 20t-100.5 56.5t-62 89.5t-21 119v1q0 66 21 119t62 90t100.5 57t136.5 20h338zM690 222q70 0 106 33t36 90v1q0 57 -36 90.5t-106 33.5h-332
q-69 0 -105 -33.5t-36 -90.5v-1q0 -57 36 -90t105 -33h332z" />
    <glyph glyph-name="Oacute.ss01" horiz-adv-x="1048" 
d="M386 686l150 162h235l-199 -162h-186zM693 632q155 0 237.5 -76.5t82.5 -209.5v-1q0 -66 -21 -119t-61.5 -89.5t-100.5 -56.5t-137 -20h-338q-77 0 -136.5 20t-100.5 56.5t-62 89.5t-21 119v1q0 66 21 119t62 90t100.5 57t136.5 20h338zM690 222q70 0 106 33t36 90v1
q0 57 -36 90.5t-106 33.5h-332q-69 0 -105 -33.5t-36 -90.5v-1q0 -57 36 -90t105 -33h332z" />
    <glyph glyph-name="Ocircumflex.ss01" horiz-adv-x="1048" 
d="M630 848l155 -162h-203l-57 66l-59 -66h-203l156 162h211zM693 632q155 0 237.5 -76.5t82.5 -209.5v-1q0 -66 -21 -119t-61.5 -89.5t-100.5 -56.5t-137 -20h-338q-77 0 -136.5 20t-100.5 56.5t-62 89.5t-21 119v1q0 66 21 119t62 90t100.5 57t136.5 20h338zM690 222
q70 0 106 33t36 90v1q0 57 -36 90.5t-106 33.5h-332q-69 0 -105 -33.5t-36 -90.5v-1q0 -57 36 -90t105 -33h332z" />
    <glyph glyph-name="Odieresis.ss01" horiz-adv-x="1048" 
d="M374 684q-54 0 -89.5 27.5t-35.5 73.5q0 45 35.5 72.5t89.5 27.5q27 0 49.5 -7t39 -20.5t26 -31.5t9.5 -41q0 -46 -35 -73.5t-89 -27.5zM676 684q-54 0 -89.5 27.5t-35.5 73.5q0 45 35.5 72.5t89.5 27.5q27 0 49.5 -7t39 -20.5t26 -31.5t9.5 -41q0 -46 -35 -73.5
t-89 -27.5zM693 632q155 0 237.5 -76.5t82.5 -209.5v-1q0 -66 -21 -119t-61.5 -89.5t-100.5 -56.5t-137 -20h-338q-77 0 -136.5 20t-100.5 56.5t-62 89.5t-21 119v1q0 66 21 119t62 90t100.5 57t136.5 20h338zM690 222q70 0 106 33t36 90v1q0 57 -36 90.5t-106 33.5h-332
q-69 0 -105 -33.5t-36 -90.5v-1q0 -57 36 -90t105 -33h332z" />
    <glyph glyph-name="Ograve.ss01" horiz-adv-x="1048" 
d="M471 686l-198 162h234l151 -162h-187zM693 632q155 0 237.5 -76.5t82.5 -209.5v-1q0 -66 -21 -119t-61.5 -89.5t-100.5 -56.5t-137 -20h-338q-77 0 -136.5 20t-100.5 56.5t-62 89.5t-21 119v1q0 66 21 119t62 90t100.5 57t136.5 20h338zM690 222q70 0 106 33t36 90v1
q0 57 -36 90.5t-106 33.5h-332q-69 0 -105 -33.5t-36 -90.5v-1q0 -57 36 -90t105 -33h332z" />
    <glyph glyph-name="Ohungarumlaut.ss01" horiz-adv-x="1048" 
d="M283 686l105 162h212l-146 -162h-171zM567 686l106 162h212l-146 -162h-172zM693 632q155 0 237.5 -76.5t82.5 -209.5v-1q0 -66 -21 -119t-61.5 -89.5t-100.5 -56.5t-137 -20h-338q-77 0 -136.5 20t-100.5 56.5t-62 89.5t-21 119v1q0 66 21 119t62 90t100.5 57t136.5 20
h338zM690 222q70 0 106 33t36 90v1q0 57 -36 90.5t-106 33.5h-332q-69 0 -105 -33.5t-36 -90.5v-1q0 -57 36 -90t105 -33h332z" />
    <glyph glyph-name="Omacron.ss01" horiz-adv-x="1048" 
d="M311 700v135h426v-135h-426zM693 632q155 0 237.5 -76.5t82.5 -209.5v-1q0 -66 -21 -119t-61.5 -89.5t-100.5 -56.5t-137 -20h-338q-77 0 -136.5 20t-100.5 56.5t-62 89.5t-21 119v1q0 66 21 119t62 90t100.5 57t136.5 20h338zM690 222q70 0 106 33t36 90v1
q0 57 -36 90.5t-106 33.5h-332q-69 0 -105 -33.5t-36 -90.5v-1q0 -57 36 -90t105 -33h332z" />
    <glyph glyph-name="uni01EA.ss01" horiz-adv-x="1048" 
d="M693 632q155 0 237.5 -76.5t82.5 -209.5v-1q0 -107 -54 -178t-158 -95q-23 -9 -36.5 -18t-20.5 -17t-9 -14.5t-2 -11.5q0 -14 12 -19t31 -5q18 0 29 1.5t25 3.5v-126q-24 -5 -48.5 -7.5t-58.5 -2.5q-39 0 -71.5 6t-56 18.5t-37 32.5t-13.5 47q0 34 21 59.5t60 40.5h-271
q-77 0 -136.5 20t-100.5 56.5t-62 89.5t-21 119v1q0 66 21 119t62 90t100.5 57t136.5 20h338zM832 346q0 57 -36 90.5t-106 33.5h-332q-69 0 -105 -33.5t-36 -90.5v-1q0 -57 36 -90t105 -33h332q70 0 106 33t36 90v1z" />
    <glyph glyph-name="Oslash.ss01" horiz-adv-x="1048" 
d="M935 551q78 -76 78 -205v-1q0 -66 -21 -119t-61.5 -89.5t-100.5 -56.5t-137 -20h-338q-66 0 -120 15l-129 -92l-79 92l89 64q-81 75 -81 206v1q0 66 21 119t62 90t100.5 57t136.5 20h338q35 0 66 -4t58 -12l126 93l78 -95zM832 346q0 57 -36 90.5t-106 33.5h-332
q-69 0 -105 -33.5t-36 -90.5v-1q0 -57 36 -90t105 -33h332q70 0 106 33t36 90v1z" />
    <glyph glyph-name="Oslashacute.ss01" horiz-adv-x="1048" 
d="M771 848l-199 -162h-186l150 162h235zM935 551q78 -76 78 -205v-1q0 -66 -21 -119t-61.5 -89.5t-100.5 -56.5t-137 -20h-338q-66 0 -120 15l-129 -92l-79 92l89 64q-81 75 -81 206v1q0 66 21 119t62 90t100.5 57t136.5 20h338q35 0 66 -4t58 -12l126 93l78 -95zM832 346
q0 57 -36 90.5t-106 33.5h-332q-69 0 -105 -33.5t-36 -90.5v-1q0 -57 36 -90t105 -33h332q70 0 106 33t36 90v1z" />
    <glyph glyph-name="Otilde.ss01" horiz-adv-x="1048" 
d="M288 686q0 27 4 57.5t18 56t42.5 42t76.5 16.5q29 0 50 -5t38 -11t32 -11t31 -5q20 0 27 9.5t7 21.5h150q0 -26 -4.5 -56t-19 -55.5t-42 -42.5t-72.5 -17q-33 0 -56 5t-40 11t-30.5 11t-28.5 5q-21 0 -27.5 -10.5t-6.5 -21.5h-149zM693 632q155 0 237.5 -76.5
t82.5 -209.5v-1q0 -66 -21 -119t-61.5 -89.5t-100.5 -56.5t-137 -20h-338q-77 0 -136.5 20t-100.5 56.5t-62 89.5t-21 119v1q0 66 21 119t62 90t100.5 57t136.5 20h338zM690 222q70 0 106 33t36 90v1q0 57 -36 90.5t-106 33.5h-332q-69 0 -105 -33.5t-36 -90.5v-1
q0 -57 36 -90t105 -33h332z" />
    <glyph glyph-name="U.ss01" 
d="M779 628h195v-284q0 -144 -82 -214t-228 -70h-302q-73 0 -130.5 17.5t-97.5 52.5t-61 88.5t-21 125.5v284h195v-284q0 -63 30.5 -89t84.5 -26h302q54 0 84.5 26t30.5 89v284z" />
    <glyph glyph-name="Uacute.ss01" 
d="M375 686l150 162h235l-199 -162h-186zM779 628h195v-284q0 -144 -82 -214t-228 -70h-302q-73 0 -130.5 17.5t-97.5 52.5t-61 88.5t-21 125.5v284h195v-284q0 -63 30.5 -89t84.5 -26h302q54 0 84.5 26t30.5 89v284z" />
    <glyph glyph-name="Ucircumflex.ss01" 
d="M619 848l155 -162h-203l-57 66l-59 -66h-203l156 162h211zM779 628h195v-284q0 -144 -82 -214t-228 -70h-302q-73 0 -130.5 17.5t-97.5 52.5t-61 88.5t-21 125.5v284h195v-284q0 -63 30.5 -89t84.5 -26h302q54 0 84.5 26t30.5 89v284z" />
    <glyph glyph-name="Udieresis.ss01" 
d="M363 684q-54 0 -89.5 27.5t-35.5 73.5q0 45 35.5 72.5t89.5 27.5q27 0 49.5 -7t39 -20.5t26 -31.5t9.5 -41q0 -46 -35 -73.5t-89 -27.5zM665 684q-54 0 -89.5 27.5t-35.5 73.5q0 45 35.5 72.5t89.5 27.5q27 0 49.5 -7t39 -20.5t26 -31.5t9.5 -41q0 -46 -35 -73.5
t-89 -27.5zM779 628h195v-284q0 -144 -82 -214t-228 -70h-302q-73 0 -130.5 17.5t-97.5 52.5t-61 88.5t-21 125.5v284h195v-284q0 -63 30.5 -89t84.5 -26h302q54 0 84.5 26t30.5 89v284z" />
    <glyph glyph-name="Ugrave.ss01" 
d="M460 686l-198 162h234l151 -162h-187zM779 628h195v-284q0 -144 -82 -214t-228 -70h-302q-73 0 -130.5 17.5t-97.5 52.5t-61 88.5t-21 125.5v284h195v-284q0 -63 30.5 -89t84.5 -26h302q54 0 84.5 26t30.5 89v284z" />
    <glyph glyph-name="Uhungarumlaut.ss01" 
d="M272 686l105 162h212l-146 -162h-171zM556 686l106 162h212l-146 -162h-172zM779 628h195v-284q0 -144 -82 -214t-228 -70h-302q-73 0 -130.5 17.5t-97.5 52.5t-61 88.5t-21 125.5v284h195v-284q0 -63 30.5 -89t84.5 -26h302q54 0 84.5 26t30.5 89v284z" />
    <glyph glyph-name="Umacron.ss01" 
d="M300 700v135h426v-135h-426zM779 628h195v-284q0 -144 -82 -214t-228 -70h-302q-73 0 -130.5 17.5t-97.5 52.5t-61 88.5t-21 125.5v284h195v-284q0 -63 30.5 -89t84.5 -26h302q54 0 84.5 26t30.5 89v284z" />
    <glyph glyph-name="Uogonek.ss01" 
d="M779 628h195v-284q0 -116 -53 -183t-150 -90q-22 -9 -35.5 -17.5t-20.5 -16.5t-9 -14.5t-2 -11.5q0 -14 12 -19t31 -5q18 0 29 1.5t25 3.5v-126q-24 -5 -48.5 -7.5t-58.5 -2.5q-39 0 -71.5 6t-56 18.5t-37 32.5t-13.5 47q0 34 21 59.5t60 40.5h-235q-73 0 -130.5 17.5
t-97.5 52.5t-61 88.5t-21 125.5v284h195v-284q0 -63 30.5 -89t84.5 -26h302q54 0 84.5 26t30.5 89v284z" />
    <glyph glyph-name="Uring.ss01" 
d="M513 686q-85 0 -128 34t-43 88t43 87.5t128 33.5t128 -33.5t43 -87.5t-43 -88t-128 -34zM514 769q21 0 33.5 10.5t12.5 28.5q0 17 -12.5 27.5t-33.5 10.5q-22 0 -34.5 -10.5t-12.5 -27.5q0 -18 12.5 -28.5t34.5 -10.5zM779 628h195v-284q0 -144 -82 -214t-228 -70h-302
q-73 0 -130.5 17.5t-97.5 52.5t-61 88.5t-21 125.5v284h195v-284q0 -63 30.5 -89t84.5 -26h302q54 0 84.5 26t30.5 89v284z" />
    <glyph glyph-name="Utilde.ss01" 
d="M277 686q0 27 4 57.5t18 56t42.5 42t76.5 16.5q29 0 50 -5t38 -11t32 -11t31 -5q20 0 27 9.5t7 21.5h150q0 -26 -4.5 -56t-19 -55.5t-42 -42.5t-72.5 -17q-33 0 -56 5t-40 11t-30.5 11t-28.5 5q-21 0 -27.5 -10.5t-6.5 -21.5h-149zM779 628h195v-284q0 -144 -82 -214
t-228 -70h-302q-73 0 -130.5 17.5t-97.5 52.5t-61 88.5t-21 125.5v284h195v-284q0 -63 30.5 -89t84.5 -26h302q54 0 84.5 26t30.5 89v284z" />
    <glyph glyph-name="A.ss02" horiz-adv-x="1057" 
d="M641 698q168 0 261.5 -83t93.5 -254v-361h-192v144h-551v-144h-192v361q0 171 93.5 254t261.5 83h225zM253 302h551v59q0 87 -45 125t-118 38h-225q-37 0 -67 -9t-51.5 -29t-33 -50.5t-11.5 -74.5v-59z" />
    <glyph glyph-name="Aacute.ss02" horiz-adv-x="1057" 
d="M398 750l150 162h235l-199 -162h-186zM641 698q168 0 261.5 -83t93.5 -254v-361h-192v144h-551v-144h-192v361q0 171 93.5 254t261.5 83h225zM253 302h551v59q0 87 -45 125t-118 38h-225q-37 0 -67 -9t-51.5 -29t-33 -50.5t-11.5 -74.5v-59z" />
    <glyph glyph-name="Abreve.ss02" horiz-adv-x="1057" 
d="M536 750q-71 0 -117 14t-73 37t-37.5 52t-10.5 59h180q0 -22 14.5 -36.5t43.5 -14.5t43.5 14.5t14.5 36.5h180q0 -30 -10.5 -59t-37.5 -52t-73 -37t-117 -14zM641 698q168 0 261.5 -83t93.5 -254v-361h-192v144h-551v-144h-192v361q0 171 93.5 254t261.5 83h225zM253 302
h551v59q0 87 -45 125t-118 38h-225q-37 0 -67 -9t-51.5 -29t-33 -50.5t-11.5 -74.5v-59z" />
    <glyph glyph-name="Acircumflex.ss02" horiz-adv-x="1057" 
d="M642 912l155 -162h-203l-57 66l-59 -66h-203l156 162h211zM641 698q168 0 261.5 -83t93.5 -254v-361h-192v144h-551v-144h-192v361q0 171 93.5 254t261.5 83h225zM253 302h551v59q0 87 -45 125t-118 38h-225q-37 0 -67 -9t-51.5 -29t-33 -50.5t-11.5 -74.5v-59z" />
    <glyph glyph-name="Adieresis.ss02" horiz-adv-x="1057" 
d="M386 748q-54 0 -89.5 27.5t-35.5 73.5q0 45 35.5 72.5t89.5 27.5q27 0 49.5 -7t39 -20.5t26 -31.5t9.5 -41q0 -46 -35 -73.5t-89 -27.5zM688 748q-54 0 -89.5 27.5t-35.5 73.5q0 45 35.5 72.5t89.5 27.5q27 0 49.5 -7t39 -20.5t26 -31.5t9.5 -41q0 -46 -35 -73.5
t-89 -27.5zM641 698q168 0 261.5 -83t93.5 -254v-361h-192v144h-551v-144h-192v361q0 171 93.5 254t261.5 83h225zM253 302h551v59q0 87 -45 125t-118 38h-225q-37 0 -67 -9t-51.5 -29t-33 -50.5t-11.5 -74.5v-59z" />
    <glyph glyph-name="Agrave.ss02" horiz-adv-x="1057" 
d="M483 750l-198 162h234l151 -162h-187zM641 698q168 0 261.5 -83t93.5 -254v-361h-192v144h-551v-144h-192v361q0 171 93.5 254t261.5 83h225zM253 302h551v59q0 87 -45 125t-118 38h-225q-37 0 -67 -9t-51.5 -29t-33 -50.5t-11.5 -74.5v-59z" />
    <glyph glyph-name="Amacron.ss02" horiz-adv-x="1057" 
d="M323 764v135h426v-135h-426zM641 698q168 0 261.5 -83t93.5 -254v-361h-192v144h-551v-144h-192v361q0 171 93.5 254t261.5 83h225zM253 302h551v59q0 87 -45 125t-118 38h-225q-37 0 -67 -9t-51.5 -29t-33 -50.5t-11.5 -74.5v-59z" />
    <glyph glyph-name="Aogonek.ss02" horiz-adv-x="1057" 
d="M970 -85q18 0 29 1.5t25 3.5v-126q-24 -5 -48.5 -7.5t-58.5 -2.5q-39 0 -71.5 6t-56 18.5t-37 32.5t-13.5 47q0 42 32.5 71.5t91.5 40.5h-59v144h-551v-144h-192v361q0 171 93.5 254t261.5 83h225q168 0 261.5 -83t93.5 -254v-361q-23 -9 -37 -18t-21 -17t-9 -14.5
t-2 -11.5q0 -14 12 -19t31 -5zM804 302v59q0 87 -45 125t-118 38h-225q-37 0 -67 -9t-51.5 -29t-33 -50.5t-11.5 -74.5v-59h551z" />
    <glyph glyph-name="Aring.ss02" horiz-adv-x="1057" 
d="M536 750q-85 0 -128 34t-43 88t43 87.5t128 33.5t128 -33.5t43 -87.5t-43 -88t-128 -34zM537 833q21 0 33.5 10.5t12.5 28.5q0 17 -12.5 27.5t-33.5 10.5q-22 0 -34.5 -10.5t-12.5 -27.5q0 -18 12.5 -28.5t34.5 -10.5zM641 698q168 0 261.5 -83t93.5 -254v-361h-192v144
h-551v-144h-192v361q0 171 93.5 254t261.5 83h225zM253 302h551v59q0 87 -45 125t-118 38h-225q-37 0 -67 -9t-51.5 -29t-33 -50.5t-11.5 -74.5v-59z" />
    <glyph glyph-name="Atilde.ss02" horiz-adv-x="1057" 
d="M300 750q0 27 4 57.5t18 56t42.5 42t76.5 16.5q29 0 50 -5t38 -11t32 -11t31 -5q20 0 27 9.5t7 21.5h150q0 -26 -4.5 -56t-19 -55.5t-42 -42.5t-72.5 -17q-33 0 -56 5t-40 11t-30.5 11t-28.5 5q-21 0 -27.5 -10.5t-6.5 -21.5h-149zM641 698q168 0 261.5 -83t93.5 -254
v-361h-192v144h-551v-144h-192v361q0 171 93.5 254t261.5 83h225zM253 302h551v59q0 87 -45 125t-118 38h-225q-37 0 -67 -9t-51.5 -29t-33 -50.5t-11.5 -74.5v-59z" />
    <glyph glyph-name="G.ss02" horiz-adv-x="1078" 
d="M886 473q-30 30 -71.5 40.5t-101.5 10.5h-288q-96 0 -146.5 -46t-50.5 -131v-1q0 -85 49 -131.5t141 -46.5h271q31 0 58.5 3t48 10.5t32.5 19t12 28.5v4h-193v143h395v-75q0 -91 -28.5 -150.5t-76.5 -94t-112 -48.5t-136 -14h-271q-90 0 -161 24.5t-119.5 70t-74 111
t-25.5 146.5v1q0 81 26 146t75.5 110.5t121.5 70t164 24.5h288q49 0 90 -4.5t75.5 -15t64 -27t55.5 -41.5z" />
    <glyph glyph-name="Gbreve.ss02" horiz-adv-x="1078" 
d="M573 750q-71 0 -117 14t-73 37t-37.5 52t-10.5 59h180q0 -22 14.5 -36.5t43.5 -14.5t43.5 14.5t14.5 36.5h180q0 -30 -10.5 -59t-37.5 -52t-73 -37t-117 -14zM886 473q-30 30 -71.5 40.5t-101.5 10.5h-288q-96 0 -146.5 -46t-50.5 -131v-1q0 -85 49 -131.5t141 -46.5h271
q31 0 58.5 3t48 10.5t32.5 19t12 28.5v4h-193v143h395v-75q0 -91 -28.5 -150.5t-76.5 -94t-112 -48.5t-136 -14h-271q-90 0 -161 24.5t-119.5 70t-74 111t-25.5 146.5v1q0 81 26 146t75.5 110.5t121.5 70t164 24.5h288q49 0 90 -4.5t75.5 -15t64 -27t55.5 -41.5z" />
    <glyph glyph-name="uni0122.ss02" horiz-adv-x="1078" 
d="M886 473q-30 30 -71.5 40.5t-101.5 10.5h-288q-96 0 -146.5 -46t-50.5 -131v-1q0 -85 49 -131.5t141 -46.5h271q31 0 58.5 3t48 10.5t32.5 19t12 28.5v4h-193v143h395v-75q0 -91 -28.5 -150.5t-76.5 -94t-112 -48.5t-136 -14h-271q-90 0 -161 24.5t-119.5 70t-74 111
t-25.5 146.5v1q0 81 26 146t75.5 110.5t121.5 70t164 24.5h288q49 0 90 -4.5t75.5 -15t64 -27t55.5 -41.5zM482 -331l40 109q-31 8 -54.5 31.5t-23.5 60.5q0 44 34 71t92 27q57 0 91 -27t34 -71q0 -25 -20 -62l-79 -139h-114z" />
    <glyph glyph-name="Gdotaccent.ss02" horiz-adv-x="1078" 
d="M574 750q-58 0 -92 27.5t-34 71.5q0 43 34 70.5t92 27.5q57 0 91 -27.5t34 -70.5q0 -44 -34 -71.5t-91 -27.5zM886 473q-30 30 -71.5 40.5t-101.5 10.5h-288q-96 0 -146.5 -46t-50.5 -131v-1q0 -85 49 -131.5t141 -46.5h271q31 0 58.5 3t48 10.5t32.5 19t12 28.5v4h-193
v143h395v-75q0 -91 -28.5 -150.5t-76.5 -94t-112 -48.5t-136 -14h-271q-90 0 -161 24.5t-119.5 70t-74 111t-25.5 146.5v1q0 81 26 146t75.5 110.5t121.5 70t164 24.5h288q49 0 90 -4.5t75.5 -15t64 -27t55.5 -41.5z" />
    <glyph glyph-name="N.ss02" horiz-adv-x="1103" 
d="M830 692h194v-705h-45l-708 393l2 -380h-194v692h45l708 -391z" />
    <glyph glyph-name="Nacute.ss02" horiz-adv-x="1103" 
d="M798 912l-199 -162h-186l150 162h235zM830 692h194v-705h-45l-708 393l2 -380h-194v692h45l708 -391z" />
    <glyph glyph-name="Ncaron.ss02" horiz-adv-x="1103" 
d="M657 750h-211l-156 162h203l59 -65l57 65h203zM830 692h194v-705h-45l-708 393l2 -380h-194v692h45l708 -391z" />
    <glyph glyph-name="uni0145.ss02" horiz-adv-x="1103" 
d="M830 692h194v-705h-45l-708 393l2 -380h-194v692h45l708 -391zM568 -32q57 0 91 -27t34 -71q0 -25 -20 -62l-79 -139h-114l40 109q-31 8 -54.5 31.5t-23.5 60.5q0 44 34 71t92 27z" />
    <glyph glyph-name="Ntilde.ss02" horiz-adv-x="1103" 
d="M498 782q-21 0 -27.5 -10.5t-6.5 -21.5h-149q0 27 4 57.5t18 56t42.5 42t76.5 16.5q29 0 50 -5t38 -11t32 -11t31 -5q20 0 27 9.5t7 21.5h150q0 -26 -4.5 -56t-19 -55.5t-42 -42.5t-72.5 -17q-33 0 -56 5t-40 11t-30.5 11t-28.5 5zM830 692h194v-705h-45l-708 393l2 -380
h-194v692h45l708 -391z" />
    <glyph glyph-name="R.ss02" horiz-adv-x="1036" 
d="M984 448q0 -54 -24 -94.5t-68 -68.5q42 -27 64.5 -66.5t22.5 -91.5v-127h-190v127q0 42 -27 59.5t-90 17.5h-403v-204h-190v692h593q85 0 144.5 -18.5t96.5 -50.5t54 -76.5t17 -97.5v-1zM794 446q0 42 -29 59.5t-93 17.5h-403v-157h403q64 0 93 17t29 62v1z" />
    <glyph glyph-name="Racute.ss02" horiz-adv-x="1036" 
d="M766 912l-199 -162h-186l150 162h235zM984 448q0 -54 -24 -94.5t-68 -68.5q42 -27 64.5 -66.5t22.5 -91.5v-127h-190v127q0 42 -27 59.5t-90 17.5h-403v-204h-190v692h593q85 0 144.5 -18.5t96.5 -50.5t54 -76.5t17 -97.5v-1zM794 446q0 42 -29 59.5t-93 17.5h-403v-157
h403q64 0 93 17t29 62v1z" />
    <glyph glyph-name="Rcaron.ss02" horiz-adv-x="1036" 
d="M625 750h-211l-156 162h203l59 -65l57 65h203zM984 448q0 -54 -24 -94.5t-68 -68.5q42 -27 64.5 -66.5t22.5 -91.5v-127h-190v127q0 42 -27 59.5t-90 17.5h-403v-204h-190v692h593q85 0 144.5 -18.5t96.5 -50.5t54 -76.5t17 -97.5v-1zM794 446q0 42 -29 59.5t-93 17.5
h-403v-157h403q64 0 93 17t29 62v1z" />
    <glyph glyph-name="uni0156.ss02" horiz-adv-x="1036" 
d="M984 448q0 -54 -24 -94.5t-68 -68.5q42 -27 64.5 -66.5t22.5 -91.5v-127h-190v127q0 42 -27 59.5t-90 17.5h-403v-204h-190v692h593q85 0 144.5 -18.5t96.5 -50.5t54 -76.5t17 -97.5v-1zM794 446q0 42 -29 59.5t-93 17.5h-403v-157h403q64 0 93 17t29 62v1zM531 -32
q57 0 91 -27t34 -71q0 -25 -20 -62l-79 -139h-114l40 109q-31 8 -54.5 31.5t-23.5 60.5q0 44 34 71t92 27z" />
    <glyph glyph-name="S.ss02" horiz-adv-x="960" 
d="M62 0v168h613q31 0 47 7t16 26q0 18 -13.5 26.5t-45.5 13.5l-436 53q-58 9 -96 29.5t-60.5 47.5t-31.5 59t-9 63q0 41 13 77.5t41.5 63.5t74 42.5t110.5 15.5h601v-168h-597q-61 0 -61 -34q0 -16 12.5 -24.5t46.5 -14.5l431 -52q60 -10 99 -30.5t62 -48t32 -59t9 -63.5
q0 -41 -12.5 -77t-41 -63t-74 -42.5t-110.5 -15.5h-620z" />
    <glyph glyph-name="Sacute.ss02" horiz-adv-x="960" 
d="M341 750l150 162h235l-199 -162h-186zM62 0v168h613q31 0 47 7t16 26q0 18 -13.5 26.5t-45.5 13.5l-436 53q-58 9 -96 29.5t-60.5 47.5t-31.5 59t-9 63q0 41 13 77.5t41.5 63.5t74 42.5t110.5 15.5h601v-168h-597q-61 0 -61 -34q0 -16 12.5 -24.5t46.5 -14.5l431 -52
q60 -10 99 -30.5t62 -48t32 -59t9 -63.5q0 -41 -12.5 -77t-41 -63t-74 -42.5t-110.5 -15.5h-620z" />
    <glyph glyph-name="Scaron.ss02" horiz-adv-x="960" 
d="M585 750h-211l-156 162h203l59 -65l57 65h203zM62 0v168h613q31 0 47 7t16 26q0 18 -13.5 26.5t-45.5 13.5l-436 53q-58 9 -96 29.5t-60.5 47.5t-31.5 59t-9 63q0 41 13 77.5t41.5 63.5t74 42.5t110.5 15.5h601v-168h-597q-61 0 -61 -34q0 -16 12.5 -24.5t46.5 -14.5
l431 -52q60 -10 99 -30.5t62 -48t32 -59t9 -63.5q0 -41 -12.5 -77t-41 -63t-74 -42.5t-110.5 -15.5h-620z" />
    <glyph glyph-name="Scedilla.ss02" horiz-adv-x="960" 
d="M718 399q60 -10 99 -30.5t62 -48t32 -59t9 -63.5q0 -41 -12.5 -77t-41 -63t-74 -42.5t-110.5 -15.5h-122l-29 -39q58 -7 91 -27t33 -62q0 -28 -15 -45.5t-41 -27.5t-61.5 -13.5t-76.5 -3.5q-52 0 -82.5 2.5t-53.5 6.5v94q17 -3 33 -5t36 -2q26 0 43 4.5t17 18.5
q0 8 -6.5 13t-16.5 7.5t-23 3t-26 0.5l53 75h-373v168h613q31 0 47 7t16 26q0 18 -13.5 26.5t-45.5 13.5l-436 53q-58 9 -96 29.5t-60.5 47.5t-31.5 59t-9 63q0 41 13 77.5t41.5 63.5t74 42.5t110.5 15.5h601v-168h-597q-61 0 -61 -34q0 -16 12.5 -24.5t46.5 -14.5z" />
    <glyph glyph-name="uni0218.ss02" horiz-adv-x="960" 
d="M62 0v168h613q31 0 47 7t16 26q0 18 -13.5 26.5t-45.5 13.5l-436 53q-58 9 -96 29.5t-60.5 47.5t-31.5 59t-9 63q0 41 13 77.5t41.5 63.5t74 42.5t110.5 15.5h601v-168h-597q-61 0 -61 -34q0 -16 12.5 -24.5t46.5 -14.5l431 -52q60 -10 99 -30.5t62 -48t32 -59t9 -63.5
q0 -41 -12.5 -77t-41 -63t-74 -42.5t-110.5 -15.5h-620zM393 -331l40 109q-31 8 -54.5 31.5t-23.5 60.5q0 44 34 71t92 27q57 0 91 -27t34 -71q0 -25 -20 -62l-79 -139h-114z" />
    <glyph glyph-name="A.titl.ss02" horiz-adv-x="1078" 
d="M80 433q0 68 20 118t56.5 82.5t89 48.5t117.5 16h352q65 0 117.5 -16t89.5 -48.5t56.5 -82.5t19.5 -118v-202h-189v75h-539v-75h-190v202zM49 0v162h980v-162h-980zM270 436h539q-1 55 -28 77t-66 22h-352q-39 0 -65.5 -22t-27.5 -77z" />
    <glyph glyph-name="A.ss03" 
d="M664 634q146 0 228 -70.5t82 -213.5v-285h-195v102h-532v-102h-195v285q0 72 21 125t61 88.5t97.5 53t130.5 17.5h302zM247 313h532v37q0 63 -30.5 89t-84.5 26h-302q-54 0 -84.5 -26t-30.5 -89v-37z" />
    <glyph glyph-name="Aacute.ss03" 
d="M760 847l-199 -162h-186l150 162h235zM664 634q146 0 228 -70.5t82 -213.5v-285h-195v102h-532v-102h-195v285q0 72 21 125t61 88.5t97.5 53t130.5 17.5h302zM247 313h532v37q0 63 -30.5 89t-84.5 26h-302q-54 0 -84.5 -26t-30.5 -89v-37z" />
    <glyph glyph-name="Abreve.ss03" 
d="M513 685q-71 0 -117 14t-73 37t-37.5 52t-10.5 59h180q0 -22 14.5 -36.5t43.5 -14.5t43.5 14.5t14.5 36.5h180q0 -30 -10.5 -59t-37.5 -52t-73 -37t-117 -14zM664 634q146 0 228 -70.5t82 -213.5v-285h-195v102h-532v-102h-195v285q0 72 21 125t61 88.5t97.5 53
t130.5 17.5h302zM247 313h532v37q0 63 -30.5 89t-84.5 26h-302q-54 0 -84.5 -26t-30.5 -89v-37z" />
    <glyph glyph-name="Acircumflex.ss03" 
d="M514 751l-59 -66h-203l156 162h211l155 -162h-203zM664 634q146 0 228 -70.5t82 -213.5v-285h-195v102h-532v-102h-195v285q0 72 21 125t61 88.5t97.5 53t130.5 17.5h302zM247 313h532v37q0 63 -30.5 89t-84.5 26h-302q-54 0 -84.5 -26t-30.5 -89v-37z" />
    <glyph glyph-name="Adieresis.ss03" 
d="M363 684q-54 0 -89.5 27.5t-35.5 73.5q0 45 35.5 72.5t89.5 27.5q27 0 49.5 -7t39 -20.5t26 -31.5t9.5 -41q0 -46 -35 -73.5t-89 -27.5zM665 684q-54 0 -89.5 27.5t-35.5 73.5q0 45 35.5 72.5t89.5 27.5q27 0 49.5 -7t39 -20.5t26 -31.5t9.5 -41q0 -46 -35 -73.5
t-89 -27.5zM664 634q146 0 228 -70.5t82 -213.5v-285h-195v102h-532v-102h-195v285q0 72 21 125t61 88.5t97.5 53t130.5 17.5h302zM247 313h532v37q0 63 -30.5 89t-84.5 26h-302q-54 0 -84.5 -26t-30.5 -89v-37z" />
    <glyph glyph-name="Agrave.ss03" 
d="M647 685h-187l-198 162h234zM664 634q146 0 228 -70.5t82 -213.5v-285h-195v102h-532v-102h-195v285q0 72 21 125t61 88.5t97.5 53t130.5 17.5h302zM247 313h532v37q0 63 -30.5 89t-84.5 26h-302q-54 0 -84.5 -26t-30.5 -89v-37z" />
    <glyph glyph-name="Amacron.ss03" 
d="M726 834v-135h-426v135h426zM664 634q146 0 228 -70.5t82 -213.5v-285h-195v102h-532v-102h-195v285q0 72 21 125t61 88.5t97.5 53t130.5 17.5h302zM247 313h532v37q0 63 -30.5 89t-84.5 26h-302q-54 0 -84.5 -26t-30.5 -89v-37z" />
    <glyph glyph-name="Aogonek.ss03" 
d="M948 -20q18 0 29 1.5t25 3.5v-126q-24 -5 -48.5 -7.5t-58.5 -2.5q-39 0 -71.5 6t-56 18.5t-37 32.5t-13.5 47q0 42 32.5 71.5t91.5 40.5h-62v102h-532v-102h-195v285q0 72 21 125t61 88.5t97.5 53t130.5 17.5h302q146 0 228 -70.5t82 -213.5v-285q-23 -9 -37 -18t-21 -17
t-9 -14.5t-2 -11.5q0 -14 12 -19t31 -5zM247 313h532v37q0 63 -30.5 89t-84.5 26h-302q-54 0 -84.5 -26t-30.5 -89v-37z" />
    <glyph glyph-name="Aring.ss03" 
d="M513 685q-85 0 -128 34t-43 88t43 87.5t128 33.5t128 -33.5t43 -87.5t-43 -88t-128 -34zM514 845q-22 0 -34.5 -10.5t-12.5 -27.5q0 -18 12.5 -28.5t34.5 -10.5q21 0 33.5 10.5t12.5 28.5q0 17 -12.5 27.5t-33.5 10.5zM664 634q146 0 228 -70.5t82 -213.5v-285h-195v102
h-532v-102h-195v285q0 72 21 125t61 88.5t97.5 53t130.5 17.5h302zM247 313h532v37q0 63 -30.5 89t-84.5 26h-302q-54 0 -84.5 -26t-30.5 -89v-37z" />
    <glyph glyph-name="Atilde.ss03" 
d="M460 717q-21 0 -27.5 -10.5t-6.5 -21.5h-149q0 27 4 57.5t18 56t42.5 42t76.5 16.5q29 0 50 -5t38 -11t32 -11t31 -5q20 0 27 9.5t7 21.5h150q0 -26 -4.5 -56t-19 -55.5t-42 -42.5t-72.5 -17q-33 0 -56 5t-40 11t-30.5 11t-28.5 5zM664 634q146 0 228 -70.5t82 -213.5
v-285h-195v102h-532v-102h-195v285q0 72 21 125t61 88.5t97.5 53t130.5 17.5h302zM247 313h532v37q0 63 -30.5 89t-84.5 26h-302q-54 0 -84.5 -26t-30.5 -89v-37z" />
    <glyph glyph-name="A.titl" horiz-adv-x="1044" 
d="M417 692h210l352 -466h-210l-51 72h-392l-51 -72h-210zM34 0v153h976v-153h-976zM624 429l-98 137h-12l-96 -137h206z" />
    <glyph glyph-name="E.titl" horiz-adv-x="939" 
d="M89 226v466h771v-122h-598v-54h543v-114h-543v-53h598v-123h-771zM58 0v153h833v-153h-833z" />
    <glyph glyph-name="I.titl" horiz-adv-x="908" 
d="M82 226v153h278v161h-278v152h744v-152h-278v-161h278v-153h-744zM857 153v-153h-806v153h806z" />
    <glyph glyph-name="O.titl" horiz-adv-x="1091" 
d="M72 460q0 112 72 175t216 63h371q144 0 216 -63t72 -175v-1q0 -112 -72 -175.5t-216 -63.5h-371q-144 0 -216 63.5t-72 175.5v1zM1050 153v-153h-1009v153h1009zM261 460v-1q0 -38 25.5 -60t73.5 -22h371q47 0 73 22t26 60v1q0 38 -26 60.5t-73 22.5h-371
q-48 0 -73.5 -22.5t-25.5 -60.5z" />
    <glyph glyph-name="U.titl" horiz-adv-x="1087" 
d="M268 692v-206q0 -54 28.5 -75.5t71.5 -21.5h351q43 0 71.5 21.5t28.5 75.5v206h189v-206q0 -69 -20 -119t-57.5 -82.5t-91 -48.5t-120.5 -16h-351q-67 0 -120.5 16t-91 48.5t-57.5 82.5t-20 119v206h189zM1039 153v-153h-991v153h991z" />
    <glyph glyph-name="i.loclTRK" horiz-adv-x="352" 
d="M177 750q-58 0 -92 27.5t-34 71.5q0 43 34 70.5t92 27.5q57 0 91 -27.5t34 -70.5q0 -44 -34 -71.5t-91 -27.5zM79 0v692h195v-692h-195z" />
    <glyph glyph-name="j_acutecomb" horiz-adv-x="921" 
d="M426 750l150 162h235l-199 -162h-186zM860 692v-376q0 -156 -88 -239t-259 -83h-205q-101 0 -175 27.5t-116 87.5l134 130q29 -35 66 -51.5t91 -16.5h205q72 0 112 37t40 108v201h-409v175h604z" />
    <glyph glyph-name="a.ss01" horiz-adv-x="1044" 
d="M795 65l-63 99h-419l-63 -99h-231l383 563h240l384 -563h-231zM400 300h245l-117 183h-11z" />
    <glyph glyph-name="aacute.ss01" horiz-adv-x="1044" 
d="M769 848l-199 -162h-186l150 162h235zM795 65l-63 99h-419l-63 -99h-231l383 563h240l384 -563h-231zM400 300h245l-117 183h-11z" />
    <glyph glyph-name="abreve.ss01" horiz-adv-x="1044" 
d="M522 686q-71 0 -117 14t-73 37t-37.5 52t-10.5 59h180q0 -22 14.5 -36.5t43.5 -14.5t43.5 14.5t14.5 36.5h180q0 -30 -10.5 -59t-37.5 -52t-73 -37t-117 -14zM795 65l-63 99h-419l-63 -99h-231l383 563h240l384 -563h-231zM400 300h245l-117 183h-11z" />
    <glyph glyph-name="acircumflex.ss01" horiz-adv-x="1044" 
d="M523 752l-59 -66h-203l156 162h211l155 -162h-203zM795 65l-63 99h-419l-63 -99h-231l383 563h240l384 -563h-231zM400 300h245l-117 183h-11z" />
    <glyph glyph-name="adieresis.ss01" horiz-adv-x="1044" 
d="M372 684q-54 0 -89.5 27.5t-35.5 73.5q0 45 35.5 72.5t89.5 27.5q27 0 49.5 -7t39 -20.5t26 -31.5t9.5 -41q0 -46 -35 -73.5t-89 -27.5zM674 684q-54 0 -89.5 27.5t-35.5 73.5q0 45 35.5 72.5t89.5 27.5q27 0 49.5 -7t39 -20.5t26 -31.5t9.5 -41q0 -46 -35 -73.5
t-89 -27.5zM795 65l-63 99h-419l-63 -99h-231l383 563h240l384 -563h-231zM400 300h245l-117 183h-11z" />
    <glyph glyph-name="agrave.ss01" horiz-adv-x="1044" 
d="M656 686h-187l-198 162h234zM795 65l-63 99h-419l-63 -99h-231l383 563h240l384 -563h-231zM400 300h245l-117 183h-11z" />
    <glyph glyph-name="amacron.ss01" horiz-adv-x="1044" 
d="M735 835v-135h-426v135h426zM795 65l-63 99h-419l-63 -99h-231l383 563h240l384 -563h-231zM400 300h245l-117 183h-11z" />
    <glyph glyph-name="aogonek.ss01" horiz-adv-x="1044" 
d="M1000 -20q18 0 29 1.5t25 3.5v-126q-24 -5 -48.5 -7.5t-58.5 -2.5q-39 0 -71.5 6t-56 18.5t-37 32.5t-13.5 47q0 42 32.5 71.5t91.5 40.5h-98l-63 99h-419l-63 -99h-231l383 563h240l384 -563q-23 -9 -37 -18t-21 -17t-9 -14.5t-2 -11.5q0 -14 12 -19t31 -5zM400 300h245
l-117 183h-11z" />
    <glyph glyph-name="aring.ss01" horiz-adv-x="1044" 
d="M522 686q-85 0 -128 34t-43 88t43 87.5t128 33.5t128 -33.5t43 -87.5t-43 -88t-128 -34zM523 846q-22 0 -34.5 -10.5t-12.5 -27.5q0 -18 12.5 -28.5t34.5 -10.5q21 0 33.5 10.5t12.5 28.5q0 17 -12.5 27.5t-33.5 10.5zM795 65l-63 99h-419l-63 -99h-231l383 563h240
l384 -563h-231zM400 300h245l-117 183h-11z" />
    <glyph glyph-name="atilde.ss01" horiz-adv-x="1044" 
d="M469 718q-21 0 -27.5 -10.5t-6.5 -21.5h-149q0 27 4 57.5t18 56t42.5 42t76.5 16.5q29 0 50 -5t38 -11t32 -11t31 -5q20 0 27 9.5t7 21.5h150q0 -26 -4.5 -56t-19 -55.5t-42 -42.5t-72.5 -17q-33 0 -56 5t-40 11t-30.5 11t-28.5 5zM795 65l-63 99h-419l-63 -99h-231
l383 563h240l384 -563h-231zM400 300h245l-117 183h-11z" />
    <glyph glyph-name="e.ss01" horiz-adv-x="892" 
d="M841 628v-140h-583v-73h513v-137h-513v-73h583v-140h-774v563h774z" />
    <glyph glyph-name="eacute.ss01" horiz-adv-x="892" 
d="M316 686l150 162h235l-199 -162h-186zM841 628v-140h-583v-73h513v-137h-513v-73h583v-140h-774v563h774z" />
    <glyph glyph-name="ecaron.ss01" horiz-adv-x="892" 
d="M560 686h-211l-156 162h203l59 -65l57 65h203zM841 628v-140h-583v-73h513v-137h-513v-73h583v-140h-774v563h774z" />
    <glyph glyph-name="ecircumflex.ss01" horiz-adv-x="892" 
d="M560 848l155 -162h-203l-57 66l-59 -66h-203l156 162h211zM841 628v-140h-583v-73h513v-137h-513v-73h583v-140h-774v563h774z" />
    <glyph glyph-name="edieresis.ss01" horiz-adv-x="892" 
d="M304 684q-54 0 -89.5 27.5t-35.5 73.5q0 45 35.5 72.5t89.5 27.5q27 0 49.5 -7t39 -20.5t26 -31.5t9.5 -41q0 -46 -35 -73.5t-89 -27.5zM606 684q-54 0 -89.5 27.5t-35.5 73.5q0 45 35.5 72.5t89.5 27.5q27 0 49.5 -7t39 -20.5t26 -31.5t9.5 -41q0 -46 -35 -73.5
t-89 -27.5zM841 628v-140h-583v-73h513v-137h-513v-73h583v-140h-774v563h774z" />
    <glyph glyph-name="edotaccent.ss01" horiz-adv-x="892" 
d="M455 686q-58 0 -92 27.5t-34 71.5q0 43 34 70.5t92 27.5q57 0 91 -27.5t34 -70.5q0 -44 -34 -71.5t-91 -27.5zM841 628v-140h-583v-73h513v-137h-513v-73h583v-140h-774v563h774z" />
    <glyph glyph-name="egrave.ss01" horiz-adv-x="892" 
d="M401 686l-198 162h234l151 -162h-187zM841 628v-140h-583v-73h513v-137h-513v-73h583v-140h-774v563h774z" />
    <glyph glyph-name="emacron.ss01" horiz-adv-x="892" 
d="M241 700v135h426v-135h-426zM841 628v-140h-583v-73h513v-137h-513v-73h583v-140h-774v563h774z" />
    <glyph glyph-name="eogonek.ss01" horiz-adv-x="892" 
d="M815 -20q18 0 29 1.5t25 3.5v-126q-24 -5 -48.5 -7.5t-58.5 -2.5q-39 0 -71.5 6t-56 18.5t-37 32.5t-13.5 47q0 42 32.5 71.5t91.5 40.5h-641v563h774v-140h-583v-73h513v-137h-513v-73h583v-140q-23 -9 -37 -18t-21 -17t-9 -14.5t-2 -11.5q0 -14 12 -19t31 -5z" />
    <glyph glyph-name="i.ss01" horiz-adv-x="328" 
d="M67 65v563h195v-563h-195z" />
    <glyph glyph-name="iacute.ss01" horiz-adv-x="328" 
d="M26 686l150 162h235l-199 -162h-186zM67 65v563h195v-563h-195z" />
    <glyph glyph-name="icircumflex.ss01" horiz-adv-x="328" 
d="M270 848l145 -162h-203l-47 66l-49 -66h-203l146 162h211zM67 65v563h195v-563h-195z" />
    <glyph glyph-name="idieresis.ss01" horiz-adv-x="328" 
d="M19 685q-53 0 -87 27.5t-34 72.5t34 72.5t87 27.5t87 -27.5t34 -72.5t-34 -72.5t-87 -27.5zM311 685q-54 0 -88 27.5t-34 72.5t34 72.5t88 27.5q51 0 85.5 -27.5t34.5 -72.5t-34.5 -72.5t-85.5 -27.5zM67 65v563h195v-563h-195z" />
    <glyph glyph-name="i.loclTRK.ss01" horiz-adv-x="328" 
d="M165 686q-58 0 -92 27.5t-34 71.5q0 43 34 70.5t92 27.5q57 0 91 -27.5t34 -70.5q0 -44 -34 -71.5t-91 -27.5zM67 65v563h195v-563h-195z" />
    <glyph glyph-name="igrave.ss01" horiz-adv-x="328" 
d="M111 686l-199 162h235l151 -162h-187zM67 65v563h195v-563h-195z" />
    <glyph glyph-name="imacron.ss01" horiz-adv-x="328" 
d="M-30 700v135h387v-135h-387zM67 65v563h195v-563h-195z" />
    <glyph glyph-name="iogonek.ss01" horiz-adv-x="328" 
d="M236 -20q17 0 28.5 1.5t25.5 3.5v-126q-25 -5 -49 -7.5t-58 -2.5q-39 0 -71.5 6t-56 18.5t-37 32.5t-13.5 47q0 42 32 71.5t91 40.5h-61v563h195v-563q-23 -8 -37 -17t-21.5 -17t-9.5 -15t-2 -12q0 -14 12 -19t32 -5z" />
    <glyph glyph-name="itilde.ss01" horiz-adv-x="328" 
d="M-54 686q0 27 3.5 57.5t17 56t39.5 42t71 16.5q27 0 47 -5t35.5 -11t29.5 -11t29 -5q18 0 24.5 9.5t6.5 21.5h139q0 -26 -4 -56t-17.5 -55.5t-39 -42.5t-67.5 -17q-31 0 -52 5t-37 11t-28.5 11t-26.5 5q-19 0 -25 -10.5t-6 -21.5h-139zM67 65v563h195v-563h-195z" />
    <glyph glyph-name="o.ss01" horiz-adv-x="1048" 
d="M693 632q155 0 237.5 -76.5t82.5 -209.5v-1q0 -66 -21 -119t-61.5 -89.5t-100.5 -56.5t-137 -20h-338q-77 0 -136.5 20t-100.5 56.5t-62 89.5t-21 119v1q0 66 21 119t62 90t100.5 57t136.5 20h338zM690 222q70 0 106 33t36 90v1q0 57 -36 90.5t-106 33.5h-332
q-69 0 -105 -33.5t-36 -90.5v-1q0 -57 36 -90t105 -33h332z" />
    <glyph glyph-name="oacute.ss01" horiz-adv-x="1048" 
d="M386 686l150 162h235l-199 -162h-186zM693 632q155 0 237.5 -76.5t82.5 -209.5v-1q0 -66 -21 -119t-61.5 -89.5t-100.5 -56.5t-137 -20h-338q-77 0 -136.5 20t-100.5 56.5t-62 89.5t-21 119v1q0 66 21 119t62 90t100.5 57t136.5 20h338zM690 222q70 0 106 33t36 90v1
q0 57 -36 90.5t-106 33.5h-332q-69 0 -105 -33.5t-36 -90.5v-1q0 -57 36 -90t105 -33h332z" />
    <glyph glyph-name="ocircumflex.ss01" horiz-adv-x="1048" 
d="M630 848l155 -162h-203l-57 66l-59 -66h-203l156 162h211zM693 632q155 0 237.5 -76.5t82.5 -209.5v-1q0 -66 -21 -119t-61.5 -89.5t-100.5 -56.5t-137 -20h-338q-77 0 -136.5 20t-100.5 56.5t-62 89.5t-21 119v1q0 66 21 119t62 90t100.5 57t136.5 20h338zM690 222
q70 0 106 33t36 90v1q0 57 -36 90.5t-106 33.5h-332q-69 0 -105 -33.5t-36 -90.5v-1q0 -57 36 -90t105 -33h332z" />
    <glyph glyph-name="odieresis.ss01" horiz-adv-x="1048" 
d="M374 684q-54 0 -89.5 27.5t-35.5 73.5q0 45 35.5 72.5t89.5 27.5q27 0 49.5 -7t39 -20.5t26 -31.5t9.5 -41q0 -46 -35 -73.5t-89 -27.5zM676 684q-54 0 -89.5 27.5t-35.5 73.5q0 45 35.5 72.5t89.5 27.5q27 0 49.5 -7t39 -20.5t26 -31.5t9.5 -41q0 -46 -35 -73.5
t-89 -27.5zM693 632q155 0 237.5 -76.5t82.5 -209.5v-1q0 -66 -21 -119t-61.5 -89.5t-100.5 -56.5t-137 -20h-338q-77 0 -136.5 20t-100.5 56.5t-62 89.5t-21 119v1q0 66 21 119t62 90t100.5 57t136.5 20h338zM690 222q70 0 106 33t36 90v1q0 57 -36 90.5t-106 33.5h-332
q-69 0 -105 -33.5t-36 -90.5v-1q0 -57 36 -90t105 -33h332z" />
    <glyph glyph-name="ograve.ss01" horiz-adv-x="1048" 
d="M471 686l-198 162h234l151 -162h-187zM693 632q155 0 237.5 -76.5t82.5 -209.5v-1q0 -66 -21 -119t-61.5 -89.5t-100.5 -56.5t-137 -20h-338q-77 0 -136.5 20t-100.5 56.5t-62 89.5t-21 119v1q0 66 21 119t62 90t100.5 57t136.5 20h338zM690 222q70 0 106 33t36 90v1
q0 57 -36 90.5t-106 33.5h-332q-69 0 -105 -33.5t-36 -90.5v-1q0 -57 36 -90t105 -33h332z" />
    <glyph glyph-name="ohungarumlaut.ss01" horiz-adv-x="1048" 
d="M283 686l105 162h212l-146 -162h-171zM567 686l106 162h212l-146 -162h-172zM693 632q155 0 237.5 -76.5t82.5 -209.5v-1q0 -66 -21 -119t-61.5 -89.5t-100.5 -56.5t-137 -20h-338q-77 0 -136.5 20t-100.5 56.5t-62 89.5t-21 119v1q0 66 21 119t62 90t100.5 57t136.5 20
h338zM690 222q70 0 106 33t36 90v1q0 57 -36 90.5t-106 33.5h-332q-69 0 -105 -33.5t-36 -90.5v-1q0 -57 36 -90t105 -33h332z" />
    <glyph glyph-name="omacron.ss01" horiz-adv-x="1048" 
d="M311 700v135h426v-135h-426zM693 632q155 0 237.5 -76.5t82.5 -209.5v-1q0 -66 -21 -119t-61.5 -89.5t-100.5 -56.5t-137 -20h-338q-77 0 -136.5 20t-100.5 56.5t-62 89.5t-21 119v1q0 66 21 119t62 90t100.5 57t136.5 20h338zM690 222q70 0 106 33t36 90v1
q0 57 -36 90.5t-106 33.5h-332q-69 0 -105 -33.5t-36 -90.5v-1q0 -57 36 -90t105 -33h332z" />
    <glyph glyph-name="uni01EB.ss01" horiz-adv-x="1048" 
d="M693 632q155 0 237.5 -76.5t82.5 -209.5v-1q0 -107 -54 -178t-158 -95q-23 -9 -36.5 -18t-20.5 -17t-9 -14.5t-2 -11.5q0 -14 12 -19t31 -5q18 0 29 1.5t25 3.5v-126q-24 -5 -48.5 -7.5t-58.5 -2.5q-39 0 -71.5 6t-56 18.5t-37 32.5t-13.5 47q0 34 21 59.5t60 40.5h-271
q-77 0 -136.5 20t-100.5 56.5t-62 89.5t-21 119v1q0 66 21 119t62 90t100.5 57t136.5 20h338zM832 346q0 57 -36 90.5t-106 33.5h-332q-69 0 -105 -33.5t-36 -90.5v-1q0 -57 36 -90t105 -33h332q70 0 106 33t36 90v1z" />
    <glyph glyph-name="oslash.ss01" horiz-adv-x="1048" 
d="M935 551q78 -76 78 -205v-1q0 -66 -21 -119t-61.5 -89.5t-100.5 -56.5t-137 -20h-338q-66 0 -120 15l-129 -92l-79 92l89 64q-81 75 -81 206v1q0 66 21 119t62 90t100.5 57t136.5 20h338q35 0 66 -4t58 -12l126 93l78 -95zM832 346q0 57 -36 90.5t-106 33.5h-332
q-69 0 -105 -33.5t-36 -90.5v-1q0 -57 36 -90t105 -33h332q70 0 106 33t36 90v1z" />
    <glyph glyph-name="oslashacute.ss01" horiz-adv-x="1048" 
d="M771 848l-199 -162h-186l150 162h235zM935 551q78 -76 78 -205v-1q0 -66 -21 -119t-61.5 -89.5t-100.5 -56.5t-137 -20h-338q-66 0 -120 15l-129 -92l-79 92l89 64q-81 75 -81 206v1q0 66 21 119t62 90t100.5 57t136.5 20h338q35 0 66 -4t58 -12l126 93l78 -95zM832 346
q0 57 -36 90.5t-106 33.5h-332q-69 0 -105 -33.5t-36 -90.5v-1q0 -57 36 -90t105 -33h332q70 0 106 33t36 90v1z" />
    <glyph glyph-name="otilde.ss01" horiz-adv-x="1048" 
d="M288 686q0 27 4 57.5t18 56t42.5 42t76.5 16.5q29 0 50 -5t38 -11t32 -11t31 -5q20 0 27 9.5t7 21.5h150q0 -26 -4.5 -56t-19 -55.5t-42 -42.5t-72.5 -17q-33 0 -56 5t-40 11t-30.5 11t-28.5 5q-21 0 -27.5 -10.5t-6.5 -21.5h-149zM693 632q155 0 237.5 -76.5
t82.5 -209.5v-1q0 -66 -21 -119t-61.5 -89.5t-100.5 -56.5t-137 -20h-338q-77 0 -136.5 20t-100.5 56.5t-62 89.5t-21 119v1q0 66 21 119t62 90t100.5 57t136.5 20h338zM690 222q70 0 106 33t36 90v1q0 57 -36 90.5t-106 33.5h-332q-69 0 -105 -33.5t-36 -90.5v-1
q0 -57 36 -90t105 -33h332z" />
    <glyph glyph-name="u.ss01" 
d="M779 628h195v-284q0 -144 -82 -214t-228 -70h-302q-73 0 -130.5 17.5t-97.5 52.5t-61 88.5t-21 125.5v284h195v-284q0 -63 30.5 -89t84.5 -26h302q54 0 84.5 26t30.5 89v284z" />
    <glyph glyph-name="uacute.ss01" 
d="M375 686l150 162h235l-199 -162h-186zM779 628h195v-284q0 -144 -82 -214t-228 -70h-302q-73 0 -130.5 17.5t-97.5 52.5t-61 88.5t-21 125.5v284h195v-284q0 -63 30.5 -89t84.5 -26h302q54 0 84.5 26t30.5 89v284z" />
    <glyph glyph-name="ucircumflex.ss01" 
d="M619 848l155 -162h-203l-57 66l-59 -66h-203l156 162h211zM779 628h195v-284q0 -144 -82 -214t-228 -70h-302q-73 0 -130.5 17.5t-97.5 52.5t-61 88.5t-21 125.5v284h195v-284q0 -63 30.5 -89t84.5 -26h302q54 0 84.5 26t30.5 89v284z" />
    <glyph glyph-name="udieresis.ss01" 
d="M363 684q-54 0 -89.5 27.5t-35.5 73.5q0 45 35.5 72.5t89.5 27.5q27 0 49.5 -7t39 -20.5t26 -31.5t9.5 -41q0 -46 -35 -73.5t-89 -27.5zM665 684q-54 0 -89.5 27.5t-35.5 73.5q0 45 35.5 72.5t89.5 27.5q27 0 49.5 -7t39 -20.5t26 -31.5t9.5 -41q0 -46 -35 -73.5
t-89 -27.5zM779 628h195v-284q0 -144 -82 -214t-228 -70h-302q-73 0 -130.5 17.5t-97.5 52.5t-61 88.5t-21 125.5v284h195v-284q0 -63 30.5 -89t84.5 -26h302q54 0 84.5 26t30.5 89v284z" />
    <glyph glyph-name="ugrave.ss01" 
d="M460 686l-198 162h234l151 -162h-187zM779 628h195v-284q0 -144 -82 -214t-228 -70h-302q-73 0 -130.5 17.5t-97.5 52.5t-61 88.5t-21 125.5v284h195v-284q0 -63 30.5 -89t84.5 -26h302q54 0 84.5 26t30.5 89v284z" />
    <glyph glyph-name="uhungarumlaut.ss01" 
d="M272 686l105 162h212l-146 -162h-171zM556 686l106 162h212l-146 -162h-172zM779 628h195v-284q0 -144 -82 -214t-228 -70h-302q-73 0 -130.5 17.5t-97.5 52.5t-61 88.5t-21 125.5v284h195v-284q0 -63 30.5 -89t84.5 -26h302q54 0 84.5 26t30.5 89v284z" />
    <glyph glyph-name="umacron.ss01" 
d="M300 700v135h426v-135h-426zM779 628h195v-284q0 -144 -82 -214t-228 -70h-302q-73 0 -130.5 17.5t-97.5 52.5t-61 88.5t-21 125.5v284h195v-284q0 -63 30.5 -89t84.5 -26h302q54 0 84.5 26t30.5 89v284z" />
    <glyph glyph-name="uogonek.ss01" 
d="M779 628h195v-284q0 -116 -53 -183t-150 -90q-22 -9 -35.5 -17.5t-20.5 -16.5t-9 -14.5t-2 -11.5q0 -14 12 -19t31 -5q18 0 29 1.5t25 3.5v-126q-24 -5 -48.5 -7.5t-58.5 -2.5q-39 0 -71.5 6t-56 18.5t-37 32.5t-13.5 47q0 34 21 59.5t60 40.5h-235q-73 0 -130.5 17.5
t-97.5 52.5t-61 88.5t-21 125.5v284h195v-284q0 -63 30.5 -89t84.5 -26h302q54 0 84.5 26t30.5 89v284z" />
    <glyph glyph-name="uring.ss01" 
d="M513 686q-85 0 -128 34t-43 88t43 87.5t128 33.5t128 -33.5t43 -87.5t-43 -88t-128 -34zM514 769q21 0 33.5 10.5t12.5 28.5q0 17 -12.5 27.5t-33.5 10.5q-22 0 -34.5 -10.5t-12.5 -27.5q0 -18 12.5 -28.5t34.5 -10.5zM779 628h195v-284q0 -144 -82 -214t-228 -70h-302
q-73 0 -130.5 17.5t-97.5 52.5t-61 88.5t-21 125.5v284h195v-284q0 -63 30.5 -89t84.5 -26h302q54 0 84.5 26t30.5 89v284z" />
    <glyph glyph-name="utilde.ss01" 
d="M277 686q0 27 4 57.5t18 56t42.5 42t76.5 16.5q29 0 50 -5t38 -11t32 -11t31 -5q20 0 27 9.5t7 21.5h150q0 -26 -4.5 -56t-19 -55.5t-42 -42.5t-72.5 -17q-33 0 -56 5t-40 11t-30.5 11t-28.5 5q-21 0 -27.5 -10.5t-6.5 -21.5h-149zM779 628h195v-284q0 -144 -82 -214
t-228 -70h-302q-73 0 -130.5 17.5t-97.5 52.5t-61 88.5t-21 125.5v284h195v-284q0 -63 30.5 -89t84.5 -26h302q54 0 84.5 26t30.5 89v284z" />
    <glyph glyph-name="a.ss02" horiz-adv-x="1057" 
d="M641 698q168 0 261.5 -83t93.5 -254v-361h-192v144h-551v-144h-192v361q0 171 93.5 254t261.5 83h225zM253 302h551v59q0 87 -45 125t-118 38h-225q-37 0 -67 -9t-51.5 -29t-33 -50.5t-11.5 -74.5v-59z" />
    <glyph glyph-name="aacute.ss02" horiz-adv-x="1057" 
d="M398 750l150 162h235l-199 -162h-186zM641 698q168 0 261.5 -83t93.5 -254v-361h-192v144h-551v-144h-192v361q0 171 93.5 254t261.5 83h225zM253 302h551v59q0 87 -45 125t-118 38h-225q-37 0 -67 -9t-51.5 -29t-33 -50.5t-11.5 -74.5v-59z" />
    <glyph glyph-name="abreve.ss02" horiz-adv-x="1057" 
d="M536 750q-71 0 -117 14t-73 37t-37.5 52t-10.5 59h180q0 -22 14.5 -36.5t43.5 -14.5t43.5 14.5t14.5 36.5h180q0 -30 -10.5 -59t-37.5 -52t-73 -37t-117 -14zM641 698q168 0 261.5 -83t93.5 -254v-361h-192v144h-551v-144h-192v361q0 171 93.5 254t261.5 83h225zM253 302
h551v59q0 87 -45 125t-118 38h-225q-37 0 -67 -9t-51.5 -29t-33 -50.5t-11.5 -74.5v-59z" />
    <glyph glyph-name="acircumflex.ss02" horiz-adv-x="1057" 
d="M642 912l155 -162h-203l-57 66l-59 -66h-203l156 162h211zM641 698q168 0 261.5 -83t93.5 -254v-361h-192v144h-551v-144h-192v361q0 171 93.5 254t261.5 83h225zM253 302h551v59q0 87 -45 125t-118 38h-225q-37 0 -67 -9t-51.5 -29t-33 -50.5t-11.5 -74.5v-59z" />
    <glyph glyph-name="adieresis.ss02" horiz-adv-x="1057" 
d="M386 748q-54 0 -89.5 27.5t-35.5 73.5q0 45 35.5 72.5t89.5 27.5q27 0 49.5 -7t39 -20.5t26 -31.5t9.5 -41q0 -46 -35 -73.5t-89 -27.5zM688 748q-54 0 -89.5 27.5t-35.5 73.5q0 45 35.5 72.5t89.5 27.5q27 0 49.5 -7t39 -20.5t26 -31.5t9.5 -41q0 -46 -35 -73.5
t-89 -27.5zM641 698q168 0 261.5 -83t93.5 -254v-361h-192v144h-551v-144h-192v361q0 171 93.5 254t261.5 83h225zM253 302h551v59q0 87 -45 125t-118 38h-225q-37 0 -67 -9t-51.5 -29t-33 -50.5t-11.5 -74.5v-59z" />
    <glyph glyph-name="agrave.ss02" horiz-adv-x="1057" 
d="M483 750l-198 162h234l151 -162h-187zM641 698q168 0 261.5 -83t93.5 -254v-361h-192v144h-551v-144h-192v361q0 171 93.5 254t261.5 83h225zM253 302h551v59q0 87 -45 125t-118 38h-225q-37 0 -67 -9t-51.5 -29t-33 -50.5t-11.5 -74.5v-59z" />
    <glyph glyph-name="amacron.ss02" horiz-adv-x="1057" 
d="M323 764v135h426v-135h-426zM641 698q168 0 261.5 -83t93.5 -254v-361h-192v144h-551v-144h-192v361q0 171 93.5 254t261.5 83h225zM253 302h551v59q0 87 -45 125t-118 38h-225q-37 0 -67 -9t-51.5 -29t-33 -50.5t-11.5 -74.5v-59z" />
    <glyph glyph-name="aogonek.ss02" horiz-adv-x="1057" 
d="M970 -85q18 0 29 1.5t25 3.5v-126q-24 -5 -48.5 -7.5t-58.5 -2.5q-39 0 -71.5 6t-56 18.5t-37 32.5t-13.5 47q0 42 32.5 71.5t91.5 40.5h-59v144h-551v-144h-192v361q0 171 93.5 254t261.5 83h225q168 0 261.5 -83t93.5 -254v-361q-23 -9 -37 -18t-21 -17t-9 -14.5
t-2 -11.5q0 -14 12 -19t31 -5zM804 302v59q0 87 -45 125t-118 38h-225q-37 0 -67 -9t-51.5 -29t-33 -50.5t-11.5 -74.5v-59h551z" />
    <glyph glyph-name="aring.ss02" horiz-adv-x="1057" 
d="M536 750q-85 0 -128 34t-43 88t43 87.5t128 33.5t128 -33.5t43 -87.5t-43 -88t-128 -34zM537 833q21 0 33.5 10.5t12.5 28.5q0 17 -12.5 27.5t-33.5 10.5q-22 0 -34.5 -10.5t-12.5 -27.5q0 -18 12.5 -28.5t34.5 -10.5zM641 698q168 0 261.5 -83t93.5 -254v-361h-192v144
h-551v-144h-192v361q0 171 93.5 254t261.5 83h225zM253 302h551v59q0 87 -45 125t-118 38h-225q-37 0 -67 -9t-51.5 -29t-33 -50.5t-11.5 -74.5v-59z" />
    <glyph glyph-name="atilde.ss02" horiz-adv-x="1057" 
d="M300 750q0 27 4 57.5t18 56t42.5 42t76.5 16.5q29 0 50 -5t38 -11t32 -11t31 -5q20 0 27 9.5t7 21.5h150q0 -26 -4.5 -56t-19 -55.5t-42 -42.5t-72.5 -17q-33 0 -56 5t-40 11t-30.5 11t-28.5 5q-21 0 -27.5 -10.5t-6.5 -21.5h-149zM641 698q168 0 261.5 -83t93.5 -254
v-361h-192v144h-551v-144h-192v361q0 171 93.5 254t261.5 83h225zM253 302h551v59q0 87 -45 125t-118 38h-225q-37 0 -67 -9t-51.5 -29t-33 -50.5t-11.5 -74.5v-59z" />
    <glyph glyph-name="g.ss02" horiz-adv-x="1078" 
d="M886 473q-30 30 -71.5 40.5t-101.5 10.5h-288q-96 0 -146.5 -46t-50.5 -131v-1q0 -85 49 -131.5t141 -46.5h271q31 0 58.5 3t48 10.5t32.5 19t12 28.5v4h-193v143h395v-75q0 -91 -28.5 -150.5t-76.5 -94t-112 -48.5t-136 -14h-271q-90 0 -161 24.5t-119.5 70t-74 111
t-25.5 146.5v1q0 81 26 146t75.5 110.5t121.5 70t164 24.5h288q49 0 90 -4.5t75.5 -15t64 -27t55.5 -41.5z" />
    <glyph glyph-name="gbreve.ss02" horiz-adv-x="1078" 
d="M573 750q-71 0 -117 14t-73 37t-37.5 52t-10.5 59h180q0 -22 14.5 -36.5t43.5 -14.5t43.5 14.5t14.5 36.5h180q0 -30 -10.5 -59t-37.5 -52t-73 -37t-117 -14zM886 473q-30 30 -71.5 40.5t-101.5 10.5h-288q-96 0 -146.5 -46t-50.5 -131v-1q0 -85 49 -131.5t141 -46.5h271
q31 0 58.5 3t48 10.5t32.5 19t12 28.5v4h-193v143h395v-75q0 -91 -28.5 -150.5t-76.5 -94t-112 -48.5t-136 -14h-271q-90 0 -161 24.5t-119.5 70t-74 111t-25.5 146.5v1q0 81 26 146t75.5 110.5t121.5 70t164 24.5h288q49 0 90 -4.5t75.5 -15t64 -27t55.5 -41.5z" />
    <glyph glyph-name="uni0123.ss02" horiz-adv-x="1078" 
d="M886 473q-30 30 -71.5 40.5t-101.5 10.5h-288q-96 0 -146.5 -46t-50.5 -131v-1q0 -85 49 -131.5t141 -46.5h271q31 0 58.5 3t48 10.5t32.5 19t12 28.5v4h-193v143h395v-75q0 -91 -28.5 -150.5t-76.5 -94t-112 -48.5t-136 -14h-271q-90 0 -161 24.5t-119.5 70t-74 111
t-25.5 146.5v1q0 81 26 146t75.5 110.5t121.5 70t164 24.5h288q49 0 90 -4.5t75.5 -15t64 -27t55.5 -41.5zM482 -331l40 109q-31 8 -54.5 31.5t-23.5 60.5q0 44 34 71t92 27q57 0 91 -27t34 -71q0 -25 -20 -62l-79 -139h-114z" />
    <glyph glyph-name="gdotaccent.ss02" horiz-adv-x="1078" 
d="M574 750q-58 0 -92 27.5t-34 71.5q0 43 34 70.5t92 27.5q57 0 91 -27.5t34 -70.5q0 -44 -34 -71.5t-91 -27.5zM886 473q-30 30 -71.5 40.5t-101.5 10.5h-288q-96 0 -146.5 -46t-50.5 -131v-1q0 -85 49 -131.5t141 -46.5h271q31 0 58.5 3t48 10.5t32.5 19t12 28.5v4h-193
v143h395v-75q0 -91 -28.5 -150.5t-76.5 -94t-112 -48.5t-136 -14h-271q-90 0 -161 24.5t-119.5 70t-74 111t-25.5 146.5v1q0 81 26 146t75.5 110.5t121.5 70t164 24.5h288q49 0 90 -4.5t75.5 -15t64 -27t55.5 -41.5z" />
    <glyph glyph-name="n.ss02" horiz-adv-x="1103" 
d="M830 692h194v-705h-45l-708 393l2 -380h-194v692h45l708 -391z" />
    <glyph glyph-name="nacute.ss02" horiz-adv-x="1103" 
d="M798 912l-199 -162h-186l150 162h235zM830 692h194v-705h-45l-708 393l2 -380h-194v692h45l708 -391z" />
    <glyph glyph-name="ncaron.ss02" horiz-adv-x="1103" 
d="M657 750h-211l-156 162h203l59 -65l57 65h203zM830 692h194v-705h-45l-708 393l2 -380h-194v692h45l708 -391z" />
    <glyph glyph-name="uni0146.ss02" horiz-adv-x="1103" 
d="M830 692h194v-705h-45l-708 393l2 -380h-194v692h45l708 -391zM568 -32q57 0 91 -27t34 -71q0 -25 -20 -62l-79 -139h-114l40 109q-31 8 -54.5 31.5t-23.5 60.5q0 44 34 71t92 27z" />
    <glyph glyph-name="ntilde.ss02" horiz-adv-x="1103" 
d="M498 782q-21 0 -27.5 -10.5t-6.5 -21.5h-149q0 27 4 57.5t18 56t42.5 42t76.5 16.5q29 0 50 -5t38 -11t32 -11t31 -5q20 0 27 9.5t7 21.5h150q0 -26 -4.5 -56t-19 -55.5t-42 -42.5t-72.5 -17q-33 0 -56 5t-40 11t-30.5 11t-28.5 5zM830 692h194v-705h-45l-708 393l2 -380
h-194v692h45l708 -391z" />
    <glyph glyph-name="r.ss02" horiz-adv-x="1036" 
d="M984 448q0 -54 -24 -94.5t-68 -68.5q42 -27 64.5 -66.5t22.5 -91.5v-127h-190v127q0 42 -27 59.5t-90 17.5h-403v-204h-190v692h593q85 0 144.5 -18.5t96.5 -50.5t54 -76.5t17 -97.5v-1zM794 446q0 42 -29 59.5t-93 17.5h-403v-157h403q64 0 93 17t29 62v1z" />
    <glyph glyph-name="racute.ss02" horiz-adv-x="1036" 
d="M766 912l-199 -162h-186l150 162h235zM984 448q0 -54 -24 -94.5t-68 -68.5q42 -27 64.5 -66.5t22.5 -91.5v-127h-190v127q0 42 -27 59.5t-90 17.5h-403v-204h-190v692h593q85 0 144.5 -18.5t96.5 -50.5t54 -76.5t17 -97.5v-1zM794 446q0 42 -29 59.5t-93 17.5h-403v-157
h403q64 0 93 17t29 62v1z" />
    <glyph glyph-name="rcaron.ss02" horiz-adv-x="1036" 
d="M625 750h-211l-156 162h203l59 -65l57 65h203zM984 448q0 -54 -24 -94.5t-68 -68.5q42 -27 64.5 -66.5t22.5 -91.5v-127h-190v127q0 42 -27 59.5t-90 17.5h-403v-204h-190v692h593q85 0 144.5 -18.5t96.5 -50.5t54 -76.5t17 -97.5v-1zM794 446q0 42 -29 59.5t-93 17.5
h-403v-157h403q64 0 93 17t29 62v1z" />
    <glyph glyph-name="uni0157.ss02" horiz-adv-x="1036" 
d="M984 448q0 -54 -24 -94.5t-68 -68.5q42 -27 64.5 -66.5t22.5 -91.5v-127h-190v127q0 42 -27 59.5t-90 17.5h-403v-204h-190v692h593q85 0 144.5 -18.5t96.5 -50.5t54 -76.5t17 -97.5v-1zM794 446q0 42 -29 59.5t-93 17.5h-403v-157h403q64 0 93 17t29 62v1zM531 -32
q57 0 91 -27t34 -71q0 -25 -20 -62l-79 -139h-114l40 109q-31 8 -54.5 31.5t-23.5 60.5q0 44 34 71t92 27z" />
    <glyph glyph-name="s.ss02" horiz-adv-x="960" 
d="M62 0v168h613q31 0 47 7t16 26q0 18 -13.5 26.5t-45.5 13.5l-436 53q-58 9 -96 29.5t-60.5 47.5t-31.5 59t-9 63q0 41 13 77.5t41.5 63.5t74 42.5t110.5 15.5h601v-168h-597q-61 0 -61 -34q0 -16 12.5 -24.5t46.5 -14.5l431 -52q60 -10 99 -30.5t62 -48t32 -59t9 -63.5
q0 -41 -12.5 -77t-41 -63t-74 -42.5t-110.5 -15.5h-620z" />
    <glyph glyph-name="sacute.ss02" horiz-adv-x="960" 
d="M341 750l150 162h235l-199 -162h-186zM62 0v168h613q31 0 47 7t16 26q0 18 -13.5 26.5t-45.5 13.5l-436 53q-58 9 -96 29.5t-60.5 47.5t-31.5 59t-9 63q0 41 13 77.5t41.5 63.5t74 42.5t110.5 15.5h601v-168h-597q-61 0 -61 -34q0 -16 12.5 -24.5t46.5 -14.5l431 -52
q60 -10 99 -30.5t62 -48t32 -59t9 -63.5q0 -41 -12.5 -77t-41 -63t-74 -42.5t-110.5 -15.5h-620z" />
    <glyph glyph-name="scaron.ss02" horiz-adv-x="960" 
d="M585 750h-211l-156 162h203l59 -65l57 65h203zM62 0v168h613q31 0 47 7t16 26q0 18 -13.5 26.5t-45.5 13.5l-436 53q-58 9 -96 29.5t-60.5 47.5t-31.5 59t-9 63q0 41 13 77.5t41.5 63.5t74 42.5t110.5 15.5h601v-168h-597q-61 0 -61 -34q0 -16 12.5 -24.5t46.5 -14.5
l431 -52q60 -10 99 -30.5t62 -48t32 -59t9 -63.5q0 -41 -12.5 -77t-41 -63t-74 -42.5t-110.5 -15.5h-620z" />
    <glyph glyph-name="scedilla.ss02" horiz-adv-x="960" 
d="M718 399q60 -10 99 -30.5t62 -48t32 -59t9 -63.5q0 -41 -12.5 -77t-41 -63t-74 -42.5t-110.5 -15.5h-122l-29 -39q58 -7 91 -27t33 -62q0 -28 -15 -45.5t-41 -27.5t-61.5 -13.5t-76.5 -3.5q-52 0 -82.5 2.5t-53.5 6.5v94q17 -3 33 -5t36 -2q26 0 43 4.5t17 18.5
q0 8 -6.5 13t-16.5 7.5t-23 3t-26 0.5l53 75h-373v168h613q31 0 47 7t16 26q0 18 -13.5 26.5t-45.5 13.5l-436 53q-58 9 -96 29.5t-60.5 47.5t-31.5 59t-9 63q0 41 13 77.5t41.5 63.5t74 42.5t110.5 15.5h601v-168h-597q-61 0 -61 -34q0 -16 12.5 -24.5t46.5 -14.5z" />
    <glyph glyph-name="uni0219.ss02" horiz-adv-x="960" 
d="M62 0v168h613q31 0 47 7t16 26q0 18 -13.5 26.5t-45.5 13.5l-436 53q-58 9 -96 29.5t-60.5 47.5t-31.5 59t-9 63q0 41 13 77.5t41.5 63.5t74 42.5t110.5 15.5h601v-168h-597q-61 0 -61 -34q0 -16 12.5 -24.5t46.5 -14.5l431 -52q60 -10 99 -30.5t62 -48t32 -59t9 -63.5
q0 -41 -12.5 -77t-41 -63t-74 -42.5t-110.5 -15.5h-620zM393 -331l40 109q-31 8 -54.5 31.5t-23.5 60.5q0 44 34 71t92 27q57 0 91 -27t34 -71q0 -25 -20 -62l-79 -139h-114z" />
    <glyph glyph-name="a.titl.ss02" horiz-adv-x="1078" 
d="M80 433q0 68 20 118t56.5 82.5t89 48.5t117.5 16h352q65 0 117.5 -16t89.5 -48.5t56.5 -82.5t19.5 -118v-202h-189v75h-539v-75h-190v202zM49 0v162h980v-162h-980zM270 436h539q-1 55 -28 77t-66 22h-352q-39 0 -65.5 -22t-27.5 -77z" />
    <glyph glyph-name="a.ss03" 
d="M664 634q146 0 228 -70.5t82 -213.5v-285h-195v102h-532v-102h-195v285q0 72 21 125t61 88.5t97.5 53t130.5 17.5h302zM247 313h532v37q0 63 -30.5 89t-84.5 26h-302q-54 0 -84.5 -26t-30.5 -89v-37z" />
    <glyph glyph-name="aacute.ss03" 
d="M760 847l-199 -162h-186l150 162h235zM664 634q146 0 228 -70.5t82 -213.5v-285h-195v102h-532v-102h-195v285q0 72 21 125t61 88.5t97.5 53t130.5 17.5h302zM247 313h532v37q0 63 -30.5 89t-84.5 26h-302q-54 0 -84.5 -26t-30.5 -89v-37z" />
    <glyph glyph-name="abreve.ss03" 
d="M513 685q-71 0 -117 14t-73 37t-37.5 52t-10.5 59h180q0 -22 14.5 -36.5t43.5 -14.5t43.5 14.5t14.5 36.5h180q0 -30 -10.5 -59t-37.5 -52t-73 -37t-117 -14zM664 634q146 0 228 -70.5t82 -213.5v-285h-195v102h-532v-102h-195v285q0 72 21 125t61 88.5t97.5 53
t130.5 17.5h302zM247 313h532v37q0 63 -30.5 89t-84.5 26h-302q-54 0 -84.5 -26t-30.5 -89v-37z" />
    <glyph glyph-name="acircumflex.ss03" 
d="M514 751l-59 -66h-203l156 162h211l155 -162h-203zM664 634q146 0 228 -70.5t82 -213.5v-285h-195v102h-532v-102h-195v285q0 72 21 125t61 88.5t97.5 53t130.5 17.5h302zM247 313h532v37q0 63 -30.5 89t-84.5 26h-302q-54 0 -84.5 -26t-30.5 -89v-37z" />
    <glyph glyph-name="adieresis.ss03" 
d="M363 684q-54 0 -89.5 27.5t-35.5 73.5q0 45 35.5 72.5t89.5 27.5q27 0 49.5 -7t39 -20.5t26 -31.5t9.5 -41q0 -46 -35 -73.5t-89 -27.5zM665 684q-54 0 -89.5 27.5t-35.5 73.5q0 45 35.5 72.5t89.5 27.5q27 0 49.5 -7t39 -20.5t26 -31.5t9.5 -41q0 -46 -35 -73.5
t-89 -27.5zM664 634q146 0 228 -70.5t82 -213.5v-285h-195v102h-532v-102h-195v285q0 72 21 125t61 88.5t97.5 53t130.5 17.5h302zM247 313h532v37q0 63 -30.5 89t-84.5 26h-302q-54 0 -84.5 -26t-30.5 -89v-37z" />
    <glyph glyph-name="agrave.ss03" 
d="M647 685h-187l-198 162h234zM664 634q146 0 228 -70.5t82 -213.5v-285h-195v102h-532v-102h-195v285q0 72 21 125t61 88.5t97.5 53t130.5 17.5h302zM247 313h532v37q0 63 -30.5 89t-84.5 26h-302q-54 0 -84.5 -26t-30.5 -89v-37z" />
    <glyph glyph-name="amacron.ss03" 
d="M726 834v-135h-426v135h426zM664 634q146 0 228 -70.5t82 -213.5v-285h-195v102h-532v-102h-195v285q0 72 21 125t61 88.5t97.5 53t130.5 17.5h302zM247 313h532v37q0 63 -30.5 89t-84.5 26h-302q-54 0 -84.5 -26t-30.5 -89v-37z" />
    <glyph glyph-name="aogonek.ss03" 
d="M948 -20q18 0 29 1.5t25 3.5v-126q-24 -5 -48.5 -7.5t-58.5 -2.5q-39 0 -71.5 6t-56 18.5t-37 32.5t-13.5 47q0 42 32.5 71.5t91.5 40.5h-62v102h-532v-102h-195v285q0 72 21 125t61 88.5t97.5 53t130.5 17.5h302q146 0 228 -70.5t82 -213.5v-285q-23 -9 -37 -18t-21 -17
t-9 -14.5t-2 -11.5q0 -14 12 -19t31 -5zM247 313h532v37q0 63 -30.5 89t-84.5 26h-302q-54 0 -84.5 -26t-30.5 -89v-37z" />
    <glyph glyph-name="aring.ss03" 
d="M513 685q-85 0 -128 34t-43 88t43 87.5t128 33.5t128 -33.5t43 -87.5t-43 -88t-128 -34zM514 845q-22 0 -34.5 -10.5t-12.5 -27.5q0 -18 12.5 -28.5t34.5 -10.5q21 0 33.5 10.5t12.5 28.5q0 17 -12.5 27.5t-33.5 10.5zM664 634q146 0 228 -70.5t82 -213.5v-285h-195v102
h-532v-102h-195v285q0 72 21 125t61 88.5t97.5 53t130.5 17.5h302zM247 313h532v37q0 63 -30.5 89t-84.5 26h-302q-54 0 -84.5 -26t-30.5 -89v-37z" />
    <glyph glyph-name="atilde.ss03" 
d="M460 717q-21 0 -27.5 -10.5t-6.5 -21.5h-149q0 27 4 57.5t18 56t42.5 42t76.5 16.5q29 0 50 -5t38 -11t32 -11t31 -5q20 0 27 9.5t7 21.5h150q0 -26 -4.5 -56t-19 -55.5t-42 -42.5t-72.5 -17q-33 0 -56 5t-40 11t-30.5 11t-28.5 5zM664 634q146 0 228 -70.5t82 -213.5
v-285h-195v102h-532v-102h-195v285q0 72 21 125t61 88.5t97.5 53t130.5 17.5h302zM247 313h532v37q0 63 -30.5 89t-84.5 26h-302q-54 0 -84.5 -26t-30.5 -89v-37z" />
    <glyph glyph-name="a.titl" horiz-adv-x="1044" 
d="M417 692h210l352 -466h-210l-51 72h-392l-51 -72h-210zM34 0v153h976v-153h-976zM624 429l-98 137h-12l-96 -137h206z" />
    <glyph glyph-name="e.titl" horiz-adv-x="939" 
d="M89 226v466h771v-122h-598v-54h543v-114h-543v-53h598v-123h-771zM58 0v153h833v-153h-833z" />
    <glyph glyph-name="i.titl" horiz-adv-x="908" 
d="M82 226v153h278v161h-278v152h744v-152h-278v-161h278v-153h-744zM857 153v-153h-806v153h806z" />
    <glyph glyph-name="o.titl" horiz-adv-x="1091" 
d="M72 460q0 112 72 175t216 63h371q144 0 216 -63t72 -175v-1q0 -112 -72 -175.5t-216 -63.5h-371q-144 0 -216 63.5t-72 175.5v1zM1050 153v-153h-1009v153h1009zM261 460v-1q0 -38 25.5 -60t73.5 -22h371q47 0 73 22t26 60v1q0 38 -26 60.5t-73 22.5h-371
q-48 0 -73.5 -22.5t-25.5 -60.5z" />
    <glyph glyph-name="u.titl" horiz-adv-x="1087" 
d="M268 692v-206q0 -54 28.5 -75.5t71.5 -21.5h351q43 0 71.5 21.5t28.5 75.5v206h189v-206q0 -69 -20 -119t-57.5 -82.5t-91 -48.5t-120.5 -16h-351q-67 0 -120.5 16t-91 48.5t-57.5 82.5t-20 119v206h189zM1039 153v-153h-991v153h991z" />
    <glyph glyph-name="A_N_D.dlig" horiz-adv-x="1761" 
d="M34 0v153h1686v-153h-1686zM1216 222v470h215q67 0 116.5 -16.5t82 -47t48.5 -73.5t16 -96v-1q0 -55 -16 -98.5t-48.5 -74t-82 -47t-116.5 -16.5h-215zM652 692h144l171 -210v210h156v-470h-144l-171 210v-210h-156v470zM210 692h226l152 -470h-172l-19 73h-147l-19 -73
h-171zM1431 362q45 0 72 24t27 72v1q0 45 -27 69t-72 24h-59v-190h59zM366 418l-36 139h-13l-36 -139h85z" />
    <glyph glyph-name="A_T.dlig" horiz-adv-x="1175" 
d="M231 692h226l152 -470h-172l-19 73h-147l-19 -73h-171zM47 0v153h1072v-153h-1072zM1096 692v-165h-156v-305h-174v305h-156v165h486zM387 418l-36 139h-13l-36 -139h85z" />
    <glyph glyph-name="C_O_N.dlig" horiz-adv-x="1735" 
d="M48 153h1621v-153h-1621v153zM561 457q0 55 17.5 100.5t51.5 78t84 50.5t115 18q66 0 116 -18t84 -50.5t51.5 -78t17.5 -99.5q0 -55 -17.5 -100.5t-51.5 -78.5t-84 -51t-116 -18q-65 0 -115 18t-84 50.5t-51.5 78t-17.5 100.5zM1316 692l171 -210v210h156v-470h-144
l-171 210v-210h-156v470h144zM74 457q0 55 17 100.5t51 78t83.5 50.5t113.5 18q58 0 99 -14t73 -43l-91 -124q-14 12 -32 21.5t-49 9.5q-45 0 -69.5 -26.5t-24.5 -70.5t24.5 -70.5t69.5 -26.5q31 0 49 9.5t32 21.5l91 -124q-32 -29 -73 -43t-99 -14q-64 0 -113.5 18
t-83.5 50.5t-51 78t-17 100.5zM732 457q0 -44 25.5 -70.5t71.5 -26.5q45 0 71.5 26.5t26.5 71.5q0 43 -26.5 69.5t-71.5 26.5q-46 0 -71.5 -26.5t-25.5 -70.5z" />
    <glyph glyph-name="D_E.dlig" horiz-adv-x="1121" 
d="M78 692h215q67 0 116.5 -16.5t82 -47t48.5 -73.5t16 -96q0 -110 -64.5 -173.5t-198.5 -63.5h-215v470zM1053 692v-124h-258v-50h218v-124h-218v-48h258v-124h-423v470h423zM1079 153v-153h-1027v153h1027zM293 362q45 0 72 24.5t27 72.5q0 45 -27 69t-72 24h-59v-190h59z
" />
    <glyph glyph-name="E_A_C_H.dlig" horiz-adv-x="2253" 
d="M71 0v153h2111v-153h-2111zM1646 222v470h170v-162h170v162h170v-470h-170v146h-170v-146h-170zM97 692h423v-124h-258v-50h218v-124h-218v-48h258v-124h-423v470zM730 692h226l152 -470h-172l-19 73h-147l-19 -73h-171zM1135 457q0 55 17 100.5t51 78t83.5 50.5
t113.5 18q58 0 99 -14t73 -43l-91 -124q-14 12 -32 21.5t-49 9.5q-45 0 -69.5 -26.5t-24.5 -70.5t24.5 -70.5t69.5 -26.5q31 0 49 9.5t32 21.5l91 -124q-32 -29 -73 -43t-99 -14q-64 0 -113.5 18t-83.5 50.5t-51 78t-17 100.5zM886 418l-36 139h-13l-36 -139h85z" />
    <glyph glyph-name="E_L.dlig" horiz-adv-x="1083" 
d="M103 222v470h423v-124h-258v-50h218v-124h-218v-48h258v-124h-423zM77 153h949v-153h-949v153zM767 692v-328h233v-142h-403v470h170z" />
    <glyph glyph-name="E_N.dlig" horiz-adv-x="1135" 
d="M579 692h144l171 -210v210h156v-470h-144l-171 211v-211h-156v470zM85 692h423v-124h-258v-50h218v-124h-218v-48h258v-124h-423v470zM61 0v153h1015v-153h-1015z" />
    <glyph glyph-name="F_O_R.dlig" horiz-adv-x="1744" 
d="M582 457q0 55 17.5 100.5t51.5 78t84 50.5t115 18q66 0 116 -18t84 -50.5t51.5 -78t17.5 -99.5q0 -55 -17.5 -100.5t-51.5 -78.5t-84 -51t-116 -18q-65 0 -115 18t-84 50.5t-51.5 78t-17.5 100.5zM80 0v153h1608v-153h-1608zM1193 221v471h217q114 0 173 -43.5t59 -126.5
q0 -110 -102 -148l122 -153h-181l-99 133h-29v-133h-160zM106 692h423v-142h-253v-65h213v-142h-213v-121h-170v470zM850 360q45 0 71.5 26.5t26.5 71.5q0 43 -26.5 69.5t-71.5 26.5q-46 0 -71.5 -26.5t-25.5 -70.5t25.5 -70.5t71.5 -26.5zM1353 573v-101h57q29 0 48 9.5
t19 40.5t-19 41t-48 10h-57z" />
    <glyph glyph-name="F_R_O_M.dlig" horiz-adv-x="2348" 
d="M58 0v153h2232v-153h-2232zM1359 704q66 0 116 -18t84 -50.5t51.5 -78t17.5 -99.5q0 -55 -17.5 -100.5t-51.5 -78.5t-84 -51t-116 -18q-65 0 -115 18t-84 50.5t-51.5 78t-17.5 100.5t17.5 100.5t51.5 78t84 50.5t115 18zM1694 222v470h190l95 -180l95 180h190v-470h-160
v231l-69 -139h-112l-69 139v-231h-160zM588 221v471h217q114 0 173 -43.5t59 -126.5q0 -110 -102 -148l122 -153h-181l-99 133h-29v-133h-160zM84 692h423v-142h-253v-65h213v-142h-213v-121h-170v470zM1262 457q0 -44 25.5 -70.5t71.5 -26.5q45 0 71.5 26.5t26.5 71.5
q0 43 -26.5 69.5t-71.5 26.5q-46 0 -71.5 -26.5t-25.5 -70.5zM748 573v-101h57q29 0 48 9.5t19 40.5t-19 41t-48 10h-57z" />
    <glyph glyph-name="I_F.dlig" horiz-adv-x="822" 
d="M332 692h423v-142h-253v-65h213v-142h-213v-121h-170v470zM781 153v-153h-722v153h722zM85 692h170v-470h-170v470z" />
    <glyph glyph-name="I_N.dlig" horiz-adv-x="932" 
d="M498 692l171 -210v210h156v-470h-144l-171 211v-211h-156v470h144zM81 0v153h770v-153h-770zM107 692h170v-470h-170v470z" />
    <glyph glyph-name="L_A.dlig" horiz-adv-x="1118" 
d="M531 222l150 470h226l152 -470h-172l-19 73h-147l-19 -73h-171zM59 0v153h1026v-153h-1026zM255 692v-328h233v-142h-403v470h170zM837 418l-36 139h-13l-36 -139h85z" />
    <glyph glyph-name="L_A_S.dlig" horiz-adv-x="1628" 
d="M64 0v153h1521v-153h-1521zM1086 268l74 122q33 -19 75 -33.5t93 -14.5q31 0 45.5 3.5t14.5 14.5q0 9 -11 13.5t-37 10.5l-106 25q-40 9 -66 25.5t-41 36t-21 40.5t-6 40q0 39 18 68t50 48t77 28t100 9q60 0 109 -12t87 -37l-74 -112q-32 17 -65.5 24t-62.5 7
q-35 0 -51.5 -4t-16.5 -15q0 -9 11.5 -13t38.5 -10l89 -20q44 -10 73 -26t46 -35.5t23.5 -41.5t6.5 -44q0 -78 -58.5 -116.5t-172.5 -38.5q-67 0 -129 12t-113 46zM536 222l150 470h226l152 -470h-172l-19 73h-147l-19 -73h-171zM260 692v-328h233v-142h-403v470h170z
M757 418h85l-36 139h-13z" />
    <glyph glyph-name="L_O_S.dlig" horiz-adv-x="1661" 
d="M540 457q0 55 17.5 100.5t51.5 78t84 50.5t115 18q66 0 116 -18t84 -50.5t51.5 -78t17.5 -99.5q0 -55 -17.5 -100.5t-51.5 -78.5t-84 -51t-116 -18q-65 0 -115 18t-84 50.5t-51.5 78t-17.5 100.5zM1627 153v-153h-1573v153h1573zM1128 268l74 122q33 -19 75 -33.5
t93 -14.5q31 0 45.5 3.5t14.5 14.5q0 9 -11 13.5t-37 10.5l-106 25q-40 9 -66 25.5t-41 36t-21 40.5t-6 40q0 39 18 68t50 48t77 28t100 9q60 0 109 -12t87 -37l-74 -112q-32 17 -65.5 24t-62.5 7q-35 0 -51.5 -4t-16.5 -15q0 -9 11.5 -13t38.5 -10l89 -20q44 -10 73 -26
t46 -35.5t23.5 -41.5t6.5 -44q0 -78 -58.5 -116.5t-172.5 -38.5q-67 0 -129 12t-113 46zM80 222v470h170v-328h233v-142h-403zM808 360q45 0 71.5 26.5t26.5 71.5q0 43 -26.5 69.5t-71.5 26.5q-46 0 -71.5 -26.5t-25.5 -70.5t25.5 -70.5t71.5 -26.5z" />
    <glyph glyph-name="O_F.dlig" horiz-adv-x="1179" 
d="M73 457q0 55 17.5 100.5t51.5 78t84 50.5t115 18q66 0 116 -18t84 -50.5t51.5 -78t17.5 -99.5q0 -55 -17.5 -100.5t-51.5 -78.5t-84 -51t-116 -18q-65 0 -115 18t-84 50.5t-51.5 78t-17.5 100.5zM47 0v153h1086v-153h-1086zM1107 692v-142h-253v-65h213v-142h-213v-121
h-170v470h423zM244 457q0 -44 25.5 -70.5t71.5 -26.5q45 0 71.5 26.5t26.5 71.5q0 43 -26.5 69.5t-71.5 26.5q-46 0 -71.5 -26.5t-25.5 -70.5z" />
    <glyph glyph-name="O_N.dlig" horiz-adv-x="1249" 
d="M75 457q0 55 17.5 100.5t51.5 78t84 50.5t115 18q66 0 116 -18t84 -50.5t51.5 -78t17.5 -99.5q0 -55 -17.5 -100.5t-51.5 -78.5t-84 -51t-116 -18q-65 0 -115 18t-84 50.5t-51.5 78t-17.5 100.5zM830 692l171 -210v210h156v-470h-144l-171 210v-210h-156v470h144zM49 153
h1134v-153h-1134v153zM246 457q0 -44 25.5 -70.5t71.5 -26.5q45 0 71.5 26.5t26.5 71.5q0 43 -26.5 69.5t-71.5 26.5q-46 0 -71.5 -26.5t-25.5 -70.5z" />
    <glyph glyph-name="O_R.dlig" horiz-adv-x="1219" 
d="M72 457q0 55 17.5 100.5t51.5 78t84 50.5t115 18q66 0 116 -18t84 -50.5t51.5 -78t17.5 -99.5q0 -55 -17.5 -100.5t-51.5 -78.5t-84 -51t-116 -18q-65 0 -115 18t-84 50.5t-51.5 78t-17.5 100.5zM900 692q114 0 173 -43.5t59 -126.5q0 -110 -102 -148l122 -152h-181
l-99 132h-29v-132h-160v470h217zM46 153h1132v-153h-1132v153zM340 360q45 0 71.5 26.5t26.5 71.5q0 43 -26.5 69.5t-71.5 26.5q-46 0 -71.5 -26.5t-25.5 -70.5t25.5 -70.5t71.5 -26.5zM900 472q29 0 48 9.5t19 40.5t-19 41t-48 10h-57v-101h57z" />
    <glyph glyph-name="T_H_E.dlig" horiz-adv-x="1750" 
d="M1692 153v-153h-1643v153h1643zM808 692v-162h170v162h170v-470h-170v146h-170v-146h-170v470h170zM1666 692v-124h-258v-50h218v-124h-218v-48h258v-124h-423v470h423zM561 692v-165h-156v-305h-174v305h-156v165h486z" />
    <glyph glyph-name="T_O.dlig" horiz-adv-x="1216" 
d="M880 704q66 0 116 -18t84 -50.5t51.5 -78t17.5 -99.5q0 -55 -17.5 -100.5t-51.5 -78.5t-84 -51t-116 -18q-65 0 -115 18t-84 50.5t-51.5 78t-17.5 100.5t17.5 100.5t51.5 78t84 50.5t115 18zM1175 153v-153h-1133v153h1133zM68 527v165h486v-165h-156v-305h-174v305h-156
zM783 457q0 -44 25.5 -70.5t71.5 -26.5q45 0 71.5 26.5t26.5 71.5q0 43 -26.5 69.5t-71.5 26.5q-46 0 -71.5 -26.5t-25.5 -70.5z" />
    <glyph glyph-name="W_I_T_H.dlig" horiz-adv-x="2242" 
d="M47 0v153h2125v-153h-2125zM73 692h170l27 -259l47 168h178l47 -167l27 258h170l-104 -470h-145l-83 235h-2l-83 -235h-145zM1806 692v-162h170v162h170v-470h-170v146h-170v-146h-170v470h170zM1073 692h486v-165h-156v-305h-174v305h-156v165zM826 692h170v-470h-170
v470z" />
    <glyph glyph-name="a_n_d.dlig" horiz-adv-x="1761" 
d="M34 0v153h1686v-153h-1686zM1216 222v470h215q67 0 116.5 -16.5t82 -47t48.5 -73.5t16 -96v-1q0 -55 -16 -98.5t-48.5 -74t-82 -47t-116.5 -16.5h-215zM652 692h144l171 -210v210h156v-470h-144l-171 210v-210h-156v470zM210 692h226l152 -470h-172l-19 73h-147l-19 -73
h-171zM1431 362q45 0 72 24t27 72v1q0 45 -27 69t-72 24h-59v-190h59zM366 418l-36 139h-13l-36 -139h85z" />
    <glyph glyph-name="a_t.dlig" horiz-adv-x="1175" 
d="M231 692h226l152 -470h-172l-19 73h-147l-19 -73h-171zM47 0v153h1072v-153h-1072zM1096 692v-165h-156v-305h-174v305h-156v165h486zM387 418l-36 139h-13l-36 -139h85z" />
    <glyph glyph-name="c_o_n.dlig" horiz-adv-x="1735" 
d="M48 153h1621v-153h-1621v153zM561 457q0 55 17.5 100.5t51.5 78t84 50.5t115 18q66 0 116 -18t84 -50.5t51.5 -78t17.5 -99.5q0 -55 -17.5 -100.5t-51.5 -78.5t-84 -51t-116 -18q-65 0 -115 18t-84 50.5t-51.5 78t-17.5 100.5zM1316 692l171 -210v210h156v-470h-144
l-171 210v-210h-156v470h144zM74 457q0 55 17 100.5t51 78t83.5 50.5t113.5 18q58 0 99 -14t73 -43l-91 -124q-14 12 -32 21.5t-49 9.5q-45 0 -69.5 -26.5t-24.5 -70.5t24.5 -70.5t69.5 -26.5q31 0 49 9.5t32 21.5l91 -124q-32 -29 -73 -43t-99 -14q-64 0 -113.5 18
t-83.5 50.5t-51 78t-17 100.5zM732 457q0 -44 25.5 -70.5t71.5 -26.5q45 0 71.5 26.5t26.5 71.5q0 43 -26.5 69.5t-71.5 26.5q-46 0 -71.5 -26.5t-25.5 -70.5z" />
    <glyph glyph-name="d_e.dlig" horiz-adv-x="1121" 
d="M78 692h215q67 0 116.5 -16.5t82 -47t48.5 -73.5t16 -96q0 -110 -64.5 -173.5t-198.5 -63.5h-215v470zM1053 692v-124h-258v-50h218v-124h-218v-48h258v-124h-423v470h423zM1079 153v-153h-1027v153h1027zM293 362q45 0 72 24.5t27 72.5q0 45 -27 69t-72 24h-59v-190h59z
" />
    <glyph glyph-name="e_a_c_h.dlig" horiz-adv-x="2253" 
d="M71 0v153h2111v-153h-2111zM1646 222v470h170v-162h170v162h170v-470h-170v146h-170v-146h-170zM97 692h423v-124h-258v-50h218v-124h-218v-48h258v-124h-423v470zM730 692h226l152 -470h-172l-19 73h-147l-19 -73h-171zM1135 457q0 55 17 100.5t51 78t83.5 50.5
t113.5 18q58 0 99 -14t73 -43l-91 -124q-14 12 -32 21.5t-49 9.5q-45 0 -69.5 -26.5t-24.5 -70.5t24.5 -70.5t69.5 -26.5q31 0 49 9.5t32 21.5l91 -124q-32 -29 -73 -43t-99 -14q-64 0 -113.5 18t-83.5 50.5t-51 78t-17 100.5zM886 418l-36 139h-13l-36 -139h85z" />
    <glyph glyph-name="e_l.dlig" horiz-adv-x="1083" 
d="M103 222v470h423v-124h-258v-50h218v-124h-218v-48h258v-124h-423zM77 153h949v-153h-949v153zM767 692v-328h233v-142h-403v470h170z" />
    <glyph glyph-name="e_n.dlig" horiz-adv-x="1135" 
d="M579 692h144l171 -210v210h156v-470h-144l-171 211v-211h-156v470zM85 692h423v-124h-258v-50h218v-124h-218v-48h258v-124h-423v470zM61 0v153h1015v-153h-1015z" />
    <glyph glyph-name="f_o_r.dlig" horiz-adv-x="1744" 
d="M582 457q0 55 17.5 100.5t51.5 78t84 50.5t115 18q66 0 116 -18t84 -50.5t51.5 -78t17.5 -99.5q0 -55 -17.5 -100.5t-51.5 -78.5t-84 -51t-116 -18q-65 0 -115 18t-84 50.5t-51.5 78t-17.5 100.5zM80 0v153h1608v-153h-1608zM1193 221v471h217q114 0 173 -43.5t59 -126.5
q0 -110 -102 -148l122 -153h-181l-99 133h-29v-133h-160zM106 692h423v-142h-253v-65h213v-142h-213v-121h-170v470zM850 360q45 0 71.5 26.5t26.5 71.5q0 43 -26.5 69.5t-71.5 26.5q-46 0 -71.5 -26.5t-25.5 -70.5t25.5 -70.5t71.5 -26.5zM1353 573v-101h57q29 0 48 9.5
t19 40.5t-19 41t-48 10h-57z" />
    <glyph glyph-name="f_r_o_m.dlig" horiz-adv-x="2348" 
d="M58 0v153h2232v-153h-2232zM1359 704q66 0 116 -18t84 -50.5t51.5 -78t17.5 -99.5q0 -55 -17.5 -100.5t-51.5 -78.5t-84 -51t-116 -18q-65 0 -115 18t-84 50.5t-51.5 78t-17.5 100.5t17.5 100.5t51.5 78t84 50.5t115 18zM1694 222v470h190l95 -180l95 180h190v-470h-160
v231l-69 -139h-112l-69 139v-231h-160zM588 221v471h217q114 0 173 -43.5t59 -126.5q0 -110 -102 -148l122 -153h-181l-99 133h-29v-133h-160zM84 692h423v-142h-253v-65h213v-142h-213v-121h-170v470zM1262 457q0 -44 25.5 -70.5t71.5 -26.5q45 0 71.5 26.5t26.5 71.5
q0 43 -26.5 69.5t-71.5 26.5q-46 0 -71.5 -26.5t-25.5 -70.5zM748 573v-101h57q29 0 48 9.5t19 40.5t-19 41t-48 10h-57z" />
    <glyph glyph-name="i_f.dlig" horiz-adv-x="822" 
d="M332 692h423v-142h-253v-65h213v-142h-213v-121h-170v470zM781 153v-153h-722v153h722zM85 692h170v-470h-170v470z" />
    <glyph glyph-name="i_n.dlig" horiz-adv-x="932" 
d="M498 692l171 -210v210h156v-470h-144l-171 211v-211h-156v470h144zM81 0v153h770v-153h-770zM107 692h170v-470h-170v470z" />
    <glyph glyph-name="l_a.dlig" horiz-adv-x="1118" 
d="M531 222l150 470h226l152 -470h-172l-19 73h-147l-19 -73h-171zM59 0v153h1026v-153h-1026zM255 692v-328h233v-142h-403v470h170zM837 418l-36 139h-13l-36 -139h85z" />
    <glyph glyph-name="l_a_s.dlig" horiz-adv-x="1628" 
d="M64 0v153h1521v-153h-1521zM1086 268l74 122q33 -19 75 -33.5t93 -14.5q31 0 45.5 3.5t14.5 14.5q0 9 -11 13.5t-37 10.5l-106 25q-40 9 -66 25.5t-41 36t-21 40.5t-6 40q0 39 18 68t50 48t77 28t100 9q60 0 109 -12t87 -37l-74 -112q-32 17 -65.5 24t-62.5 7
q-35 0 -51.5 -4t-16.5 -15q0 -9 11.5 -13t38.5 -10l89 -20q44 -10 73 -26t46 -35.5t23.5 -41.5t6.5 -44q0 -78 -58.5 -116.5t-172.5 -38.5q-67 0 -129 12t-113 46zM536 222l150 470h226l152 -470h-172l-19 73h-147l-19 -73h-171zM260 692v-328h233v-142h-403v470h170z
M757 418h85l-36 139h-13z" />
    <glyph glyph-name="l_o_s.dlig" horiz-adv-x="1661" 
d="M540 457q0 55 17.5 100.5t51.5 78t84 50.5t115 18q66 0 116 -18t84 -50.5t51.5 -78t17.5 -99.5q0 -55 -17.5 -100.5t-51.5 -78.5t-84 -51t-116 -18q-65 0 -115 18t-84 50.5t-51.5 78t-17.5 100.5zM1627 153v-153h-1573v153h1573zM1128 268l74 122q33 -19 75 -33.5
t93 -14.5q31 0 45.5 3.5t14.5 14.5q0 9 -11 13.5t-37 10.5l-106 25q-40 9 -66 25.5t-41 36t-21 40.5t-6 40q0 39 18 68t50 48t77 28t100 9q60 0 109 -12t87 -37l-74 -112q-32 17 -65.5 24t-62.5 7q-35 0 -51.5 -4t-16.5 -15q0 -9 11.5 -13t38.5 -10l89 -20q44 -10 73 -26
t46 -35.5t23.5 -41.5t6.5 -44q0 -78 -58.5 -116.5t-172.5 -38.5q-67 0 -129 12t-113 46zM80 222v470h170v-328h233v-142h-403zM808 360q45 0 71.5 26.5t26.5 71.5q0 43 -26.5 69.5t-71.5 26.5q-46 0 -71.5 -26.5t-25.5 -70.5t25.5 -70.5t71.5 -26.5z" />
    <glyph glyph-name="o_f.dlig" horiz-adv-x="1179" 
d="M73 457q0 55 17.5 100.5t51.5 78t84 50.5t115 18q66 0 116 -18t84 -50.5t51.5 -78t17.5 -99.5q0 -55 -17.5 -100.5t-51.5 -78.5t-84 -51t-116 -18q-65 0 -115 18t-84 50.5t-51.5 78t-17.5 100.5zM47 0v153h1086v-153h-1086zM1107 692v-142h-253v-65h213v-142h-213v-121
h-170v470h423zM244 457q0 -44 25.5 -70.5t71.5 -26.5q45 0 71.5 26.5t26.5 71.5q0 43 -26.5 69.5t-71.5 26.5q-46 0 -71.5 -26.5t-25.5 -70.5z" />
    <glyph glyph-name="o_n.dlig" horiz-adv-x="1249" 
d="M75 457q0 55 17.5 100.5t51.5 78t84 50.5t115 18q66 0 116 -18t84 -50.5t51.5 -78t17.5 -99.5q0 -55 -17.5 -100.5t-51.5 -78.5t-84 -51t-116 -18q-65 0 -115 18t-84 50.5t-51.5 78t-17.5 100.5zM830 692l171 -210v210h156v-470h-144l-171 210v-210h-156v470h144zM49 153
h1134v-153h-1134v153zM246 457q0 -44 25.5 -70.5t71.5 -26.5q45 0 71.5 26.5t26.5 71.5q0 43 -26.5 69.5t-71.5 26.5q-46 0 -71.5 -26.5t-25.5 -70.5z" />
    <glyph glyph-name="o_r.dlig" horiz-adv-x="1219" 
d="M72 457q0 55 17.5 100.5t51.5 78t84 50.5t115 18q66 0 116 -18t84 -50.5t51.5 -78t17.5 -99.5q0 -55 -17.5 -100.5t-51.5 -78.5t-84 -51t-116 -18q-65 0 -115 18t-84 50.5t-51.5 78t-17.5 100.5zM900 692q114 0 173 -43.5t59 -126.5q0 -110 -102 -148l122 -152h-181
l-99 132h-29v-132h-160v470h217zM46 153h1132v-153h-1132v153zM340 360q45 0 71.5 26.5t26.5 71.5q0 43 -26.5 69.5t-71.5 26.5q-46 0 -71.5 -26.5t-25.5 -70.5t25.5 -70.5t71.5 -26.5zM900 472q29 0 48 9.5t19 40.5t-19 41t-48 10h-57v-101h57z" />
    <glyph glyph-name="t_h_e.dlig" horiz-adv-x="1750" 
d="M1692 153v-153h-1643v153h1643zM808 692v-162h170v162h170v-470h-170v146h-170v-146h-170v470h170zM1666 692v-124h-258v-50h218v-124h-218v-48h258v-124h-423v470h423zM561 692v-165h-156v-305h-174v305h-156v165h486z" />
    </font>
</defs>
</svg>
